<svg xmlns="http://www.w3.org/2000/svg" width="602" height="752" style="shape-rendering:geometricPrecision;text-rendering:geometricPrecision;image-rendering:optimizeQuality;fill-rule:evenodd;clip-rule:evenodd"><path style="opacity:.805" fill="#fefefe" d="M556 29c12-3 21 1 26 13 2 7 1 13-3 20L126 515a1458 1458 0 0 1-61 39c-6-2-8-6-6-11a2387 2387 0 0 0 36-55A145770 145770 0 0 1 549 33a795 795 0 0 0 7-4zm3 5c13-1 20 6 18 20a36 36 0 0 1-4 7l-29 29a668 668 0 0 1-21-22c11-13 23-24 36-34zm-41 38a666 666 0 0 1 22 21 267 267 0 0 1-14 14 312 312 0 0 1-21-21 30787 30787 0 0 0 13-14zm-18 18a666 666 0 0 1 22 21 110064 110064 0 0 0-394 395 775 775 0 0 1-31 21h-3a148 148 0 0 1-10-10 827 827 0 0 1 18-29A223931 223931 0 0 0 500 90zM80 521a162 162 0 0 1 11 10 524 524 0 0 1-26 17c-2-1-2-2-1-2a244 244 0 0 0 16-25z"/></svg>