<svg xmlns="http://www.w3.org/2000/svg" width="602" height="752" style="shape-rendering:geometricPrecision;text-rendering:geometricPrecision;image-rendering:optimizeQuality;fill-rule:evenodd;clip-rule:evenodd"><path style="opacity:.805" fill="#fefefe" d="M555.5 28.5c12.32-2.423 21.153 1.91 26.5 13 2.44 7.14 1.44 13.807-3 20L125.5 515a1458.251 1458.251 0 0 1-61 38.5c-5.69-1.527-7.524-5.194-5.5-11a2386.846 2386.846 0 0 0 36-55A145769.78 145769.78 0 0 1 548.5 33a794.64 794.64 0 0 0 7-4.5zm3 5c13.995-.507 20.162 6.16 18.5 20a36.168 36.168 0 0 1-4 7l-29 29a667.527 667.527 0 0 1-21.5-22c11.138-12.478 23.138-23.811 36-34zm-41 38a666.165 666.165 0 0 1 22 21.5 266.667 266.667 0 0 1-14 13.5 312.182 312.182 0 0 1-21-21 30787.1 30787.1 0 0 0 13-14zm-18 18a666.366 666.366 0 0 1 22 21.5 110063.758 110063.758 0 0 0-394 395 775.069 775.069 0 0 1-31 21c-1 .667-2 .667-3 0a148.386 148.386 0 0 1-10-10.5 827.147 827.147 0 0 1 18.5-29 223930.758 223930.758 0 0 0 397.5-398zm-420 431a162.038 162.038 0 0 1 11 10.5 523.967 523.967 0 0 1-26 16.5c-1.021-.502-1.188-1.168-.5-2a243.872 243.872 0 0 0 15.5-25z"/></svg>