<svg xmlns="http://www.w3.org/2000/svg" width="1282" height="1404" style="shape-rendering:geometricPrecision;text-rendering:geometricPrecision;image-rendering:optimizeQuality;fill-rule:evenodd;clip-rule:evenodd"><path style="opacity:.86" fill="#fefefe" d="M623 15a615 615 0 0 1 538 300c10 6 19 14 26 25 50 100 73 206 69 319l-6 8-10 5-1 50c-2 8-6 16-12 23 25 26 37 58 34 95l-6 26-21 43-233 429c-28 39-67 56-115 52-17-4-32-10-46-18a63 63 0 0 1-21-63c-3 0-6 1-8 3-2-2-5-1-6 1-30 6-57 0-81-18a95 95 0 0 1-31-91l6-16a2585418 2585418 0 0 1 262-485c30-41 68-52 115-35 13 7 25 16 35 29 8 12 14 26 17 41 7-8 15-13 25-16a924 924 0 0 1 19-5l-1-26 2-18-4-5c-8-1-13-6-14-13v-47a655 655 0 0 0-62-227l-2-17c-5-8-10-15-16-21l-36-39-51-39-54-30a710 710 0 0 0-538-22c-39 15-76 33-111 55-37 26-69 56-96 92l-9 33c-41 81-60 168-57 261-3 9-9 14-18 17v48c14 0 28 4 40 13l6 7c10-49 40-75 89-79 22 1 42 8 61 22l14 17a23699 23699 0 0 0 158 289c34 65 68 129 104 194 16 35 13 68-9 100a92 92 0 0 1-93 31l-2 1-13-6c5 27-3 48-24 65-44 24-87 23-128-4-14-11-25-23-34-38l-167-310-10-16c-20-39-41-78-63-116a117 117 0 0 1 19-145c-8-5-12-12-14-20-1-17-2-34 0-51l-3-4c-10-1-15-6-15-15-4-111 20-216 70-315 7-9 15-17 25-23 14-14 26-29 36-46A618 618 0 0 1 623 15Zm-3 22a583 583 0 0 1 514 284c9 9 19 17 30 24l6 10a674 674 0 0 1 65 267l-58-1-6-65c-10-63-28-123-56-179-2-17-5-32-10-47-3-8-7-15-11-21l-23-32-21-25-19-21-7-6h-2c-2-5-6-9-9-12A596 596 0 0 0 727 70l-43-5a562 562 0 0 0-501 247c-6 8-10 16-13 25l-7 38a613 613 0 0 0-61 247H42c2-68 14-133 35-196 10-28 22-54 35-79 5-6 12-11 19-14l21-23A609 609 0 0 1 454 68a1233 1233 0 0 1 76-20l3 1c2-2 4-2 7-3a2337 2337 0 0 1 47-5l33-4Zm13 48a524 524 0 0 1 386 166l4 10 1-3a838 838 0 0 0 10 13 596 596 0 0 0-92-57c-34-15-68-28-103-39a1505 1505 0 0 0-130-23c-5 0-9 0-12-2a755 755 0 0 0-364 66c-33 17-63 36-92 58l-1-1A528 528 0 0 1 633 85ZM42 646h18c3-1 6 0 9 2l-25 2c-3-1-4-2-2-4Zm58 0c1 0 2 1 2 3-5-1-6-2-2-3Zm1077 0h38c7 0 13 0 20 2l-19 2c-14-2-27-2-39 0v-4ZM72 647c1-1 2 0 3 1-2 1-3 0-3-1Zm6 0h17l-9 2-8-2Zm-18 24c7-1 15 0 22 1l1 39c1 11-4 16-15 15l-7-5-1-50Zm1134 0h24c1 15 0 31-1 48-3 7-9 10-17 7-4-3-5-7-6-11v-44Zm-964 11c21-2 41 4 58 18l10 14 260 478c12 27 9 52-8 77a72 72 0 0 1-73 22c-14-5-26-13-36-24a21112 21112 0 0 1-207-382l-58-106c-11-36-2-65 28-87 8-4 17-8 26-10Zm798 0c39-2 65 16 77 54 3 14 2 28-3 42a126947 126947 0 0 0-265 489 69 69 0 0 1-81 21c-39-19-51-49-38-90l259-479c5-9 11-17 19-23 10-6 21-11 32-14Zm145 59c12 1 23 6 33 14 39 38 44 81 16 129a68176 68176 0 0 0-242 446 96 96 0 0 1-76 39c7-18 16-35 26-50 2-7 2-12-1-18l-6-1-13 3c-2-6-5-10-9-14h-6l-6 4c-8 13-15 26-20 40v6c-6 2-9 6-10 12l3 6c-8-3-14-8-19-16-5-10-6-21-3-31l300-553c4-6 10-11 18-13l15-3Zm-1072 1c16-2 29 4 39 18l298 549c3 7 3 14 1 22-4 9-9 17-15 24h-5c1-8-2-14-9-17-2-12-6-22-13-30-3-8-7-14-12-19-6-1-11 0-14 6l-3 9c-6-5-12-6-18-2-4 5-4 10-2 16l29 50a95 95 0 0 1-78-37L44 859a95 95 0 0 1 41-112l16-5Zm269 566c8 9 14 19 19 32 3 1 6 2 8 5l-1 6c2 4 5 8 10 11l-4 3-4-2c-2-6-5-12-9-16l-3-9-8-11-8-19Zm532 9v5l-23 44-4-4 6-7 2-12c2-2 3-3 6-2-1-2 0-4 1-5l12-19Z"/><path style="opacity:.024" fill="#fefffe" d="M322 252c1 0 1 0 0 0Z"/><path style="opacity:.729" fill="#fefffe" d="M1171 786c6 2 9 7 8 15-3 7-7 14-13 19-7 2-12-1-14-7-1-3 0-6 1-8 3-6 6-11 10-15 2-3 5-4 8-4Z"/><path style="opacity:.733" fill="#fefffe" d="M111 787c2 0 4 2 6 4 4 5 7 12 10 19-2 7-7 11-14 10l-9-7c0-5-2-9-5-12 0-9 3-13 12-14Z"/><path style="opacity:.842" fill="#fefefe" d="M316 795c5-1 8 1 11 6a2136 2136 0 0 1 168 314c0 3-2 5-6 4l-5-5-32-49c-36-62-71-125-104-189l-30-67c-2-5-3-10-2-14Z"/><path style="opacity:.84" fill="#fefefe" d="M959 795c2 0 3 1 4 4l-5 17c-46 100-99 197-158 291l-12 14c-1-2-1-2-2 0-3-3-4-7-3-11a2181 2181 0 0 1 167-308l9-7Z"/><path style="opacity:.007" fill="#fefffe" d="M890 891c2 0 2 0 0 2v-2Z"/><path style="opacity:.004" fill="#fefffe" d="M862 940c2 0 2 0 0 2v-2Z"/></svg>