<?xml version="1.0" encoding="UTF-8"?>
<!DOCTYPE svg PUBLIC "-//W3C//DTD SVG 1.1//EN" "http://www.w3.org/Graphics/SVG/1.1/DTD/svg11.dtd">
<svg xmlns="http://www.w3.org/2000/svg" version="1.1" width="1282px" height="1404px" style="shape-rendering:geometricPrecision; text-rendering:geometricPrecision; image-rendering:optimizeQuality; fill-rule:evenodd; clip-rule:evenodd" xmlns:xlink="http://www.w3.org/1999/xlink">
<g><path style="opacity:0.86" fill="#fefefe" d="M 622.5,14.5 C 750.078,13.9661 867.078,49.1328 973.5,120C 979.467,125.652 986.134,130.318 993.5,134C 999.921,140.425 1006.92,146.091 1014.5,151C 1024.24,160.746 1034.58,169.746 1045.5,178C 1082.87,214.263 1115.87,254.096 1144.5,297.5C 1150.12,303.127 1155.45,308.96 1160.5,315C 1171.24,321.073 1180.07,329.239 1187,339.5C 1237.25,439.545 1260.25,545.878 1256,658.5C 1254.44,661.783 1252.27,664.617 1249.5,667C 1246.11,668.115 1242.94,669.615 1240,671.5C 1239.67,688.167 1239.33,704.833 1239,721.5C 1236.91,730.34 1232.75,738.007 1226.5,744.5C 1252.04,770.935 1263.54,802.602 1261,839.5C 1259.95,848.381 1257.95,857.048 1255,865.5C 1248.29,879.915 1241.29,894.248 1234,908.5C 1155.95,1051.62 1078.28,1194.62 1001,1337.5C 972.597,1376.55 934.097,1394.05 885.5,1390C 869.45,1385.82 854.117,1379.82 839.5,1372C 820.305,1354.8 813.305,1333.63 818.5,1308.5C 815.91,1309.25 813.41,1310.25 811,1311.5C 808.553,1310.21 806.386,1310.71 804.5,1313C 774.661,1319.24 747.661,1313.24 723.5,1295C 696.669,1270.22 686.502,1239.72 693,1203.5C 694.695,1198.05 696.695,1192.72 699,1187.5C 746.29,1098.57 794.29,1010.24 843,922.5C 882.363,849.103 921.696,775.77 961,702.5C 990.929,662.223 1029.1,650.723 1075.5,668C 1089.45,674.964 1101.29,684.464 1111,696.5C 1119.47,709.29 1125.13,722.957 1128,737.5C 1134.92,730.222 1143.09,725.056 1152.5,722C 1158.53,720.597 1164.53,719.264 1170.5,718C 1170.96,717.586 1171.29,717.086 1171.5,716.5C 1171.21,707.966 1170.88,699.466 1170.5,691C 1171.19,684.864 1171.85,678.698 1172.5,672.5C 1171.35,670.851 1170.02,669.351 1168.5,668C 1160.96,666.796 1156.29,662.463 1154.5,655C 1155.46,639.074 1155.46,623.241 1154.5,607.5C 1150.74,558.576 1141.57,510.576 1127,463.5C 1122.12,448.944 1116.78,434.611 1111,420.5C 1104.9,407.115 1098.9,393.781 1093,380.5C 1092.14,374.857 1091.47,369.19 1091,363.5C 1086.05,356.216 1080.72,349.216 1075,342.5C 1062.83,329.667 1050.67,316.833 1038.5,304C 1021.68,290.758 1004.68,277.758 987.5,265C 969.536,255.005 951.536,245.005 933.5,235C 856.979,198.811 775.979,177.811 690.5,172C 588.824,164.876 490.491,178.543 395.5,213C 356.761,227.869 319.761,246.203 284.5,268C 248.184,293.646 216.351,324.146 189,359.5C 186.716,370.619 183.716,381.619 180,392.5C 139.199,474.358 120.199,561.358 123,653.5C 120.225,662.609 114.225,668.275 105,670.5C 105.076,686.638 104.909,702.638 104.5,718.5C 119.42,718.532 132.753,723.032 144.5,732C 146.712,734.043 148.712,736.209 150.5,738.5C 160.849,690.078 190.682,663.744 240,659.5C 262.206,660.799 282.373,668.299 300.5,682C 305.333,687.5 310.167,693 315,698.5C 361.54,784.926 408.54,870.926 456,956.5C 460.349,967.529 466.016,977.863 473,987.5C 506.829,1052.65 541.495,1117.32 577,1181.5C 592.89,1216.58 589.89,1249.92 568,1281.5C 542.947,1309.89 511.78,1320.22 474.5,1312.5C 473.914,1312.71 473.414,1313.04 473,1313.5C 468.441,1311.59 463.941,1309.59 459.5,1307.5C 465.3,1334.5 457.3,1356.34 435.5,1373C 392.074,1397.47 349.407,1396.13 307.5,1369C 293.838,1358.34 282.671,1345.5 274,1330.5C 217.887,1227.39 162.22,1124.06 107,1020.5C 103.667,1015.17 100.333,1009.83 97,1004.5C 76.5374,965.577 55.5374,926.91 34,888.5C 9.27852,844.025 10.9452,800.692 39,758.5C 43.3149,753.351 47.8149,748.351 52.5,743.5C 45.2797,738.742 40.7797,732.076 39,723.5C 37.5106,706.663 37.3439,689.83 38.5,673C 38.2148,671.11 37.2148,669.777 35.5,669C 26.2631,668.064 21.4298,662.897 21,653.5C 17.316,542.996 40.6494,437.996 91,338.5C 97.9149,329.583 106.082,322.083 115.5,316C 129.832,302.319 141.999,286.819 152,269.5C 235.019,156.181 343.852,79.0147 478.5,38C 525.646,24.5977 573.646,16.7643 622.5,14.5 Z M 619.5,36.5 C 818.545,37.2729 979.045,116.273 1101,273.5C 1111.75,289.342 1122.75,305.008 1134,320.5C 1142.82,329.978 1152.65,338.145 1163.5,345C 1165.54,348.253 1167.71,351.42 1170,354.5C 1201.18,419.385 1221.51,487.719 1231,559.5C 1233.24,580.239 1234.41,600.905 1234.5,621.5C 1215.18,621.698 1196.02,621.364 1177,620.5C 1174.53,598.851 1172.53,577.184 1171,555.5C 1161.47,492.76 1142.81,433.093 1115,376.5C 1113.39,360.449 1110.06,344.782 1105,329.5C 1102.11,322.058 1098.45,315.058 1094,308.5C 1085.84,298.186 1078.18,287.52 1071,276.5C 1063.31,268.802 1056.31,260.469 1050,251.5C 1042.6,245.386 1036.1,238.386 1030.5,230.5C 1028.18,228.684 1026.02,226.684 1024,224.5C 1023.33,225.833 1022.67,225.833 1022,224.5C 1019.59,220.084 1016.42,216.251 1012.5,213C 945.231,151.874 868.231,108.207 781.5,82C 763.138,78.1597 744.805,74.1597 726.5,70C 712.163,68.4892 697.829,66.8225 683.5,65C 635.955,61.9289 588.622,64.2622 541.5,72C 389.583,104.017 269.75,183.851 182,311.5C 177.419,319.587 173.419,327.92 170,336.5C 167.055,348.967 164.722,361.634 163,374.5C 128.701,444.433 108.368,518.433 102,596.5C 101.5,604.827 101.334,613.16 101.5,621.5C 81.5279,621.213 61.5279,621.213 41.5,621.5C 43.8949,554.253 55.7282,488.919 77,425.5C 87.1278,398.437 98.7944,372.104 112,346.5C 117.424,340.925 123.59,336.425 130.5,333C 138.016,325.451 145.183,317.618 152,309.5C 200.139,234.694 261.639,173.194 336.5,125C 363.807,109.515 391.474,94.8483 419.5,81C 431.121,77.5354 442.455,73.2021 453.5,68C 475.868,61.0504 498.535,54.7171 521.5,49C 524.426,48.7822 527.26,48.2822 530,47.5C 531,47.8333 532,48.1667 533,48.5C 535.071,47.4752 537.238,46.6419 539.5,46C 552.776,43.7239 566.11,41.5573 579.5,39.5C 582.011,40.1036 584.511,40.4369 587,40.5C 598.03,39.8486 608.864,38.5153 619.5,36.5 Z M 632.5,84.5 C 774.027,85.5245 896.027,133.858 998.5,229.5C 1005.1,236.599 1011.93,243.599 1019,250.5C 1020.72,253.674 1022.06,257.007 1023,260.5C 1023.33,259.5 1023.67,258.5 1024,257.5C 1031.68,266.01 1039.51,274.344 1047.5,282.5C 1047,283.521 1046.33,283.688 1045.5,283C 1041.41,278.983 1037.41,274.983 1033.5,271C 1018.41,259.277 1002.74,248.277 986.5,238C 971.404,230.284 956.404,222.284 941.5,214C 907.89,199.02 873.556,186.02 838.5,175C 808.302,167.717 777.968,161.383 747.5,156C 734.418,154.929 721.418,153.429 708.5,151.5C 704.464,152.134 700.464,151.634 696.5,150C 589.093,142.565 484.76,157.231 383.5,194C 366.719,201.495 349.719,208.828 332.5,216C 300.415,232.877 269.748,252.044 240.5,273.5C 240.167,273.167 239.833,272.833 239.5,272.5C 249.814,260.352 260.314,248.352 271,236.5C 342.802,166.677 427.635,120.511 525.5,98C 535.089,96.1085 544.589,93.9418 554,91.5C 556.632,91.2928 558.965,91.6261 561,92.5C 563.802,91.6702 566.635,90.8368 569.5,90C 590.608,87.6413 611.608,85.808 632.5,84.5 Z M 41.5,645.5 C 47.6545,646.802 53.8211,646.802 60,645.5C 63.0049,645.481 65.8382,646.148 68.5,647.5C 60.3864,649.459 52.2198,650.125 44,649.5C 40.812,649.446 39.9786,648.113 41.5,645.5 Z M 99.5,645.5 C 101.048,645.821 101.715,646.821 101.5,648.5C 96.5783,648.203 95.9116,647.203 99.5,645.5 Z M 1176.5,645.5 C 1189.63,646.656 1202.47,646.656 1215,645.5C 1221.54,645.754 1228.04,646.42 1234.5,647.5C 1228.21,648.552 1221.88,649.219 1215.5,649.5C 1202.49,648.192 1189.49,648.192 1176.5,649.5C 1176.5,648.167 1176.5,646.833 1176.5,645.5 Z M 71.5,646.5 C 72.675,646.281 73.675,646.614 74.5,647.5C 72.9483,648.798 71.9483,648.465 71.5,646.5 Z M 77.5,646.5 C 83.1764,646.334 88.8431,646.501 94.5,647C 91.6911,648.122 88.6911,648.622 85.5,648.5C 82.4098,648.478 79.7432,647.812 77.5,646.5 Z M 59.5,670.5 C 67.0871,670.186 74.5871,670.519 82,671.5C 81.8682,685.081 82.0348,698.248 82.5,711C 83.6623,722.413 78.6623,727.413 67.5,726C 65.04,724.542 62.8734,722.709 61,720.5C 60.6042,703.874 60.1042,687.207 59.5,670.5 Z M 1193.5,670.5 C 1201.5,670.5 1209.5,670.5 1217.5,670.5C 1218.52,686.411 1218.36,702.411 1217,718.5C 1213.62,726.204 1207.79,728.704 1199.5,726C 1196.4,722.818 1194.57,718.984 1194,714.5C 1194.74,699.714 1194.57,685.047 1193.5,670.5 Z M 229.5,681.5 C 251.39,679.709 270.723,685.876 287.5,700C 291.362,704.229 294.862,708.729 298,713.5C 384.275,872.941 470.942,1032.27 558,1191.5C 569.701,1218.61 567.034,1244.27 550,1268.5C 530.016,1290.22 505.516,1297.72 476.5,1291C 462.832,1285.69 450.999,1277.53 441,1266.5C 379.185,1154.8 318.518,1042.8 259,930.5C 250.1,915.36 241.767,900.026 234,884.5C 214.681,849.198 195.348,813.865 176,778.5C 165.216,743.087 174.383,714.254 203.5,692C 212.139,687.965 220.806,684.465 229.5,681.5 Z M 1027.5,681.5 C 1067.24,679.613 1093.07,697.613 1105,735.5C 1107.58,749.867 1106.58,763.867 1102,777.5C 1049.09,875.646 996.421,973.646 944,1071.5C 908.587,1136.66 872.921,1201.66 837,1266.5C 814.599,1292.21 787.432,1299.37 755.5,1288C 717.382,1268.77 704.882,1238.6 718,1197.5C 804.662,1037.83 890.995,878.164 977,718.5C 981.688,709.809 987.855,702.309 995.5,696C 1005.89,690.298 1016.56,685.465 1027.5,681.5 Z M 1172.5,740.5 C 1184.71,742.303 1195.71,747.136 1205.5,755C 1244.75,793.388 1250.25,836.221 1222,883.5C 1196.87,928.085 1172.54,973.085 1149,1018.5C 1092.46,1121.91 1036.12,1225.58 980,1329.5C 960.638,1354.6 935.138,1367.6 903.5,1368.5C 910.72,1351.08 919.553,1334.41 930,1318.5C 932.339,1312.39 931.839,1306.55 928.5,1301C 926.634,1300.02 924.634,1299.52 922.5,1299.5C 918.097,1300.72 913.763,1301.89 909.5,1303C 908.266,1297.2 905.266,1292.53 900.5,1289C 898.5,1288.33 896.5,1288.33 894.5,1289C 892.844,1290.83 890.844,1292.16 888.5,1293C 880.652,1305.53 873.986,1318.7 868.5,1332.5C 869.706,1334.52 869.706,1336.52 868.5,1338.5C 863.088,1341.07 859.755,1345.24 858.5,1351C 859.112,1353.06 860.112,1354.89 861.5,1356.5C 853.852,1354.1 847.685,1348.77 843,1340.5C 837.719,1330.51 836.719,1320.18 840,1309.5C 939.84,1124.8 1039.84,940.468 1140,756.5C 1144.47,750.507 1150.3,746.34 1157.5,744C 1162.78,743.505 1167.78,742.338 1172.5,740.5 Z M 100.5,741.5 C 117.232,739.784 130.399,745.784 140,759.5C 239.258,941.962 338.591,1124.96 438,1308.5C 440.547,1315.76 440.88,1323.09 439,1330.5C 435.473,1339.72 430.307,1347.89 423.5,1355C 421.741,1355.8 420.074,1355.63 418.5,1354.5C 419.613,1347.05 416.779,1341.38 410,1337.5C 408.355,1326.22 404.021,1316.22 397,1307.5C 394.429,1300.26 390.263,1294.09 384.5,1289C 378.731,1287.63 374.231,1289.47 371,1294.5C 369.83,1297.5 368.664,1300.5 367.5,1303.5C 361.873,1298.82 355.873,1298.32 349.5,1302C 346.102,1306.8 345.602,1311.97 348,1317.5C 357.359,1334.38 366.859,1351.22 376.5,1368C 354.256,1368.22 334.256,1361.55 316.5,1348C 310.333,1342.5 304.5,1336.67 299,1330.5C 213.448,1173.39 128.448,1016.06 44,858.5C 32.4495,819.754 41.2828,785.921 70.5,757C 74.8883,753.279 79.5549,749.945 84.5,747C 89.8064,744.672 95.1398,742.839 100.5,741.5 Z M 369.5,1307.5 C 377.822,1316.78 384.155,1327.45 388.5,1339.5C 391.742,1340.52 394.575,1342.19 397,1344.5C 397.048,1346.54 396.548,1348.54 395.5,1350.5C 397.618,1355.45 400.951,1359.28 405.5,1362C 403.884,1362.62 402.551,1363.62 401.5,1365C 399.887,1365.09 398.72,1364.26 398,1362.5C 395.935,1356.63 392.935,1351.3 389,1346.5C 388.286,1343.41 387.286,1340.41 386,1337.5C 382.978,1334.14 380.312,1330.47 378,1326.5C 375.709,1319.92 372.876,1313.59 369.5,1307.5 Z M 901.5,1316.5 C 902.613,1317.95 902.78,1319.61 902,1321.5C 893.954,1336.05 886.121,1350.71 878.5,1365.5C 877.019,1364.52 875.685,1363.35 874.5,1362C 877.313,1360.02 879.48,1357.52 881,1354.5C 881.143,1350.38 881.81,1346.38 883,1342.5C 884.584,1341.14 886.418,1340.47 888.5,1340.5C 888.491,1338.69 888.991,1337.02 890,1335.5C 894.388,1329.37 898.222,1323.04 901.5,1316.5 Z"/></g>
<g><path style="opacity:0.024" fill="#fefffe" d="M 321.5,251.5 C 322.833,252.167 322.833,252.167 321.5,251.5 Z"/></g>
<g><path style="opacity:0.729" fill="#fefffe" d="M 1170.5,785.5 C 1177.49,788.157 1180.33,793.157 1179,800.5C 1176.05,808.107 1171.55,814.607 1165.5,820C 1158.63,821.803 1154.13,819.303 1152,812.5C 1151.42,809.743 1151.75,807.077 1153,804.5C 1156.18,799.467 1159.35,794.467 1162.5,789.5C 1164.84,787.321 1167.51,785.987 1170.5,785.5 Z"/></g>
<g><path style="opacity:0.733" fill="#fefffe" d="M 110.5,786.5 C 112.882,787.199 114.882,788.533 116.5,790.5C 120.746,796.397 124.079,802.73 126.5,809.5C 124.767,817.081 120.1,820.581 112.5,820C 109.5,817.667 106.5,815.333 103.5,813C 103.668,808.451 102.168,804.284 99,800.5C 98.6603,792.344 102.494,787.678 110.5,786.5 Z"/></g>
<g><path style="opacity:0.842" fill="#fefefe" d="M 315.5,794.5 C 320.542,794.015 324.376,796.015 327,800.5C 337.955,815.049 347.622,830.383 356,846.5C 407.103,928.704 452.437,1014.04 492,1102.5C 492.28,1106.47 493.114,1110.31 494.5,1114C 494.53,1118.25 492.697,1119.75 489,1118.5C 487.355,1116.86 485.688,1115.19 484,1113.5C 473.582,1097 462.915,1080.66 452,1064.5C 415.571,1002.66 380.904,939.656 348,875.5C 337.72,853.275 327.72,830.941 318,808.5C 316.255,804.004 315.421,799.338 315.5,794.5 Z"/></g>
<g><path style="opacity:0.84" fill="#fefefe" d="M 958.5,794.5 C 960.75,794.951 962.084,796.285 962.5,798.5C 961.466,804.303 959.966,809.97 958,815.5C 911.847,916.146 859.18,1013.15 800,1106.5C 796,1111.17 792,1115.83 788,1120.5C 787.333,1119.17 786.667,1119.17 786,1120.5C 782.664,1117.61 781.664,1113.94 783,1109.5C 814.459,1038.59 849.792,969.254 889,901.5C 908.019,867.455 928.352,834.122 950,801.5C 952.996,799.267 955.829,796.934 958.5,794.5 Z"/></g>
<g><path style="opacity:0.007" fill="#fefffe" d="M 889.5,890.5 C 892.001,890.511 892.168,891.178 890,892.5C 889.536,891.906 889.369,891.239 889.5,890.5 Z"/></g>
<g><path style="opacity:0.004" fill="#fefffe" d="M 861.5,939.5 C 864.001,939.511 864.168,940.178 862,941.5C 861.536,940.906 861.369,940.239 861.5,939.5 Z"/></g>
</svg>
