<svg xmlns="http://www.w3.org/2000/svg" width="490" height="502" style="shape-rendering:geometricPrecision;text-rendering:geometricPrecision;image-rendering:optimizeQuality;fill-rule:evenodd;clip-rule:evenodd">
    <path style="opacity:.004" d="M63.5-.5h1c-.185.67-.519.67-1 0ZM183.5.5c1.333.667 1.333.667 0 0ZM274.5 1.5c1.333.667 1.333.667 0 0Z"/>
    <path style="opacity:.013" fill="#111" d="M268.5 6.5a594.299 594.299 0 0 0-37-1h-6c2.311-1.568 4.978-2.402 8-2.5a125.71 125.71 0 0 1 29 1c2.352.24 4.352 1.073 6 2.5Z"/>
    <path style="opacity:.004" d="M343.5 2.5c1.333.667 1.333.667 0 0ZM72.5 3.5c1.333.667 1.333.667 0 0Z"/>
    <path style="opacity:.655" fill="#696968" d="M225.5 5.5h6c-7.115 1.626-14.448 2.626-22 3a67.384 67.384 0 0 0 12.5-4c1.011.837 2.178 1.17 3.5 1Z"/>
    <path style="opacity:.999" fill="#e0e0df" d="M231.5 5.5c12.347-.05 24.68.283 37 1h1c5.791 1.487 11.791 2.487 18 3a370.373 370.373 0 0 0 26 7c1.43 1.038 3.097 1.704 5 2 3.599 2.428 7.599 4.094 12 5 3.015 2.174 6.349 3.841 10 5 2.349 1.841 5.015 3.174 8 4 .992-.172 1.658.162 2 1 1.159 1.75 2.826 2.75 5 3 .473 1.406 1.473 2.073 3 2 .473 1.406 1.473 2.073 3 2 .473 1.406 1.473 2.073 3 2 1.796 2.4 4.13 4.067 7 5 2.609.943 4.609 2.61 6 5 .762 1.762 2.096 2.762 4 3 1 .333 1.667 1 2 2 2.4 3.403 5.4 6.07 9 8 2.601 4.27 5.934 7.937 10 11 .667 0 1 .333 1 1 1.21 2.887 3.21 5.22 6 7 .58 2.249 1.913 3.915 4 5a27.683 27.683 0 0 1 6 8c-.073 1.527.594 2.527 2 3 1.406.473 2.073 1.473 2 3-.073 1.527.594 2.527 2 3 .333 2.333 1.667 3.667 4 4 1.73.526 3.064 1.526 4 3a25.658 25.658 0 0 0 6 6c3.449 5.235 6.116 10.902 8 17-.098 2.053.569 3.72 2 5 .694 5.415 2.36 10.415 5 15 .695 5.061 2.028 9.727 4 14v1c-.08 3.281.587 6.281 2 9-.169 6.647.831 12.98 3 19a111.911 111.911 0 0 1 1 19v12c.241 2.534-.759 4.2-3 5h-4c.166 7.008 0 14.008-.5 21-.878 2.715-2.378 5.049-4.5 7 .457.798 1.124 1.131 2 1 .58 2.249 1.913 3.915 4 5-.073 1.527.594 2.527 2 3a116.312 116.312 0 0 0 6 10 5.576 5.576 0 0 0-1 3c.14 6.036-.193 12.036-1 18 .237 1.291-.096 2.291-1 3-1.793 1.926-2.793 4.259-3 7 .073 1.527-.594 2.527-2 3-1.508 1.681-2.508 3.681-3 6-.16 1.653-.826 2.986-2 4-1.75 1.159-2.75 2.826-3 5-1.242 4.155-3.242 7.822-6 11-1.508 1.681-2.508 3.681-3 6 .172.992-.162 1.658-1 2-2.088 1.836-3.421 4.169-4 7-2.872 7.179-6.539 13.846-11 20-1.174 1.014-1.84 2.347-2 4-1.907 5.484-4.573 10.484-8 15-2.039 1.411-3.039 3.411-3 6-3.682 6.702-7.349 13.368-11 20-1.75 1.159-2.75 2.826-3 5-.826 2.985-2.159 5.651-4 8-1.406.473-2.073 1.473-2 3-.826 2.985-2.159 5.651-4 8-1.406.473-2.073 1.473-2 3-1.174 1.014-1.84 2.347-2 4-.16 1.653-.826 2.986-2 4-1.75 1.159-2.75 2.826-3 5-.16 1.653-.826 2.986-2 4-2.088 1.836-3.421 4.169-4 7-1.406.473-2.073 1.473-2 3-1 1.667-2.333 3-4 4a6.547 6.547 0 0 0-3 3c-.473 1.406-1.473 2.073-3 2-2.319.492-4.319 1.492-6 3-1.28 1.431-2.947 2.098-5 2-9.143.471-18.143-.196-27-2-4.344-.843-7.677-3.176-10-7-.492-2.319-1.492-4.319-3-6-1.425-3.217-1.758-6.551-1-10v-2c.438.065.772-.101 1-.5-2.381-.738-4.381-.238-6 1.5-10.454 2.696-19.787.696-28-6-1-1.667-2.333-3-4-4-1.762-.762-2.762-2.096-3-4-.16-1.653-.826-2.986-2-4-1.574-1.602-2.241-3.602-2-6a64.9 64.9 0 0 1 2-19v-1c1.174-1.014 1.84-2.347 2-4 .475-2.284 1.475-4.284 3-6 1.75-1.159 2.75-2.826 3-5a1930.148 1930.148 0 0 1 35-65c1.75-1.159 2.75-2.826 3-5a175.367 175.367 0 0 1 12-22c1.174-1.014 1.84-2.347 2-4 .16-1.653.826-2.986 2-4 1.75-1.159 2.75-2.826 3-5 .826-2.985 2.159-5.651 4-8 1.406-.473 2.073-1.473 2-3a256.532 256.532 0 0 1 10-19c1.75-1.159 2.75-2.826 3-5a255.14 255.14 0 0 1 10-19 25.658 25.658 0 0 0 6-6c.843-1.673 2.176-2.84 4-3.5a23.91 23.91 0 0 1 9-2.5 76.198 76.198 0 0 1 20 2 36.077 36.077 0 0 0 7 4c1 .333 1.667 1 2 2 .919 2.589 2.586 4.589 5 6 2.033 3.743 3.7 7.743 5 12 1.44-1.452 3.106-2.452 5-3a116.21 116.21 0 0 1 12-2v-20c-2.695-.181-5.028-1.181-7-3v-1c.417-10.225-.249-20.225-2-30 .295-2.235-.039-4.235-1-6-.973-2.448-1.306-5.115-1-8-.065-2.928-.732-5.595-2-8v-1c-.017-4.034-1.017-7.701-3-11-.719-1.591-1.719-3.091-3-4.5.556-.383.889-.883 1-1.5.085-3.149-.915-5.816-3-8-.838-.342-1.172-1.008-1-2 .085-3.149-.915-5.816-3-8h-1c.172-.992-.162-1.658-1-2v-2c-.16-1.653-.826-2.986-2-4a32.462 32.462 0 0 0-.5-8c-.708-.881-1.542-1.547-2.5-2-.238-1.904-1.238-3.238-3-4-1-.333-1.667-1-2-2-.238-1.904-1.238-3.238-3-4a6.547 6.547 0 0 0-3-3 6.547 6.547 0 0 1-3-3 6.547 6.547 0 0 0-3-3 382.823 382.823 0 0 0-21-15c-.473-1.406-1.473-2.073-3-2a261.627 261.627 0 0 0-41-18c-2.584-1.972-5.584-2.972-9-3h-1c-1.938-1.663-4.272-2.33-7-2-2.719-1.413-5.719-2.08-9-2h-1c-3.345-1.717-7.011-2.384-11-2-5.86-.217-11.527-.883-17-2-15.161-1.161-30.494-1.328-46-.5-6.941.392-13.608 1.559-20 3.5h-2c-6.7.167-13.033 1.5-19 4-2.015 1.424-4.348 2.09-7 2-2.652-.09-4.985.576-7 2-.342.838-1.008 1.172-2 1-4.961.324-9.294 1.99-13 5h-1c-1.951.273-3.451-.393-4.5-2-.319 3.005-1.819 5.005-4.5 6-1.653.16-2.986.826-4 2-2.174.25-3.841 1.25-5 3a53.63 53.63 0 0 1-12 7c-1.527-.073-2.527.594-3 2a46.509 46.509 0 0 1-9 7c-1.904.238-3.238 1.238-4 3-1 1.667-2.333 3-4 4-2.667.667-4.333 2.333-5 5a6.544 6.544 0 0 1-3 3c-1.762.762-2.762 2.096-3 4a21.622 21.622 0 0 1-4 5c-.617.111-1.117.444-1.5 1a24.939 24.939 0 0 0-.5 7c-1.431 1.28-2.098 2.947-2 5 .073 1.527-.594 2.527-2 3-2.085 2.184-3.085 4.851-3 8-.16 1.653-.826 2.986-2 4-.81 2.77-2.477 4.937-5 6.5.906 1.699 1.24 3.533 1 5.5-1.758 3.354-2.758 7.021-3 11a53.76 53.76 0 0 1-2 10c-2.37 6.662-3.37 13.662-3 21 .166 7.674 0 15.341-.5 23-.278.916-.778 1.582-1.5 2-1.868.763-3.535 1.763-5 3v19h6c2.053-.098 3.72.569 5 2 1.93 1.648 3.93 3.315 6 5 .635-3.523 1.635-6.856 3-10-.268-1.599.066-2.932 1-4 2.72-1.719 4.72-4.053 6-7 2.703-1.681 5.37-3.347 8-5 .342-.838 1.008-1.172 2-1a123.89 123.89 0 0 1 19-1c3.042.233 5.708 1.233 8 3 .473 1.406 1.473 2.073 3 2 3.475 1.912 6.308 4.578 8.5 8a221.504 221.504 0 0 1 8.5 18c-.073 1.527.594 2.527 2 3a314.699 314.699 0 0 1 11 21c-.073 1.527.594 2.527 2 3 1.841 2.349 3.174 5.015 4 8 .25 2.174 1.25 3.841 3 5a258.177 258.177 0 0 1 10 19c-.073 1.527.594 2.527 2 3a59.89 59.89 0 0 1 4 8c-.073 1.527.594 2.527 2 3a311.387 311.387 0 0 1 11 21c-.073 1.527.594 2.527 2 3a59.89 59.89 0 0 1 4 8c.25 2.174 1.25 3.841 3 5a322.9 322.9 0 0 1 16 30c-.073 1.527.594 2.527 2 3 3.593 5.525 6.427 11.525 8.5 18 1.653 8.725.153 16.725-4.5 24-1.406.473-2.073 1.473-2 3-2.049 3.05-4.716 5.383-8 7a87.673 87.673 0 0 0-10 4 132.596 132.596 0 0 1-18-1 2.428 2.428 0 0 0-2 .5c1.428 4.058 1.095 7.891-1 11.5a36.077 36.077 0 0 0-4 7c-1.085 2.087-2.751 3.42-5 4-1.653.16-2.986.826-4 2-.342.838-1.008 1.172-2 1-1.291-.237-2.291.096-3 1-1.291-.237-2.291.096-3 1-12.327 2.501-23.327-.166-33-8a6.547 6.547 0 0 0-3-3c-1-.333-1.667-1-2-2a6.547 6.547 0 0 0-3-3c0-.667-.333-1-1-1v-1c-.579-2.831-1.912-5.164-4-7-2.198.091-2.531-.575-1-2-.579-2.831-1.912-5.164-4-7-2.198.091-2.531-.575-1-2-.492-2.319-1.492-4.319-3-6 .073-1.527-.594-2.527-2-3-.492-2.319-1.492-4.319-3-6-.838-.342-1.172-1.008-1-2-.579-2.831-1.912-5.164-4-7-.91-3.492-2.576-6.492-5-9-2.198.091-2.531-.575-1-2-.16-1.653-.826-2.986-2-4 .073-1.527-.594-2.527-2-3 0-.667-.333-1-1-1-.725-2.285-2.058-4.118-4-5.5.671-.986.671-2.153 0-3.5-.579-2.831-1.912-5.164-4-7-2.198.091-2.531-.575-1-2-.579-2.831-1.912-5.164-4-7a2.429 2.429 0 0 1-2-.5c-.299-1.073-.299-2.24 0-3.5-.493-2.319-1.493-4.319-3-6h-1v-1c-.16-1.653-.826-2.986-2-4-.16-1.653-.826-2.986-2-4-.395-3.797-2.062-6.797-5-9-.838-.342-1.172-1.008-1-2-.579-2.831-1.912-5.164-4-7-.826-2.985-2.159-5.651-4-8-1.115-3.387-2.782-6.387-5-9-.972-2.632-2.305-4.965-4-7-2.198.091-2.531-.575-1-2-.91-3.492-2.576-6.492-5-9a2.429 2.429 0 0 1-2-.5c.671-.986.671-2.153 0-3.5.098-2.053-.569-3.72-2-5 .237-1.291-.096-2.291-1-3-1.333-7-1.333-14 0-21 .68-5.023 2.68-9.356 6-13 3.361-1.586 4.694-3.919 4-7h-1c0-.667-.333-1-1-1v-1c-1.732-5.833-2.4-11.833-2-18v-6c-1.599.268-2.932-.066-4-1 .073-1.527-.594-2.527-2-3v-23c1.436-6.447 2.103-13.114 2-20v-1c1.157-2.773 1.824-5.773 2-9v-1c1.424-2.015 2.09-4.348 2-7v-1c1.268-2.405 1.935-5.072 2-8 .084-2.827.75-5.494 2-8 2.085-2.184 3.085-4.851 3-8 .629-2.897 1.629-5.564 3-8 1.713-1.135 2.38-2.802 2-5 .16-1.653.826-2.986 2-4 1.431-1.28 2.098-2.947 2-5a17.345 17.345 0 0 1 3.5-7 279.772 279.772 0 0 0 14.5-13c1.406-.473 2.073-1.473 2-3 2.4-1.796 4.067-4.13 5-7-.073-1.527.594-2.527 2-3 2.414-1.41 4.08-3.41 5-6 2.087-1.085 3.42-2.751 4-5 3.734-2.731 6.734-6.064 9-10 1-1.667 2.333-3 4-4 4.271-2.6 7.937-5.934 11-10a21.622 21.622 0 0 0 5-4c3.354-4.52 7.687-7.854 13-10 2.353-.84 4.353-2.174 6-4 .473-1.406 1.473-2.073 3-2 1.934-.61 3.601-1.61 5-3 5.539-4.468 11.872-7.8 19-10 3.61-.81 6.944-2.144 10-4 1.43-1.038 3.097-1.704 5-2 3.416-.027 6.416-1.027 9-3h1c2.652.09 4.985-.576 7-2 5.594-.732 10.927-2.065 16-4h2c7.552-.374 14.885-1.374 22-3Zm36 8a713.304 713.304 0 0 1 28 5 112.184 112.184 0 0 0 16 5h1c2.588 2.092 5.588 3.425 9 4 2.39 1.52 5.057 2.52 8 3 .473 1.406 1.473 2.073 3 2a233.819 233.819 0 0 1 39 24c1.411 2.414 3.411 4.08 6 5 .333 1 1 1.667 2 2 1.739 2.743 4.073 4.743 7 6a25.647 25.647 0 0 0 6 6c1.257 2.927 3.257 5.26 6 7 .943 2.61 2.61 4.61 5 6 0 2 1 3 3 3-.172.992.162 1.658 1 2-.073 1.527.594 2.527 2 3a35.905 35.905 0 0 0 6 8c.851 2.382 2.184 4.382 4 6 .333 1 1 1.667 2 2 0 2 1 3 3 3 1.085 2.087 2.751 3.42 5 4 1 1.667 2.333 3 4 4 .233 1.562.9 2.895 2 4 .542 3.412 1.875 6.412 4 9 .817 2.979 1.651 5.979 2.5 9 .383.556.883.889 1.5 1-.237 1.291.096 2.291 1 3 .095 2.286.762 4.286 2 6 .428 3.285 1.428 6.285 3 9-.08 3.281.587 6.281 2 9a244.392 244.392 0 0 1 4 22 106.21 106.21 0 0 0 1 20 219.474 219.474 0 0 1-9 2.5c3.424.747 6.757.58 10-.5-5.912 1.956-12.245 2.623-19 2 1.001-1.289.834-2.622-.5-4l-1 1c-.191-2.208-.691-4.208-1.5-6a39.712 39.712 0 0 0-1-11c-.124-4.549-.791-8.882-2-13-.065-2.928-.732-5.595-2-8 .284-1.915-.049-3.581-1-5-.557-4.665-1.89-8.998-4-13v-1c-.48-2.943-1.48-5.61-3-8-.296-1.903-.963-3.57-2-5-.435-2.657-1.435-4.991-3-7-.16-1.653-.826-2.986-2-4-.663-3.321-1.33-6.654-2-10a7.93 7.93 0 0 1 1-3.5c-1.314-.985-2.314-2.152-3-3.5-.222-3.004-1.222-5.671-3-8 1.333-.667 1.333-1.333 0-2a47.813 47.813 0 0 0-10-13c0-.667-.333-1-1-1a55.252 55.252 0 0 1-3-4c0-.667-.333-1-1-1a8.944 8.944 0 0 0-3-4c-.506-1.605-1.173-1.939-2-1l-2-1c1.16-1.703.493-2.37-2-2l-1-2c1.333-.333 1.333-.667 0-1a29.516 29.516 0 0 1-5-3v-1l-2-1c.111-.617.444-1.117 1-1.5-3.581-4.252-7.748-7.752-12.5-10.5-.383.556-.883.89-1.5 1-1.508-4.043-4.175-6.043-8-6-.061-2.092-1.061-3.592-3-4.5a184.776 184.776 0 0 0-16-8.5c-6.093-4.042-12.76-7.042-20-9-13.278-5.844-27.612-9.844-43-12-2.332.672-4.666.84-7 .5l3-1a188.575 188.575 0 0 0-47 0c.916.278 1.582.778 2 1.5a49.393 49.393 0 0 0-11 1c-5.798-.702-11.465.131-17 2.5.556.383.889.883 1 1.5-2.755-1.48-5.422-1.314-8 .5.556.383.889.883 1 1.5h-4l-3 2c-1.637-.718-3.303-.884-5-.5-1.532 1.67-3.532 3.17-6 4.5-2.292-1.346-4.292-1.012-6 1l-3 3c-.996-.086-1.829.248-2.5 1-.705-2.486-1.538-2.486-2.5 0-2.198-.091-2.531.575-1 2-2.567.221-4.901.888-7 2-1.406.473-2.073 1.473-2 3-.992-.172-1.658.162-2 1-2.563-.877-4.23.123-5 3-3.447.115-5.78 1.781-7 5-1.679-.215-2.679.452-3 2a24.187 24.187 0 0 0-9 7c-2.927 1.257-5.261 3.257-7 6-2 .667-3.333 2-4 4-3.639 1.639-6.305 4.305-8 8-3.088 1.42-5.088 3.753-6 7-2.497.63-3.83 2.296-4 5-2 0-3 1-3 3-1.798-.963-3.132-.296-4 2 .124.607.457.94 1 1a16.57 16.57 0 0 0-2.5 4l-1-1c-.47 1.077-.303 2.077.5 3l-2 1a42.407 42.407 0 0 0-4 12c-1.63 4.411-2.63 9.078-3 14-2.784 3.905-4.784 8.238-6 13-2.142 3.3-3.475 6.967-4 11a121.085 121.085 0 0 1-6 13.5c.837 1.011 1.17 2.178 1 3.5v1h-1a51.648 51.648 0 0 0-1 7v1c-1.502 2.913-2.502 6.08-3 9.5.752.671 1.086 1.504 1 2.5v1c-.806 1.497-1.472 3.164-2 5 .124.607.457.94 1 1v4a61.284 61.284 0 0 0-2 5.5c.457.414.79.914 1 1.5a32.304 32.304 0 0 1-10 2.5c2.536.186 4.869.686 7 1.5h-18v-9a231.48 231.48 0 0 0 3-26c1.157-2.773 1.824-5.773 2-9 1.602-3.739 2.602-7.739 3-12 .904-.709 1.237-1.709 1-3 .958-1.802 1.625-3.802 2-6 1.424-2.015 2.09-4.348 2-7 1.174-1.014 1.84-2.347 2-4 1.238-1.714 1.905-3.714 2-6 1.174-1.014 1.84-2.347 2-4 1.793-1.926 2.793-4.259 3-7 .838-.342 1.172-1.008 1-2 1.762-.762 2.762-2.096 3-4 2.174-.25 3.84-1.25 5-3 1.667-1 3-2.333 4-4 1.762-.762 2.762-2.096 3-4 .667 0 1-.333 1-1 1.406-.473 2.073-1.473 2-3a301.462 301.462 0 0 0 3-4c1.406-.473 2.073-1.473 2-3l2-3c1.762-.762 2.762-2.096 3-4 .667 0 1-.333 1-1 1.406-.473 2.073-1.473 2-3a6.541 6.541 0 0 0 3-3c2.087-1.085 3.42-2.751 4-5 7.026-6.694 14.026-13.361 21-20 1.527.073 2.527-.594 3-2 .667 0 1-.333 1-1 1.527.073 2.527-.594 3-2 1-.333 1.667-1 2-2 1.527.073 2.527-.594 3-2 1.73-.526 3.064-1.526 4-3 1.527.073 2.527-.594 3-2 1.934-.61 3.601-1.61 5-3 1.527.073 2.527-.594 3-2 1.934-.61 3.601-1.61 5-3 1.88.27 3.213-.396 4-2 9.338-4.003 18.671-8.003 28-12 2.286-.095 4.286-.762 6-2 3.584-.475 6.917-1.475 10-3 4.912-.398 9.579-1.398 14-3a41.58 41.58 0 0 0 8-1 250.942 250.942 0 0 1 50-1Zm-26 16h11a1300.34 1300.34 0 0 0 25 3c2.217.869 4.55 1.202 7 1 2.338 1.54 5.005 2.206 8 2 2.015 1.424 4.348 2.09 7 2a86.812 86.812 0 0 0 14 5c.709.904 1.709 1.237 3 1 2.588 2.125 5.588 3.458 9 4a160.66 160.66 0 0 0 15 8c.473 1.406 1.473 2.073 3 2a24.771 24.771 0 0 0 8 5c1.085 2.087 2.751 3.42 5 4a46.512 46.512 0 0 0 9 7l3 4h2l11 12c-3.063-1.551-5.729-3.718-8-6.5a242.544 242.544 0 0 0-27-11.5c-.342-.838-1.008-1.172-2-1-.689-1.274-1.523-1.274-2.5 0a6.544 6.544 0 0 0-3-3c-1.707.638-3.54.638-5.5 0-.709-.904-1.709-1.237-3-1-2.097-1.982-4.764-2.982-8-3-2.405-1.268-5.072-1.935-8-2-.709-.904-1.709-1.237-3-1-4.047-1.76-8.38-2.76-13-3-2.107-.968-4.441-1.302-7-1-3.736-1.49-7.736-2.156-12-2h-1c-1.96-1.71-4.127-2.043-6.5-1-2.894-1.28-6.061-1.946-9.5-2-9.655.7-19.322 1.033-29 1-7.818-1.475-15.484-.809-23 2-5.923.24-11.59 1.24-17 3-4.692-.075-9.026.925-13 3-1.915-.285-3.581.049-5 1a5.577 5.577 0 0 1-3-1c-.963.47-.963 1.136 0 2-5.415.694-10.415 2.36-15 5a53.796 53.796 0 0 0-8 2l-7 4c-1.152-1.125-2.152-1.125-3 0-.992-.172-1.658.162-2 1-2.198-.091-2.531.576-1 2a18.437 18.437 0 0 0-6 .5c-.556.383-.889.883-1 1.5-2.828.997-5.495.997-8 0 1.333 0 2-.667 2-2 1.333-.333 1.333-.667 0-1l1-2c1.904-.238 3.238-1.238 4-3 .667 0 1-.333 1-1 1.527.073 2.527-.594 3-2 .667 0 1-.333 1-1 1.527.073 2.527-.594 3-2a40.59 40.59 0 0 0 10-7c2.433.227 4.099-.773 5-3 3.492-.91 6.492-2.576 9-5 3.244-.963 6.244-2.296 9-4 2.053.098 3.72-.569 5-2 .992.172 1.658-.162 2-1 3.285-.428 6.285-1.428 9-3 3.285-.428 6.285-1.428 9-3 4.261-.398 8.261-1.398 12-3h1a891.702 891.702 0 0 1 34-4Zm-124 52c0 1.333-.667 2-2 2v-1l2-1Zm-4 2h2a11.741 11.741 0 0 1-3 5c-1 .333-1.667 1-2 2a310.678 310.678 0 0 0-3 4c-1.562.233-2.895.9-4 2v-2c2.667-2 5-4.333 7-7 1.762-.762 2.762-2.096 3-4Zm268 6h1c.238 1.904 1.238 3.238 3 4l1 2h-2c-.333-1-1-1.667-2-2-.734-1.208-1.067-2.541-1-4Zm-334 147c-2.625.941-2.625 2.107 0 3.5a327.053 327.053 0 0 0 0 11.5 13.017 13.017 0 0 1-4 4.5c.916.278 1.583.778 2 1.5-2.792.048-4.625-1.285-5.5-4-.5-5.657-.666-11.324-.5-17h8Zm403 0c-.51 5.884-.51 11.717 0 17.5-.139 1.301-.805 2.134-2 2.5v1a20.69 20.69 0 0 1-5-1 113.185 113.185 0 0 1-1-20h8Zm-340 5c2.397 1.695 5.063 3.028 8 4 1.333 2 3 3.667 5 5-.111.617-.444 1.117-1 1.5 1.57 1.397 2.904 2.897 4 4.5-.172.992.162 1.658 1 2a8.43 8.43 0 0 0 .5 4c.383-.556.883-.889 1.5-1 .492 2.319 1.492 4.319 3 6-.111.617-.444 1.117-1 1.5 1.952 1.412 3.285 3.245 4 5.5l2 1v1c-.633.38-1.3.713-2 1 1.855 4.391 4.189 8.391 7 12a75.813 75.813 0 0 0 4 11l-2-1a57.535 57.535 0 0 0-10-15c-.194-2.412-1.527-3.412-4-3 .087 3.098-.413 3.432-1.5 1l-.5 1.5c1.128 4.427 3.128 8.26 6 11.5h1v2c.838.342 1.172 1.008 1 2h1c.086.996-.248 1.829-1 2.5 1.801.317 2.134.984 1 2 .55 2.158 1.55 2.658 3 1.5.086.996-.248 1.829-1 2.5.916.278 1.582.778 2 1.5h1c-.425 3.847.908 7.18 4 10h1c.086.996-.248 1.829-1 2.5 1.942 1.382 3.275 3.215 4 5.5-1.333.333-1.333.667 0 1-.172.992.162 1.658 1 2 .063 2.695 1.063 3.695 3 3v2c-.438-.065-.772.101-1 .5.566.995 1.233 1.828 2 2.5 2.4 1.796 4.067 4.13 5 7-1.333.333-1.333.667 0 1a21.614 21.614 0 0 0 4 5v2c-1.047.578-.88 1.244.5 2 .399-.228.565-.562.5-1 .667 0 1 .333 1 1-.073 1.527.594 2.527 2 3 .671 1.347.671 2.514 0 3.5.916.278 1.582.778 2 1.5-1.333.333-1.333.667 0 1a16.635 16.635 0 0 0 5 6c-.172.992.162 1.658 1 2-.111.617-.444 1.117-1 1.5a37.829 37.829 0 0 1 4 3.5v1a2364.284 2364.284 0 0 0 11 16c1.043 2.352 2.376 2.519 4 .5a19.602 19.602 0 0 0-2-3.5 88.562 88.562 0 0 0-7-17c-.16-1.653-.826-2.986-2-4l-9-20 2 1c-.172.992.162 1.658 1 2a2.428 2.428 0 0 0 .5 2c.77-1.098 1.603-1.098 2.5 0v2h-1c.492 2.319 1.492 4.319 3 6 .579 2.831 1.912 5.164 4 7 .16 1.653.826 2.986 2 4-.039 1.256.461 2.256 1.5 3 .77-1.098 1.603-1.098 2.5 0v2c-1.333.667-1.333 1.333 0 2 .25 2.174 1.25 3.841 3 5-.172.992.162 1.658 1 2 .16 1.653.826 2.986 2 4 .473 1.406 1.473 2.073 3 2 .475 2.284 1.475 4.284 3 6-.111.617-.444 1.117-1 1.5a37.829 37.829 0 0 1 4 3.5c.233 1.562.9 2.895 2 4-.111.617-.444 1.117-1 1.5a68.87 68.87 0 0 1 5 5.5c-.172.992.162 1.658 1 2 .492 2.319 1.492 4.319 3 6 .086.996-.248 1.829-1 2.5a2.428 2.428 0 0 0 2 .5c.59 6.63-.41 12.964-3 19-1.406.473-2.073 1.473-2 3-.667 0-1 .333-1 1-2.249.58-3.915 1.913-5 4-.617-.111-1.117-.444-1.5-1-1.236 2.038-3.069 3.205-5.5 3.5a72.367 72.367 0 0 1-12 .5c-1.714-1.238-3.714-1.905-6-2a2464.252 2464.252 0 0 1-7-6c.073-1.527-.594-2.527-2-3a223.138 223.138 0 0 0-12-22c-.16-1.653-.826-2.986-2-4 .073-1.527-.594-2.527-2-3a144.906 144.906 0 0 0-11-20c.271-1.88-.396-3.213-2-4-.826-2.985-2.159-5.651-4-8 .073-1.527-.594-2.527-2-3-.826-2.985-2.159-5.651-4-8 .073-1.527-.594-2.527-2-3a35.158 35.158 0 0 0-5-10c.073-1.527-.594-2.527-2-3-.972-2.937-2.305-5.603-4-8 .073-1.527-.594-2.527-2-3a144.906 144.906 0 0 0-11-20c.271-1.88-.396-3.213-2-4-.972-2.937-2.305-5.603-4-8 .073-1.527-.594-2.527-2-3-.826-2.985-2.159-5.651-4-8 .073-1.527-.594-2.527-2-3-.91-3.492-2.576-6.492-5-9 .039-2.589-.961-4.589-3-6a9712.789 9712.789 0 0 1-7-16 54.938 54.938 0 0 1 1-12 86.654 86.654 0 0 1 8-13c2.319-.492 4.319-1.492 6-3a84.029 84.029 0 0 1 16-1Zm288 2c1.399 1.39 3.066 2.39 5 3a6.547 6.547 0 0 0 3 3c-.039 2.589.961 4.589 3 6 1.877 5.518 2.377 11.185 1.5 17a173.663 173.663 0 0 0-7.5 16c-1.604.787-2.271 2.12-2 4a144.906 144.906 0 0 0-11 20c-1.75 1.159-2.75 2.826-3 5-1.525 1.716-2.525 3.716-3 6-1.75 1.159-2.75 2.826-3 5-4.094 5.851-7.427 12.185-10 19a54.107 54.107 0 0 0-8 15c-4.461 6.154-8.128 12.821-11 20-2.088 1.836-3.421 4.169-4 7-.838.342-1.172 1.008-1 2-2.039 1.411-3.039 3.411-3 6-1.75 1.159-2.75 2.826-3 5-1.604.787-2.271 2.12-2 4-1.406.473-2.073 1.473-2 3a22.581 22.581 0 0 0-4 8c-1.406.473-2.073 1.473-2 3-1.174 1.014-1.84 2.347-2 4a22.581 22.581 0 0 0-4 8c-1.406.473-2.073 1.473-2 3-1.841 2.349-3.174 5.015-4 8-1.406.473-2.073 1.473-2 3-1.406.473-2.073 1.473-2 3-4.042 3.69-8.709 6.357-14 8-3.456-.195-7.122-.195-11 0-1.43-1.037-3.097-1.704-5-2l-2-1c-.473-1.406-1.473-2.073-3-2-6.824-6.975-9.324-15.309-7.5-25 1.846-4.355 3.679-8.688 5.5-13 1.75-1.159 2.75-2.826 3-5 1.174-1.014 1.84-2.347 2-4 2.039-1.411 3.039-3.411 3-6 1.75-1.159 2.75-2.826 3-5 1.604-.787 2.271-2.12 2-4a40.943 40.943 0 0 0 5-7c.31 1.238.81 1.238 1.5 0 .692-.937.525-1.603-.5-2-.172-.992.162-1.658 1-2v-2a55.78 55.78 0 0 1 4-1c1.373-2.308 1.04-2.975-1-2l2-6h1c.801 2.293 1.468 1.96 2-1l2-1a225.348 225.348 0 0 0-10 24c-1.203 1.443-1.703 3.109-1.5 5 2.149 1.34 3.316.673 3.5-2 4.989-5.303 8.989-11.303 12-18 1.75-1.159 2.75-2.826 3-5a53.615 53.615 0 0 0 7-12c1.604-.787 2.271-2.12 2-4 4.428-6.134 8.095-12.8 11-20 2.088-1.836 3.421-4.169 4-7 2.508-3.682 4.508-7.682 6-12 2.039-1.411 3.039-3.411 3-6 1.174-1.014 1.84-2.347 2-4 1.508-1.681 2.508-3.681 3-6 .838-.342 1.172-1.008 1-2 2.294-2.87 3.628-6.203 4-10 .838-.342 1.172-1.008 1-2 .934-1.068 1.268-2.401 1-4-2.473-.412-3.806.588-4 3-3.297 3.236-6.13 6.903-8.5 11a491.607 491.607 0 0 1-15.5 26c.172-.992-.162-1.658-1-2l1-4c1.508-1.681 2.508-3.681 3-6h1c.06.543.393.876 1 1 1.273-.757 1.273-1.423 0-2 1.315-.388 2.315-1.722 3-4 1.333-.667 1.333-1.333 0-2l1-4c1.604-.787 2.271-2.12 2-4h1c.768 3.639 1.434 3.306 2-1 1.638-1.205 1.971-2.538 1-4l2-2c-.838-.342-1.172-1.008-1-2 .838-.342 1.172-1.008 1-2 2.088-1.836 3.421-4.169 4-7 1.174-1.014 1.84-2.347 2-4 1.75-1.159 2.75-2.826 3-5a121.33 121.33 0 0 0 7-13c1.604-.787 2.271-2.12 2-4 2-1.333 3.667-3 5-5 8.334-4.487 17.001-5.154 26-2Zm-346 19a44.87 44.87 0 0 1 10 1c.377 2.324 1.377 2.991 3 2l1 2c-1.333.333-1.333.667 0 1 .79.901 1.79 1.568 3 2l1 2c-.146 3.271 1.188 5.605 4 7-1.531 1.425-1.198 2.091 1 2-.71 2.586.29 4.586 3 6-.073 1.527.594 2.527 2 3-.929 1.822-.262 3.155 2 4-.27 1.88.396 3.213 2 4-.086 2.803 1.247 5.137 4 7-.172.992.162 1.658 1 2-.262 3.794 1.405 6.794 5 9-.11.617-.444 1.117-1 1.5.783 2.118 2.116 3.618 4 4.5-.073 1.527.594 2.527 2 3-.11.617-.444 1.117-1 1.5.783 2.118 2.116 3.618 4 4.5-.172.992.162 1.658 1 2-.598 3.118.735 5.452 4 7-.172.992.162 1.658 1 2 .579 2.831 1.912 5.164 4 7 .671 1.347.671 2.514 0 3.5 1.176 2.952 3.176 5.785 6 8.5-.215 1.679.452 2.679 2 3-.929 1.822-.262 3.155 2 4l1 2c-.584 2.785.416 4.452 3 5-.172.992.162 1.658 1 2-.248 3.823 1.419 6.823 5 9-.111.617-.444 1.117-1 1.5a50.725 50.725 0 0 0 5 6.5v1c-1.333.333-1.333.667 0 1 .943 2.9 2.61 5.233 5 7v1c.667 0 1 .333 1 1-.455 3.431.879 5.764 4 7-.28 3.756 1.387 6.756 5 9-.371 3.263.963 5.929 4 8v1c.667 0 1 .333 1 1-.547 2.212.453 3.879 3 5-.172.992.162 1.658 1 2-.111.617-.444 1.117-1 1.5a68.87 68.87 0 0 1 5 5.5c.16 1.653.826 2.986 2 4 .121 2.605 1.121 4.605 3 6a32.508 32.508 0 0 1 3 7c3.434 7.698 1.434 13.698-6 18 .284-1.915-.049-3.581-1-5l-3-2c-.118-6.111-2.451-11.611-7-16.5-2.201-.825-4.034-.325-5.5 1.5-.135 2.422.365 4.755 1.5 7l-2-1c-.585-2.422-2.085-4.089-4.5-5-.995.566-1.828 1.233-2.5 2-1.606-1.28-2.606-.78-3 1.5.399 1.728 1.066 3.228 2 4.5a6.547 6.547 0 0 0 3 3c-1.125 1.152-1.125 2.152 0 3-.172.992.162 1.658 1 2 .747 2.862 2.414 4.862 5 6-.418.722-1.084 1.222-2 1.5 1.206 1.018.873 1.518-1 1.5a19.048 19.048 0 0 0-6-1c-2.349-1.841-5.015-3.174-8-4l-4-3c-1-1.667-2.333-3-4-4a3890.868 3890.868 0 0 0-9-16c.073-1.527-.594-2.527-2-3a603.293 603.293 0 0 0-23-43c.073-1.527-.594-2.527-2-3a35.16 35.16 0 0 0-5-10c-.25-2.174-1.25-3.841-3-5-.493-2.319-1.493-4.319-3-6 .073-1.527-.594-2.527-2-3-.826-2.985-2.159-5.651-4-8 .073-1.527-.594-2.527-2-3-1.508-4.349-3.508-8.349-6-12 .073-1.527-.594-2.527-2-3a131.884 131.884 0 0 0-9-17c.073-1.527-.594-2.527-2-3a35.16 35.16 0 0 0-5-10c.073-1.527-.594-2.527-2-3-.972-2.937-2.305-5.603-4-8 .073-1.527-.594-2.527-2-3a81.677 81.677 0 0 1-6-16c.143-3.023.143-6.357 0-10 .934-1.068 1.268-2.401 1-4 1.236-2.149 2.236-4.482 3-7 .901-.79 1.568-1.79 2-3 1.762-.762 2.762-2.096 3-4 1.904-.238 3.238-1.238 4-3 .667 0 1-.333 1-1 2.319-.492 4.319-1.492 6-3Zm392 3c2.333 3 5 5.667 8 8-.073 1.527.594 2.527 2 3 .292 3.566 1.626 6.566 4 9v1a512.117 512.117 0 0 0 0 13 66.698 66.698 0 0 0-5 12c-2.424 2.508-4.09 5.508-5 9-.838.342-1.172 1.008-1 2-1.406.473-2.073 1.473-2 3-1.174 1.014-1.84 2.347-2 4-1.174 1.014-1.84 2.347-2 4-1.604.787-2.271 2.12-2 4-1.406.473-2.073 1.473-2 3-.809.969-1.809 1.802-3 2.5l1 1a9.175 9.175 0 0 0-2 4.5c-1.75 1.159-2.75 2.826-3 5-1.174 1.014-1.84 2.347-2 4-2.039 1.411-3.039 3.411-3 6a204.065 204.065 0 0 0-16 29c-2.039 1.411-3.039 3.411-3 6-2.424 2.508-4.09 5.508-5 9-2.424 2.508-4.09 5.508-5 9-.838.342-1.172 1.008-1 2-1.406.473-2.073 1.473-2 3-1.174 1.014-1.84 2.347-2 4a241.8 241.8 0 0 0-14 26c-2.424 2.508-4.09 5.508-5 9-1.174 1.014-1.84 2.347-2 4-1.604.787-2.271 2.12-2 4-5.824 8.071-13.49 13.404-23 16-2.235.295-4.235-.039-6-1 1.174-1.014 1.84-2.347 2-4 1.75-1.159 2.75-2.826 3-5 3.205-3.743 4.705-8.076 4.5-13-1.726-1.076-3.559-1.243-5.5-.5a100.813 100.813 0 0 0-5 7.5v-3c.838-.342 1.172-1.008 1-2 3.017-3.289 2.35-5.622-2-7-1.538-.047-2.538.62-3 2-2.758 3.178-4.758 6.845-6 11a20.514 20.514 0 0 1-3 6c-.934 1.068-1.268 2.401-1 4-.702.616-1.702.616-3 0a2057.83 2057.83 0 0 0-5-8c.641-.982 1.307-1.982 2-3l-2-2a6.846 6.846 0 0 0 1-4c3.76-5.184 6.76-10.85 9-17 2.424-2.508 4.09-5.508 5-9 2.039-1.411 3.039-3.411 3-6 2.424-2.508 4.09-5.508 5-9 1.406-.473 2.073-1.473 2-3 1.841-2.349 3.174-5.015 4-8 2.088-1.836 3.421-4.169 4-7 1.174-1.014 1.84-2.347 2-4 1.604-.787 2.271-2.12 2-4 2.823-3.636 5.156-7.636 7-12 1.508-1.681 2.508-3.681 3-6 .838-.342 1.172-1.008 1-2 2.039-1.411 3.039-3.411 3-6 4.743-6.476 8.743-13.476 12-21 1.508-1.681 2.508-3.681 3-6 .838-.342 1.172-1.008 1-2 2.088-1.836 3.421-4.169 4-7 1.174-1.014 1.84-2.347 2-4 1.604-.787 2.271-2.12 2-4 2.823-3.636 5.156-7.636 7-12 1.508-1.681 2.508-3.681 3-6 .838-.342 1.172-1.008 1-2 2.088-1.836 3.421-4.169 4-7 1.174-1.014 1.84-2.347 2-4 1.604-.787 2.271-2.12 2-4 1.406-.473 2.073-1.473 2-3 1.841-2.349 3.174-5.015 4-8 1.75-1.159 2.75-2.826 3-5 1.174-1.014 1.84-2.347 2-4 1.406-.473 2.073-1.473 2-3 6.446-5.846 13.446-6.513 21-2Zm-298 35c1.39 1.399 2.39 3.066 3 5l-2-1-1-2v-2Zm4 7c2.088 1.836 3.421 4.169 4 7l-2-1-2-6Zm6 10c1.604.787 2.271 2.12 2 4l-2-1v-3Zm175 2c-.172.992.162 1.658 1 2a55.848 55.848 0 0 1-8 15c.172-.992-.162-1.658-1-2a39.576 39.576 0 0 1 4-10c1.604-.787 2.271-2.12 2-4l2-1Zm-173 2c1.406.473 2.073 1.473 2 3l-2-1v-2Zm2 3c1 1.333 2 1.333 3 0v2c-1.333.333-1.333.667 0 1-.172.992.162 1.658 1 2-.172.992.162 1.658 1 2-.172.992.162 1.658 1 2-.172.992.162 1.658 1 2l2 2c-.838.342-1.172 1.008-1 2l-7-10a20.69 20.69 0 0 0-1-5Zm163 10v2c-.667 0-1 .333-1 1h-1c-.073-1.527.594-2.527 2-3Zm0 2h1c.073 1.527-.594 2.527-2 3v-2c.667 0 1-.333 1-1Zm-3 1h1c-.172.992.162 1.658 1 2a255.14 255.14 0 0 1-10 19v-2l-2 1v-2c1.406-.473 2.073-1.473 2-3 1.841-2.349 3.174-5.015 4-8 2.088-1.836 3.421-4.169 4-7Zm-152 2 2 1c-.172.992.162 1.658 1 2-.172.992.162 1.658 1 2-.172.992.162 1.658 1 2l1 4c-2.758-3.178-4.758-6.845-6-11Zm142 18c-.091 2.198.575 2.531 2 1-.826 2.985-2.159 5.651-4 8 .237-1.291-.096-2.291-1-3-.172-.992.162-1.658 1-2 .16-1.653.826-2.986 2-4Zm-128 6c.342-.838 1.008-1.172 2-1v2l-2-1Zm125 0-1 4h-1v-3l2-1Zm-155 105c1.406.473 2.073 1.473 2 3-1.406-.473-2.073-1.473-2-3Zm186 0c.073 1.527-.594 2.527-2 3v-2l2-1Zm-184 3a12.066 12.066 0 0 0 4 3c-.076 1.804.257 3.804 1 6l-2-1-3-8Zm181 2c-.16 1.653-.826 2.986-2 4v-3l2-1Zm-2 4c.073 1.527-.594 2.527-2 3-.073-1.527.594-2.527 2-3Zm-174 3c1.495.489 2.829 1.155 4 2-1.464.905-2.798.905-4 0v-2Zm171 0h1c-.294 2.981-1.628 3.648-4 2l3-2Z"/>
    <path style="opacity:.012" fill="#242423" d="M287.5 9.5c-6.209-.513-12.209-1.513-18-3 1.752.252 3.752-.082 6-1 4.162 2.333 8.495 3.167 13 2.5-.556.383-.889.883-1 1.5Z"/>
    <path style="opacity:.004" d="M420.5 7.5c1.333.667 1.333.667 0 0ZM340.5 8.5c1.333.667 1.333.667 0 0Z"/>
    <path style="opacity:.373" fill="#434342" d="M207.5 8.5c-5.073 1.935-10.406 3.268-16 4a91.999 91.999 0 0 0 12-5 6.846 6.846 0 0 0 4 1Z"/>
    <path style="opacity:.212" fill="#373737" d="M287.5 9.5a53.013 53.013 0 0 1 14 3 3.646 3.646 0 0 0 1.5-1c3.324 2.193 6.824 3.86 10.5 5a370.373 370.373 0 0 1-26-7Z"/>
    <path style="opacity:.318" fill="#4c4c4a" d="M267.5 13.5a250.942 250.942 0 0 0-50 1c3.368-1.559 7.035-2.392 11-2.5l15.5-.5c8.056-.162 15.889.505 23.5 2Z"/>
    <path style="opacity:.808" fill="#656563" d="M191.5 12.5c-2.015 1.424-4.348 2.09-7 2a2.429 2.429 0 0 1 .5-2c2.027.486 4.193.486 6.5 0Z"/>
    <path style="opacity:.541" fill="#595959" d="M183.5 14.5c-2.584 1.973-5.584 2.973-9 3 2.715-1.572 5.715-2.572 9-3Z"/>
    <path style="opacity:.243" fill="#454545" d="M209.5 15.5c-4.421 1.602-9.088 2.602-14 3 4.333-2.002 9-3.002 14-3Z"/>
    <path style="opacity:.007" fill="#101010" d="M318.5 18.5c-1.903-.296-3.57-.962-5-2 2.409-1.298 4.075-.631 5 2Z"/>
    <path style="opacity:.867" fill="#5e5e5d" d="M295.5 18.5c5.791.488 11.124 2.154 16 5a112.184 112.184 0 0 1-16-5Z"/>
    <path style="opacity:.006" fill="#242423" d="M318.5 18.5c2.327.165 4.493.831 6.5 2l1-1c2.118.783 3.618 2.116 4.5 4-4.401-.906-8.401-2.572-12-5Z"/>
    <path style="opacity:.435" fill="#444" d="M169.5 19.5c-3.056 1.856-6.39 3.19-10 4-.107-1.879.393-2.212 1.5-1 2.425-1.929 5.258-2.929 8.5-3Z"/>
    <path style="opacity:.11" fill="#383836" d="M185.5 21.5c-1.714 1.238-3.714 1.905-6 2 1.602-1.574 3.602-2.24 6-2Z"/>
    <path style="opacity:.008" fill="#141414" d="M316.5 34.5c7.24 1.958 13.907 4.958 20 9a184.776 184.776 0 0 1 16 8.5c1.939.908 2.939 2.408 3 4.5-29.449-18.985-61.782-30.152-97-33.5-7.659-.5-15.326-.666-23-.5-.333-1.333-.667-1.333-1 0a41.58 41.58 0 0 1-8 1h-2c-.418-.722-1.084-1.222-2-1.5a188.575 188.575 0 0 1 47 0l-3 1c2.334.34 4.668.172 7-.5 15.388 2.156 29.722 6.156 43 12Z"/>
    <path style="opacity:.006" fill="#060606" d="M213.5 24.5v1c-2.45-.202-4.783.131-7 1-.235-.597-.735-.93-1.5-1-1.077.93-2.244 1.596-3.5 2-.06-.543-.393-.876-1-1-.765 1.112-1.765 1.779-3 2-.111-.617-.444-1.117-1-1.5 5.535-2.369 11.202-3.202 17-2.5Z"/>
    <path style="opacity:.953" fill="#848483" d="M312.5 23.5c3.665.002 6.665 1.335 9 4-3.412-.575-6.412-1.908-9-4Z"/>
    <path style="opacity:.565" fill="#5e5e5c" d="M224.5 23.5h2c-4.139 1.063-8.472 1.73-13 2v-1a49.393 49.393 0 0 1 11-1Z"/>
    <path style="opacity:.133" fill="#2f2f2f" d="M330.5 23.5c4.174.159 7.508 1.825 10 5-3.651-1.159-6.985-2.826-10-5Z"/>
    <path style="opacity:.004" d="M431.5 26.5c1.333.667 1.333.667 0 0Z"/>
    <path style="opacity:.007" fill="#191919" d="M197.5 28.5c-2.099 1.112-4.433 1.779-7 2-.111-.617-.444-1.117-1-1.5 2.578-1.814 5.245-1.98 8-.5Z"/>
    <path style="opacity:.137" fill="#2d2d2b" d="M340.5 28.5c3.352.03 6.018 1.363 8 4-2.985-.826-5.651-2.159-8-4Z"/>
    <path style="opacity:.086" fill="#323231" d="M241.5 29.5a891.702 891.702 0 0 0-34 4c2.377-1.387 5.043-2.22 8-2.5a194.389 194.389 0 0 1 26-1.5Z"/>
    <path style="opacity:.525" fill="#4e4e4e" d="M252.5 29.5c5.011-.166 10.011 0 15 .5 3.633.149 6.966.982 10 2.5a1300.34 1300.34 0 0 1-25-3Z"/>
    <path style="opacity:.007" fill="#181818" d="M183.5 32.5c-3.301 2.084-6.968 3.418-11 4 2.468-1.33 4.468-2.83 6-4.5 1.697-.384 3.363-.218 5 .5Z"/>
    <path style="opacity:.631" fill="#626262" d="M186.5 30.5h4c-2.015 1.424-4.348 2.09-7 2l3-2Z"/>
    <path style="opacity:.145" fill="#333330" d="M329.5 30.5c1.527-.073 2.527.594 3 2-1.527.073-2.527-.594-3-2Z"/>
    <path style="opacity:.918" fill="#6c6c6c" d="M206.5 33.5c-3.739 1.602-7.739 2.602-12 3 3.431-2.614 7.431-3.614 12-3Z"/>
    <path style="opacity:.004" d="M98.5 34.5c1.333.667 1.333.667 0 0Z"/>
    <path style="opacity:.204" fill="#303030" d="M140.5 33.5c-1.399 1.39-3.066 2.39-5 3 .901-2.227 2.567-3.227 5-3Z"/>
    <path style="opacity:.478" fill="#5b5b5b" d="M284.5 33.5c2.995-.206 5.662.46 8 2-2.995.206-5.662-.46-8-2Z"/>
    <path style="opacity:.137" fill="#363633" d="M350.5 33.5c2.174.25 3.841 1.25 5 3-2.174-.25-3.841-1.25-5-3Z"/>
    <path style="opacity:.007" fill="#0f0f0f" d="M172.5 36.5c-1.014 1.174-2.347 1.84-4 2-.342-.838-1.008-1.172-2-1 1.708-2.012 3.708-2.346 6-1Z"/>
    <path style="opacity:.015" fill="#1c1c1c" d="M358.5 38.5c-1.527.073-2.527-.594-3-2 1.868-1.174 2.868-.507 3 2Z"/>
    <path style="opacity:.106" fill="#323232" d="M151.5 35.5c-.787 1.604-2.12 2.27-4 2 1.014-1.174 2.347-1.84 4-2Z"/>
    <path style="opacity:.333" fill="#474747" d="M292.5 35.5c2.652-.09 4.985.576 7 2-2.652.09-4.985-.576-7-2Z"/>
    <path style="opacity:.925" fill="#5c5c5c" d="M299.5 37.5c1.699-.16 3.366.007 5 .5 3.359 1.047 6.359 2.547 9 4.5a86.812 86.812 0 0 1-14-5Z"/>
    <path style="opacity:.047" fill="#282827" d="M194.5 36.5c-2.715 1.572-5.715 2.572-9 3 2.584-1.972 5.584-2.972 9-3Z"/>
    <path style="opacity:.184" fill="#464645" d="M132.5 38.5c-1.647 1.826-3.647 3.16-6 4 1.302-2.322 3.302-3.655 6-4Z"/>
    <path style="opacity:.114" fill="#343434" d="M358.5 38.5c1.527-.073 2.527.594 3 2-1.527.073-2.527-.594-3-2Z"/>
    <path style="opacity:.02" fill="#2b2b2a" d="M361.5 40.5c1.527-.073 2.527.594 3 2-1.527.073-2.527-.594-3-2Z"/>
    <path style="opacity:.012" fill="#232321" d="M142.5 40.5c-.473 1.406-1.473 2.073-3 2 .473-1.406 1.473-2.073 3-2Z"/>
    <path style="opacity:.012" fill="#151515" d="M158.5 41.5c0 .667.333 1 1 1-.342.838-1.008 1.172-2 1-1.531-1.425-1.198-2.091 1-2Z"/>
    <path style="opacity:.769" fill="#585858" d="M163.5 40.5c-.787 1.604-2.12 2.27-4 2-.667 0-1-.333-1-1 .962-2.486 1.795-2.486 2.5 0 .671-.752 1.504-1.086 2.5-1Z"/>
    <path style="opacity:.173" fill="#444440" d="M185.5 39.5c-2.715 1.572-5.715 2.572-9 3 2.584-1.972 5.584-2.972 9-3Z"/>
    <path style="opacity:.157" fill="#353535" d="M174.5 43.5c-1.28 1.431-2.947 2.098-5 2 1.28-1.431 2.947-2.098 5-2Z"/>
    <path style="opacity:.859" fill="#626262" d="M316.5 43.5c3.665.002 6.665 1.335 9 4-3.412-.542-6.412-1.875-9-4Z"/>
    <path style="opacity:.008" fill="#151515" d="M157.5 43.5c-1.75 1.37-3.75 2.37-6 3 0-.667-.333-1-1-1 2.099-1.112 4.433-1.779 7-2Z"/>
    <path style="opacity:.114" fill="#303030" d="M364.5 42.5c2.87.933 5.204 2.6 7 5-2.87-.933-5.204-2.6-7-5Z"/>
    <path style="opacity:.005" fill="#0e0e0e" d="M150.5 45.5c.667 0 1 .333 1 1-.79.901-1.79 1.568-3 2-.073-1.527.594-2.527 2-3Z"/>
    <path style="opacity:.02" fill="#262626" d="M134.5 45.5c-.473 1.406-1.473 2.073-3 2 .473-1.406 1.473-2.073 3-2Z"/>
    <path style="opacity:.009" fill="#141414" d="M146.5 49.5c-1.465 1.237-3.132 2.237-5 3 .77-2.877 2.437-3.877 5-3Z"/>
    <path style="opacity:.024" fill="#252525" d="M127.5 50.5c-.473 1.406-1.473 2.073-3 2 .473-1.406 1.473-2.073 3-2Z"/>
    <path style="opacity:.978" fill="#737372" d="M160.5 49.5c-2.508 2.424-5.508 4.09-9 5 2.297-2.688 5.297-4.354 9-5Z"/>
    <path style="opacity:.007" fill="#0d0d0d" d="M233.5 52.5c-.992-.172-1.658.162-2 1a111.86 111.86 0 0 0-19 1h-2c7.516-2.809 15.182-3.475 23-2Z"/>
    <path style="opacity:.009" fill="#2b2b2b" d="M278.5 54.5a1040.705 1040.705 0 0 0-47-1c.342-.838 1.008-1.172 2-1 9.678.033 19.345-.3 29-1 3.439.054 6.606.72 9.5 2 2.373-1.043 4.54-.71 6.5 1Z"/>
    <path style="opacity:.118" fill="#343434" d="M113.5 52.5a21.622 21.622 0 0 1-5 4c.629-2.497 2.296-3.83 5-4Z"/>
    <path style="opacity:.008" fill="#2c2c2a" d="M141.5 52.5a26.162 26.162 0 0 1-7 5c1.22-3.219 3.553-4.885 7-5Z"/>
    <path style="opacity:.047" fill="#2d2d2b" d="M377.5 52.5c1.904.238 3.238 1.238 4 3-1.904-.238-3.238-1.238-4-3Z"/>
    <path style="opacity:.161" fill="#373736" d="M279.5 54.5c4.264-.156 8.264.51 12 2-4.233-.039-8.233-.705-12-2Z"/>
    <path style="opacity:.008" fill="#1a1a1a" d="M122.5 54.5c-.473 1.406-1.473 2.073-3 2 .473-1.406 1.473-2.073 3-2Z"/>
    <path style="opacity:.047" fill="#2b2b2a" d="M151.5 54.5c-.901 2.227-2.567 3.227-5 3 1.399-1.39 3.066-2.39 5-3Z"/>
    <path style="opacity:.776" fill="#868685" d="M210.5 54.5h2c-6.029 2.134-12.362 3.134-19 3 5.41-1.76 11.077-2.76 17-3Z"/>
    <path style="opacity:.008" fill="#191917" d="M363.5 62.5a27.68 27.68 0 0 1-8-6c3.825-.043 6.492 1.957 8 6Z"/>
    <path style="opacity:.118" fill="#2a2a2a" d="M340.5 55.5c1.527-.073 2.527.594 3 2-1.527.073-2.527-.594-3-2Z"/>
    <path style="opacity:.729" fill="#545454" d="M371.5 56.5c2.589.92 4.589 2.586 6 5-2.589-.92-4.589-2.586-6-5Z"/>
    <path style="opacity:.035" fill="#242424" d="M134.5 57.5c-.79.901-1.79 1.568-3 2 .321-1.548 1.321-2.215 3-2Z"/>
    <path style="opacity:.045" fill="#2f2f2d" d="M298.5 57.5c4.62.24 8.953 1.24 13 3-4.62-.24-8.953-1.24-13-3Z"/>
    <path style="opacity:.012" fill="#2f2f2f" d="M383.5 57.5c3.6 1.93 6.6 4.597 9 8-3.6-1.93-6.6-4.597-9-8Z"/>
    <path style="opacity:.016" fill="#212121" d="M118.5 57.5c-.473 1.406-1.473 2.073-3 2 .473-1.406 1.473-2.073 3-2Z"/>
    <path style="opacity:.569" fill="#6d6d6d" d="M193.5 57.5c-.418.722-1.084 1.222-2 1.5-3.67.548-7.337 1.048-11 1.5 3.974-2.075 8.308-3.075 13-3Z"/>
    <path style="opacity:.071" fill="#2f2f2d" d="M267.5 60.5a436.92 436.92 0 0 0-66 3c6.392-1.941 13.059-3.108 20-3.5 15.506-.828 30.839-.661 46 .5Z"/>
    <path style="opacity:.004" fill="#141414" d="M175.5 61.5c-.709.904-1.709 1.237-3 1-.963-.864-.963-1.53 0-2 .917.627 1.917.96 3 1Z"/>
    <path style="opacity:.01" fill="#282826" d="M314.5 61.5c2.928.065 5.595.732 8 2-2.995.206-5.662-.46-8-2Z"/>
    <path style="opacity:.009" fill="#131312" d="M376.5 73.5a103.05 103.05 0 0 1-13-11c.617-.11 1.117-.444 1.5-1 4.752 2.748 8.919 6.248 12.5 10.5-.556.383-.889.883-1 1.5Z"/>
    <path style="opacity:.741" fill="#5a5a5a" d="M284.5 62.5c3.989-.384 7.655.283 11 2-3.86-.308-7.526-.975-11-2Z"/>
    <path style="opacity:.702" fill="#747370" d="M108.5 56.5c-3.063 4.066-6.729 7.4-11 10 3.063-4.066 6.729-7.4 11-10Z"/>
    <path style="opacity:.604" fill="#4a4a49" d="M379.5 63.5c2.927 1.257 5.261 3.257 7 6-2.927-1.257-5.261-3.257-7-6Z"/>
    <path style="opacity:.008" fill="#303030" d="M322.5 63.5c3.236.018 5.903 1.018 8 3-3.136-.103-5.802-1.103-8-3Z"/>
    <path style="opacity:.035" fill="#2f2f2e" d="M136.5 64.5c-.473 1.406-1.473 2.073-3 2 .473-1.406 1.473-2.073 3-2Z"/>
    <path style="opacity:.18" fill="#474747" d="M199.5 63.5c-6.114 1.824-12.447 3.157-19 4 5.967-2.5 12.3-3.833 19-4Z"/>
    <path style="opacity:.22" fill="#414140" d="M296.5 64.5c3.281-.08 6.281.587 9 2-3.281.08-6.281-.587-9-2Z"/>
    <path style="opacity:.122" fill="#3c3c39" d="M351.5 62.5c2.249.58 3.915 1.913 5 4-2.249-.58-3.915-1.913-5-4Z"/>
    <path style="opacity:.906" fill="#757474" d="M172.5 62.5c-4.646 2.477-9.646 4.144-15 5 4.585-2.64 9.585-4.306 15-5Z"/>
    <path style="opacity:.647" fill="#505050" d="M305.5 66.5c2.728-.33 5.062.337 7 2-2.567-.222-4.901-.888-7-2Z"/>
    <path style="opacity:.612" fill="#4a4a48" d="M392.5 65.5c4.066 3.063 7.399 6.73 10 11-4.066-3.063-7.399-6.73-10-11Z"/>
    <path style="opacity:.006" fill="#262625" d="M333.5 67.5c1.96.638 3.793.638 5.5 0a6.544 6.544 0 0 1 3 3c.977-1.274 1.811-1.274 2.5 0-.667 0-1 .333-1 1a57.527 57.527 0 0 1-10-4Z"/>
    <path style="opacity:.02" fill="#212121" d="M132.5 67.5c-.473 1.406-1.473 2.073-3 2 .473-1.406 1.473-2.073 3-2Z"/>
    <path style="opacity:.565" fill="#656564" d="M157.5 67.5a51.695 51.695 0 0 1-15 6l7-4a53.796 53.796 0 0 1 8-2Z"/>
    <path style="opacity:.627" fill="#555" d="M313.5 68.5c3.416.028 6.416 1.028 9 3-3.285-.428-6.285-1.428-9-3Z"/>
    <path style="opacity:.545" fill="#626262" d="M122.5 66.5c-1.739 2.743-4.073 4.743-7 6 1.739-2.743 4.073-4.743 7-6Z"/>
    <path style="opacity:.059" fill="#383837" d="M173.5 69.5c-2.015 1.424-4.348 2.09-7 2 2.015-1.424 4.348-2.09 7-2Z"/>
    <path style="opacity:.007" fill="#151515" d="M344.5 70.5c.992-.172 1.658.162 2 1-.667 0-1 .333-1 1-.992.172-1.658-.162-2-1 .667 0 1-.333 1-1Z"/>
    <path style="opacity:.012" fill="#2c2b29" d="M128.5 70.5c-.762 1.762-2.096 2.762-4 3 .762-1.762 2.096-2.762 4-3Z"/>
    <path style="opacity:.009" fill="#131313" d="M346.5 71.5a242.544 242.544 0 0 1 27 11.5c2.271 2.782 4.937 4.949 8 6.5-.067 1.459.266 2.792 1 4-1.527.073-2.527-.594-3-2a251.34 251.34 0 0 0-34-19c.667 0 1-.333 1-1Z"/>
    <path style="opacity:.647" fill="#565656" d="M365.5 73.5c2.249.58 3.915 1.913 5 4h-2l-3-4Z"/>
    <path style="opacity:.682" fill="#515151" d="M142.5 73.5c-1.411 2.039-3.411 3.039-6 3-1.531-1.424-1.198-2.091 1-2 .342-.838 1.008-1.172 2-1 .848-1.125 1.848-1.125 3 0Z"/>
    <path style="opacity:.227" fill="#3a3a39" d="M164.5 72.5a114.049 114.049 0 0 1-13 5c3.706-3.01 8.039-4.676 13-5Z"/>
    <path style="opacity:.584" fill="#60605e" d="M93.5 70.5c-2.266 3.936-5.266 7.269-9 10 2.266-3.936 5.266-7.269 9-10Z"/>
    <path style="opacity:.997" fill="#858582" d="M150.5 77.5c-2.588 2.125-5.588 3.458-9 4 2.681-.995 4.181-2.995 4.5-6 1.049 1.607 2.549 2.273 4.5 2Z"/>
    <path style="opacity:.004" d="M122.5 76.5h1c0 1.333-.667 2-2 2v-1c.667 0 1-.333 1-1Z"/>
    <path style="opacity:.004" fill="#151513" d="M136.5 76.5c-1.171.845-2.505 1.511-4 2 .065-.438-.101-.772-.5-1-.278.916-.778 1.582-1.5 2 0-.667-.333-1-1-1 .111-.617.444-1.117 1-1.5a18.437 18.437 0 0 1 6-.5Z"/>
    <path style="opacity:.004" fill="#3d3d3c" d="M392.5 75.5c2.743 1.74 4.743 4.073 6 7-2.743-1.74-4.743-4.073-6-7Z"/>
    <path style="opacity:.004" d="M6.5 77.5c1.333.667 1.333.667 0 0Z"/>
    <path style="opacity:.004" fill="#323232" d="M378.5 75.5a29.516 29.516 0 0 0 5 3c-.667 0-1 .333-1 1-2.273-.457-3.606-1.79-4-4Z"/>
    <path style="opacity:.007" fill="#0a0a0a" d="M120.5 78.5h1c2.505.997 5.172.997 8 0-1.106 2.577-3.106 4.244-6 5 .065-.438-.101-.772-.5-1-.792 2.144-2.292 3.477-4.5 4-1.399 1.39-3.066 2.39-5 3 0-.667-.333-1-1-1a11.741 11.741 0 0 0 3-5c1.333 0 2-.667 2-2 .667 0 1-.333 1-1 .667 0 1-.333 1-1 .667 0 1-.333 1-1Z"/>
    <path style="opacity:.043" fill="#2d2d2d" d="M118.5 79.5v1c-.667 0-1 .333-1 1l-2 1c0-2 1-3 3-3Z"/>
    <path style="opacity:.639" fill="#5c5c5c" d="M403.5 77.5c2.69 1.694 4.69 4.027 6 7-2.79-1.78-4.79-4.113-6-7Z"/>
    <path style="opacity:.341" fill="#323232" d="M111.5 76.5c-2.333 3-5 5.667-8 8 1.695-3.695 4.361-6.361 8-8Z"/>
    <path style="opacity:.004" fill="#151515" d="M384.5 81.5c2.493-.37 3.16.297 2 2-1-.333-1.667-1-2-2Z"/>
    <path style="opacity:.035" fill="#343433" d="M94.5 79.5c-.58 2.249-1.913 3.915-4 5 .58-2.249 1.913-3.915 4-5Z"/>
    <path style="opacity:.133" fill="#373737" d="M141.5 81.5c-.787 1.604-2.12 2.27-4 2 1.014-1.174 2.347-1.84 4-2Z"/>
    <path style="opacity:.306" fill="#5a5a58" d="M84.5 80.5c-.58 2.249-1.913 3.915-4 5 .58-2.249 1.913-3.915 4-5Z"/>
    <path style="opacity:.137" fill="#2f2f2f" d="M137.5 83.5c-1.159 1.75-2.826 2.75-5 3 1.159-1.75 2.826-2.75 5-3Z"/>
    <path style="opacity:.004" d="M304.5 84.5c1.333.667 1.333.667 0 0Z"/>
    <path style="opacity:.294" fill="#474747" d="M398.5 82.5c2.36 1.365 4.027 3.365 5 6-2.39-1.39-4.057-3.39-5-6Z"/>
    <path style="opacity:.035" fill="#323232" d="M113.5 83.5c-.238 1.904-1.238 3.238-3 4 .238-1.904 1.238-3.238 3-4Z"/>
    <path style="opacity:.011" fill="#292929" d="m386.5 83.5 2 1c.506 1.605 1.173 1.939 2 1a8.944 8.944 0 0 1 3 4h-1c-.333-1.333-.667-1.333-1 0-2.414-1.41-4.081-3.41-5-6Z"/>
    <path style="opacity:.431" fill="#444" d="M409.5 84.5c2.087 1.085 3.42 2.751 4 5-2.087-1.085-3.42-2.751-4-5Z"/>
    <path style="opacity:.027" fill="#3a3a39" d="M87.5 87.5c.073 1.527-.594 2.527-2 3-.073-1.527.594-2.527 2-3Z"/>
    <path style="opacity:.529" fill="#555" d="M103.5 84.5c-1.603 2.608-3.603 4.941-6 7 .912-3.247 2.912-5.58 6-7Z"/>
    <path style="opacity:.008" fill="#242323" d="M403.5 88.5a6.544 6.544 0 0 1 3 3c-2 0-3-1-3-3Z"/>
    <path style="opacity:.137" fill="#4a4a47" d="M80.5 85.5c-.92 2.59-2.586 4.59-5 6 .92-2.59 2.586-4.59 5-6Z"/>
    <path style="opacity:.145" fill="#303030" d="M363.5 89.5c1.527-.073 2.527.594 3 2-1.527.073-2.527-.594-3-2Z"/>
    <path style="opacity:.004" fill="#282828" d="M382.5 89.5c1.762.762 2.762 2.096 3 4-1.762-.762-2.762-2.096-3-4Z"/>
    <path style="opacity:.51" fill="#555" d="M110.5 90.5c0 .667.333 1 1 1-.762 1.762-2.096 2.762-4 3a310.678 310.678 0 0 1 3-4Z"/>
    <path style="opacity:.027" fill="#2d2c21" d="M84.5 91.5c-.238 1.904-1.238 3.238-3 4 .238-1.904 1.238-3.238 3-4Z"/>
    <path style="opacity:.098" fill="#363636" d="M97.5 91.5a21.628 21.628 0 0 1-4 5c.17-2.704 1.503-4.37 4-5Z"/>
    <path style="opacity:.031" fill="#242424" d="M394.5 90.5a55.252 55.252 0 0 0 3 4c-.667 0-1 .333-1 1-1.474-.936-2.474-2.27-3-4 .667 0 1-.333 1-1Z"/>
    <path style="opacity:.035" fill="#313131" d="M120.5 93.5c-.473 1.406-1.473 2.073-3 2 .473-1.406 1.473-2.073 3-2Z"/>
    <path style="opacity:.02" fill="#212121" d="M407.5 93.5c1.406.473 2.073 1.473 2 3-1.406-.473-2.073-1.473-2-3Z"/>
    <path style="opacity:.004" fill="#2f2f2f" d="M384.5 95.5h2c0 .667.333 1 1 1v1c-1.527.073-2.527-.594-3-2Z"/>
    <path style="opacity:.008" fill="#0f0f0f" d="M398.5 95.5a47.813 47.813 0 0 1 10 13c-.667 0-1 .333-1 1a21.614 21.614 0 0 1-4-5 35.905 35.905 0 0 1-6-8c.667 0 1-.333 1-1Z"/>
    <path style="opacity:.341" fill="#4c4c49" d="M73.5 94.5c-.933 2.87-2.6 5.204-5 7 .933-2.87 2.6-5.204 5-7Z"/>
    <path style="opacity:.004" d="M158.5 96.5c1.333.667 1.333.667 0 0Z"/>
    <path style="opacity:.004" fill="#454545" d="M387.5 96.5v-1c2.451 1.623 4.451 3.79 6 6.5-2.621-.427-4.621-1.927-6-4.5 1.333-.333 1.333-.667 0-1Z"/>
    <path style="opacity:.005" fill="#101010" d="M90.5 99.5c.172.992-.162 1.658-1 2-.333-1.333-.667-1.333-1 0-.667 0-1 .333-1 1-.543-.06-.876-.393-1-1 .868-2.296 2.202-2.963 4-2Z"/>
    <path style="opacity:.169" fill="#2c2c2c" d="M93.5 96.5a6.541 6.541 0 0 1-3 3c0-2 1-3 3-3Z"/>
    <path style="opacity:.039" fill="#343434" d="M103.5 94.5v2c-1.333.333-1.333.667 0 1-1.676 2.466-3.676 3.799-6 4a42.536 42.536 0 0 1 6-7Z"/>
    <path style="opacity:.004" d="M150.5 98.5c1.333.667 1.333.667 0 0ZM326.5 98.5c1.333.667 1.333.667 0 0Z"/>
    <path style="opacity:.004" fill="#191919" d="M79.5 98.5c.073 1.527-.594 2.527-2 3-.073-1.527.594-2.527 2-3Z"/>
    <path style="opacity:.192" fill="#333" d="M419.5 97.5c1.406.473 2.073 1.473 2 3-1.406-.473-2.073-1.473-2-3Z"/>
    <path style="opacity:.188" fill="#343434" d="M68.5 101.5c.073 1.527-.594 2.527-2 3-.073-1.527.594-2.527 2-3Z"/>
    <path style="opacity:.031" fill="#232323" d="M108.5 102.5c-.762 1.762-2.096 2.762-4 3 .762-1.762 2.096-2.762 4-3Z"/>
    <path style="opacity:.004" d="M249.5 103.5c1.333.667 1.333.667 0 0Z"/>
    <path style="opacity:.169" fill="#30302d" d="M423.5 103.5c1.406.473 2.073 1.473 2 3-1.406-.473-2.073-1.473-2-3Z"/>
    <path style="opacity:.106" fill="#2d2d2d" d="M74.5 105.5c.073 1.527-.594 2.527-2 3-.073-1.527.594-2.527 2-3Z"/>
    <path style="opacity:.984" fill="#727271" d="M88.5 101.5h1c-1.8 2.328-2.967 4.995-3.5 8-.383-.556-.883-.889-1.5-1-.803-.923-.97-1.923-.5-3l1 1a16.57 16.57 0 0 1 2.5-4c.667 0 1-.333 1-1Z"/>
    <path style="opacity:.008" fill="#242424" d="M387.5 106.5a6.547 6.547 0 0 1 3 3c-2 0-3-1-3-3Z"/>
    <path style="opacity:.718" fill="#636363" d="M425.5 106.5c1.667 1 3 2.333 4 4-2.333-.333-3.667-1.667-4-4Z"/>
    <path style="opacity:.004" d="M430.5 107.5c1.333.667 1.333.667 0 0Z"/>
    <path style="opacity:.027" fill="#4e4e4e" d="M415.5 104.5c2.296 1.233 3.63 3.233 4 6-1.816-1.618-3.149-3.618-4-6Z"/>
    <path style="opacity:.004" fill="#383831" d="M71.5 109.5c-.238 1.904-1.238 3.238-3 4 .238-1.904 1.238-3.238 3-4Z"/>
    <path style="opacity:.063" fill="#3f3f3f" d="M100.5 109.5c-1.333 2-3 3.667-5 5 .667-2.667 2.333-4.333 5-5Z"/>
    <path style="opacity:.29" fill="#4e4e4b" d="M407.5 110.5h1c1.778 2.329 2.778 4.996 3 8-1.626-2.442-2.959-5.109-4-8Z"/>
    <path style="opacity:.008" fill="#202020" d="M393.5 112.5a6.547 6.547 0 0 1 3 3c-2 0-3-1-3-3Z"/>
    <path style="opacity:.016" fill="#252525" d="M421.5 112.5a6.547 6.547 0 0 1 3 3c-2 0-3-1-3-3Z"/>
    <path style="opacity:.004" fill="#333332" d="M433.5 113.5c3 1 5 3 6 6a25.658 25.658 0 0 1-6-6Z"/>
    <path style="opacity:.016" fill="#2e2e2c" d="M396.5 115.5c1.762.762 2.762 2.096 3 4-1.762-.762-2.762-2.096-3-4Z"/>
    <path style="opacity:.137" fill="#313131" d="M64.5 117.5c-1.16 1.75-2.826 2.75-5 3 1.16-1.75 2.826-2.75 5-3Z"/>
    <path style="opacity:.227" fill="#575755" d="M424.5 115.5c2.249.58 3.915 1.913 5 4-2.249-.58-3.915-1.913-5-4Z"/>
    <path style="opacity:.004" fill="#1c1c1c" d="M92.5 117.5c-.238 1.904-1.238 3.238-3 4 .238-1.904 1.238-3.238 3-4Z"/>
    <path style="opacity:.416" fill="#484743" d="M429.5 119.5c2.333.333 3.667 1.667 4 4-1.667-1-3-2.333-4-4Z"/>
    <path style="opacity:.004" fill="#282825" d="M59.5 120.5c-.238 1.904-1.238 3.238-3 4 .238-1.904 1.238-3.238 3-4Z"/>
    <path style="opacity:.012" fill="#2d2d2c" d="M401.5 121.5c1.762.762 2.762 2.096 3 4-1.762-.762-2.762-2.096-3-4Z"/>
    <path style="opacity:.004" d="M31.5 125.5c1.333.667 1.333.667 0 0Z"/>
    <path style="opacity:.102" fill="#303030" d="M48.5 124.5c.098 2.053-.569 3.72-2 5-.098-2.053.569-3.72 2-5Z"/>
    <path style="opacity:.529" fill="#525252" d="M411.5 118.5c.686 1.348 1.686 2.515 3 3.5a7.93 7.93 0 0 0-1 3.5c.67 3.346 1.337 6.679 2 10-1.058-1.1-1.892-2.434-2.5-4a783.45 783.45 0 0 0-1.5-13Z"/>
    <path style="opacity:.765" fill="#747474" d="M78.5 121.5c.59 5.14-.41 9.807-3 14 .37-4.922 1.37-9.589 3-14Z"/>
    <path style="opacity:.196" fill="#3e3e3d" d="M55.5 126.5c-.207 2.741-1.207 5.074-3 7 .207-2.741 1.207-5.074 3-7Z"/>
    <path style="opacity:.127" fill="#2e2d2a" d="M85.5 126.5c-.463 2.83-1.13 5.497-2 8-.163-2.357.003-4.69.5-7 .383-.556.883-.889 1.5-1Z"/>
    <path style="opacity:.137" fill="#2f2f2e" d="M404.5 125.5c.958.453 1.792 1.119 2.5 2 .497 2.646.664 5.313.5 8-2.187-1.782-2.52-3.948-1-6.5-1.323-.816-1.989-1.983-2-3.5Z"/>
    <path style="opacity:.141" fill="#343434" d="M435.5 127.5c2.125 2.588 3.458 5.588 4 9-2.125-2.588-3.458-5.588-4-9Z"/>
    <path style="opacity:.725" fill="#656565" d="M44.5 133.5c.38 2.198-.287 3.865-2 5-.098-2.053.569-3.72 2-5Z"/>
    <path style="opacity:.078" fill="#2a2a26" d="M407.5 135.5c1.174 1.014 1.84 2.347 2 4-1.604-.787-2.271-2.12-2-4Z"/>
    <path style="opacity:.153" fill="#313130" d="M83.5 134.5c.098 2.053-.569 3.72-2 5-.098-2.053.569-3.72 2-5Z"/>
    <path style="opacity:.161" fill="#363635" d="M439.5 136.5c2.294 2.87 3.628 6.203 4 10-.617-.111-1.117-.444-1.5-1-.849-3.021-1.683-6.021-2.5-9Z"/>
    <path style="opacity:.047" fill="#222" d="M447.5 136.5c1.431 1.28 2.098 2.947 2 5-1.431-1.28-2.098-2.947-2-5Z"/>
    <path style="opacity:.349" fill="#4c4c4c" d="M50.5 137.5c-.095 2.286-.762 4.286-2 6-.24-2.398.426-4.398 2-6Z"/>
    <path style="opacity:.004" d="M25.5 141.5c1.333.667 1.333.667 0 0ZM409.5 141.5c-.667.667-.667.667 0 0ZM295.5 142.5c1.333.667 1.333.667 0 0Z"/>
    <path style="opacity:.729" fill="#5d5d5b" d="M417.5 139.5c1.565 2.009 2.565 4.343 3 7-2.334-1.676-3.334-4.009-3-7Z"/>
    <path style="opacity:.004" d="M410.5 143.5c-.667.667-.667.667 0 0Z"/>
    <path style="opacity:.714" fill="#535353" d="M449.5 141.5c2.477 4.646 4.144 9.646 5 15-2.64-4.585-4.306-9.585-5-15Z"/>
    <path style="opacity:.278" fill="#4d4d4b" d="M79.5 142.5c-.48 2.943-1.48 5.61-3 8-.085-3.149.915-5.816 3-8Z"/>
    <path style="opacity:.22" fill="#3a3a39" d="M411.5 143.5c2.085 2.184 3.085 4.851 3 8-1.52-2.39-2.52-5.057-3-8Z"/>
    <path style="opacity:.647" fill="#4f4f4d" d="M39.5 146.5c.085 3.149-.915 5.816-3 8 .48-2.943 1.48-5.61 3-8Z"/>
    <path style="opacity:.004" d="M333.5 149.5c1.333.667 1.333.667 0 0Z"/>
    <path style="opacity:.008" fill="#272727" d="M46.5 147.5c.09 2.652-.576 4.985-2 7-.09-2.652.576-4.985 2-7Z"/>
    <path style="opacity:.004" d="M236.5 151.5c1.333.667 1.333.667 0 0Z"/>
    <path style="opacity:.235" fill="#343432" d="M444.5 149.5c1.574 1.602 2.241 3.602 2 6-1.238-1.714-1.905-3.714-2-6Z"/>
    <path style="opacity:.529" fill="#595959" d="M44.5 154.5c-.375 2.198-1.042 4.198-2 6-.447-2.51.22-4.51 2-6Z"/>
    <path style="opacity:.043" fill="#454544" d="M69.5 148.5c-.525 4.033-1.858 7.7-4 11 .525-4.033 1.858-7.7 4-11Z"/>
    <path style="opacity:.196" fill="#3b3b3b" d="M415.5 153.5c2.085 2.184 3.085 4.851 3 8-1.52-2.39-2.52-5.057-3-8Z"/>
    <path style="opacity:.004" d="M243.5 157.5c1.333.667 1.333.667 0 0Z"/>
    <path style="opacity:.039" fill="#353534" d="M422.5 151.5c1.52 2.39 2.52 5.057 3 8-2.085-2.184-3.085-4.851-3-8Z"/>
    <path style="opacity:.004" d="M352.5 159.5c1.333.667 1.333.667 0 0Z"/>
    <path style="opacity:.984" fill="#747473" d="M74.5 154.5c-.756 4.267-2.089 8.267-4 12 .24-1.967-.094-3.801-1-5.5 2.523-1.563 4.19-3.73 5-6.5Z"/>
    <path style="opacity:.824" fill="#4e4e4c" d="M65.5 159.5c-1.092 5.933-2.759 11.6-5 17 .17-1.322-.163-2.489-1-3.5 2.31-4.459 4.31-8.959 6-13.5Z"/>
    <path style="opacity:.757" fill="#555554" d="M425.5 160.5c2.11 4.002 3.443 8.335 4 13-2.11-4.002-3.443-8.335-4-13Z"/>
    <path style="opacity:.506" fill="#4d4d4d" d="M34.5 162.5c-.065 2.928-.732 5.595-2 8-.39-3.053.277-5.72 2-8Z"/>
    <path style="opacity:.224" fill="#484847" d="M41.5 163.5c-.398 4.261-1.398 8.261-3 12-.228-4.424.772-8.424 3-12Z"/>
    <path style="opacity:.012" fill="#2f2f2e" d="M70.5 166.5c-.242 3.979-1.242 7.646-3 11 .242-3.979 1.242-7.646 3-11Z"/>
    <path style="opacity:.929" fill="#757575" d="M454.5 156.5c2.246 4.305 3.58 8.971 4 14-1.972-4.273-3.305-8.939-4-14Z"/>
    <path style="opacity:.004" d="M119.5 170.5c1.333.667 1.333.667 0 0Z"/>
    <path style="opacity:.192" fill="#3a3a38" d="M449.5 164.5c1.618 2.671 2.285 5.671 2 9-1.413-2.719-2.08-5.719-2-9Z"/>
    <path style="opacity:.094" fill="#333" d="M420.5 167.5c1.983 3.299 2.983 6.966 3 11-1.225-.652-1.892-1.819-2-3.5a114.265 114.265 0 0 1-1-7.5Z"/>
    <path style="opacity:.608" fill="#444443" d="M458.5 171.5c1.413 2.719 2.08 5.719 2 9-1.413-2.719-2.08-5.719-2-9Z"/>
    <path style="opacity:.412" fill="#595957" d="M32.5 171.5c.09 2.652-.576 4.985-2 7-.09-2.652.576-4.985 2-7Z"/>
    <path style="opacity:.004" d="M462.5 181.5c1.333.667 1.333.667 0 0Z"/>
    <path style="opacity:.005" fill="#20201f" d="M423.5 179.5c1.268 2.405 1.935 5.072 2 8-.617-.111-1.117-.444-1.5-1a24.935 24.935 0 0 1-.5-7Z"/>
    <path style="opacity:.341" fill="#505050" d="M59.5 177.5h1c.09 2.652-.576 4.985-2 7a51.648 51.648 0 0 1 1-7Z"/>
    <path style="opacity:.11" fill="#292929" d="M30.5 179.5c-.176 3.227-.843 6.227-2 9-.432-3.377.235-6.377 2-9Z"/>
    <path style="opacity:.325" fill="#4c4c4b" d="M430.5 178.5c1.268 2.405 1.935 5.072 2 8-1.54-2.338-2.206-5.005-2-8Z"/>
    <path style="opacity:.004" d="M299.5 186.5c1.333.667 1.333.667 0 0Z"/>
    <path style="opacity:.765" fill="#60605e" d="M460.5 180.5c1.736 6.089 2.736 12.422 3 19-2.169-6.02-3.169-12.353-3-19Z"/>
    <path style="opacity:.078" fill="#272727" d="M58.5 185.5c-.35 4.184-1.018 8.184-2 12 .086-.996-.248-1.829-1-2.5.498-3.42 1.498-6.587 3-9.5Z"/>
    <path style="opacity:.275" fill="#3c3c3a" d="M65.5 187.5a265.207 265.207 0 0 1-3 21c-.37-7.338.63-14.338 3-21Z"/>
    <path style="opacity:.549" fill="#4f4f4c" d="M432.5 186.5c1.209 4.118 1.876 8.451 2 13-1.554-4.067-2.22-8.4-2-13Z"/>
    <path style="opacity:.153" fill="#393331" d="M28.5 189.5c.103 6.886-.564 13.553-2 20 .224-4.454.224-8.788 0-13a64.632 64.632 0 0 1 2-7Z"/>
    <path style="opacity:.251" fill="#2e2e2e" d="M426.5 195.5c.961 1.765 1.295 3.765 1 6-1.328-1.944-1.661-3.944-1-6Z"/>
    <path style="opacity:.004" d="M142.5 200.5c1.333.667 1.333.667 0 0ZM239.5 201.5c1.333.667 1.333.667 0 0Z"/>
    <path style="opacity:.192" fill="#1b1b19" d="M56.5 198.5c.175 2.121-.159 4.121-1 6-.543-.06-.876-.393-1-1 .528-1.836 1.194-3.503 2-5Z"/>
    <path style="opacity:.005" fill="#131313" d="M455.5 195.5c1.207 7.139 1.874 14.472 2 22-3.243 1.08-6.576 1.247-10 .5a219.474 219.474 0 0 0 9-2.5 106.21 106.21 0 0 1-1-20Z"/>
    <path style="opacity:.251" fill="#4a4a47" d="M36.5 184.5a231.48 231.48 0 0 1-3 26c-.413-8.969.587-17.635 3-26Z"/>
    <path style="opacity:.01" fill="#100817" d="M435.5 210.5c.809 1.792 1.309 3.792 1.5 6l1-1c1.334 1.378 1.501 2.711.5 4h-1c-.333-2.667-.667-2.667-1 0-.977-2.787-1.31-5.787-1-9Z"/>
    <path style="opacity:.006" d="M464.5 230.5v-12c.817-2.469 1.317-5.135 1.5-8l.5 10c-.014 3.739-.68 7.072-2 10Z"/>
    <path style="opacity:.004" d="M428.5 211.5c-.324 6.854.009 13.521 1 20v1c-.617.111-1.117.444-1.5 1-.822-7.512-.655-14.845.5-22Z"/>
    <path style="opacity:.006" fill="#080808" d="M26.5 213.5v1c-1.333 2-1.333 4 0 6v11c-1.144 1.349-1.144 1.683 0 1 1.406.473 2.073 1.473 2 3-.897-1.098-1.73-1.098-2.5 0l-2-2a72.496 72.496 0 0 1 0-17c.235-1.619 1.069-2.619 2.5-3Z"/>
    <path style="opacity:.004" d="M278.5 215.5c1.333.667 1.333.667 0 0Z"/>
    <path style="opacity:.009" d="M34.5 216.5c2.666.433 5.332.933 8 1.5l-4 .5c-1.833-.085-3.166-.752-4-2Z"/>
    <path style="opacity:.007" fill="#131313" d="M55.5 208.5c.315 3.871-.018 7.538-1 11h-3c-2.131-.814-4.464-1.314-7-1.5a32.304 32.304 0 0 0 10-2.5 3.646 3.646 0 0 0-1-1.5 61.284 61.284 0 0 1 2-5.5Z"/>
    <path style="opacity:.333" fill="#535352" d="M427.5 201.5c1.751 9.775 2.417 19.775 2 30-.991-6.479-1.324-13.146-1-20-.914-3.228-1.247-6.561-1-10Z"/>
    <path style="opacity:.627" fill="#9c9c9c" d="M33.5 210.5v9h21c-7.148.992-14.48 1.325-22 1-.313-3.542.02-6.875 1-10Z"/>
    <path style="opacity:.004" d="M68.5 220.5c1.333.667 1.333.667 0 0ZM228.5 220.5c1.333.667 1.333.667 0 0ZM113.5 227.5c1.333.667 1.333.667 0 0Z"/>
    <path style="opacity:.119" fill="#2e2e2e" d="M33.5 227.5a121.86 121.86 0 0 1 22 1l-11 1c-4.065-.011-7.732-.678-11-2Z"/>
    <path style="opacity:.118" fill="#2f2f2f" d="M435.5 227.5c7.363-.331 14.697.003 22 1l-11 1c-4.065-.011-7.732-.678-11-2Z"/>
    <path style="opacity:.639" fill="#5d5d5b" d="M111.5 234.5a123.89 123.89 0 0 0-19 1c3.532-1.68 7.365-2.68 11.5-3 2.159.617 4.159.617 6 0 1.03.336 1.53 1.003 1.5 2Z"/>
    <path style="opacity:.514" fill="#717171" d="M380.5 234.5c4.481-1.148 9.148-1.315 14-.5 2.223.566 4.223 1.4 6 2.5a76.198 76.198 0 0 0-20-2Z"/>
    <path style="opacity:.012" fill="#171717" d="M60.5 233.5c-.548 2.584-2.215 3.584-5 3 1.465-1.237 3.132-2.237 5-3Z"/>
    <path style="opacity:.086" fill="#20201f" d="M90.5 236.5c-2.63 1.653-5.297 3.319-8 5v-3l8-2Z"/>
    <path style="opacity:.006" d="M29.5 238.5c.397-1.025 1.063-1.192 2-.5a2.429 2.429 0 0 1-2 .5Z"/>
    <path style="opacity:.046" fill="#141314" d="M47.5 236.5c.99 6.145 1.324 12.478 1 19-.333 1-1 1.667-2 2h-1c-.417-.722-1.084-1.222-2-1.5a13.017 13.017 0 0 0 4-4.5 327.053 327.053 0 0 1 0-11.5c-2.625-1.393-2.625-2.559 0-3.5Z"/>
    <path style="opacity:.031" fill="#343433" d="M119.5 237.5c1.527-.073 2.527.594 3 2-1.527.073-2.527-.594-3-2Z"/>
    <path style="opacity:.004" fill="#222221" d="M400.5 236.5c3.114.055 5.448 1.388 7 4a36.077 36.077 0 0 1-7-4Z"/>
    <path style="opacity:.004" d="M432.5 237.5c1.333.667 1.333.667 0 0ZM443.5 237.5c2.501.011 2.668.678.5 2a2.428 2.428 0 0 1-.5-2Z"/>
    <path style="opacity:.77" fill="#9c9c9c" d="M429.5 232.5c1.972 1.819 4.305 2.819 7 3v20a116.21 116.21 0 0 0-12 2c3.342-1.835 7.009-3.002 11-3.5a573.348 573.348 0 0 1 0-17.5c-3.378.609-5.378-.724-6-4Z"/>
    <path style="opacity:.424" fill="#6b6b6b" d="M451.5 236.5h-9a113.185 113.185 0 0 0 1 20c-.617-.111-1.117-.444-1.5-1-.5-6.658-.666-13.325-.5-20 3.542-.313 6.875.021 10 1Z"/>
    <path style="opacity:.545" fill="gray" d="M48.5 255.5c.324-6.522-.01-12.855-1-19h-8c-.166 5.676 0 11.343.5 17 .875 2.715 2.708 4.048 5.5 4h1c-2.93 1.574-5.43.908-7.5-2-.5-6.658-.666-13.325-.5-20h11c.324 6.854-.01 13.521-1 20Z"/>
    <path style="opacity:.303" fill="#464646" d="M461.5 235.5c-.709.904-1.709 1.237-3 1 .166 7.341 0 14.674-.5 22a30.137 30.137 0 0 0-3.5 6c-.876.131-1.543-.202-2-1 2.122-1.951 3.622-4.285 4.5-7 .5-6.992.666-13.992.5-21h4Z"/>
    <path style="opacity:.004" d="M29.5 241.5c1.333.667 1.333.667 0 0ZM262.5 241.5c1.333.667 1.333.667 0 0Z"/>
    <path style="opacity:.373" fill="#444" d="M367.5 240.5a25.658 25.658 0 0 1-6 6c1-3 3-5 6-6Z"/>
    <path style="opacity:.006" fill="#0f0f0f" d="M32.5 242.5c-.4 6.167.268 12.167 2 18-1.333.333-1.333.667 0 1 .667 0 1 .333 1 1v2c-.667 0-1 .333-1 1-1.1-1.777-1.934-3.777-2.5-6-.818-5.849-.652-11.515.5-17Z"/>
    <path style="opacity:.212" fill="#3d3d3d" d="M94.5 242.5c-1.681 1.508-3.681 2.508-6 3 1.411-2.039 3.411-3.039 6-3Z"/>
    <path style="opacity:.133" fill="#4b4b4b" d="M110.5 241.5c3.352.03 6.018 1.363 8 4-2.937-.972-5.603-2.305-8-4Z"/>
    <path style="opacity:.208" fill="#393939" d="M398.5 243.5c2.433-.227 4.099.773 5 3-1.934-.61-3.601-1.61-5-3Z"/>
    <path style="opacity:.647" fill="#4a4a49" d="M82.5 241.5c-1.28 2.947-3.28 5.281-6 7 1.31-2.973 3.31-5.307 6-7Z"/>
    <path style="opacity:.537" fill="#4f4f4f" d="M118.5 245.5c2.667.667 4.333 2.333 5 5-2-1.333-3.667-3-5-5Z"/>
    <path style="opacity:.137" fill="#3c3c3c" d="M409.5 242.5c2.414 1.411 4.081 3.411 5 6-2.414-1.411-4.081-3.411-5-6Z"/>
    <path style="opacity:.118" fill="#282825" d="M450.5 236.5h1c.166 6.675 0 13.342-.5 20-.671.752-1.504 1.086-2.5 1v-1c1.195-.366 1.861-1.199 2-2.5-.51-5.783-.51-11.616 0-17.5Z"/>
    <path style="opacity:.004" fill="#121212" d="M55.5 248.5c.934 1.068 1.268 2.401 1 4 3.949.193 3.949.693 0 1.5 1.882.198 3.548.698 5 1.5h-6v-7Z"/>
    <path style="opacity:.035" fill="#363531" d="M372.5 245.5c-1.333 2-3 3.667-5 5 .667-2.667 2.333-4.333 5-5Z"/>
    <path style="opacity:.004" d="M63.5 251.5c1.333.667 1.333.667 0 0Z"/>
    <path style="opacity:.975" fill="#858585" d="M123.5 250.5c3.763.738 4.763 2.738 3 6-1.096-1.603-2.43-3.103-4-4.5.556-.383.889-.883 1-1.5Z"/>
    <path style="opacity:.004" d="M432.5 252.5c1.333.667 1.333.667 0 0Z"/>
    <path style="opacity:.075" fill="#2c2c2c" d="M367.5 250.5c.271 1.88-.396 3.213-2 4 .16-1.653.826-2.986 2-4Z"/>
    <path style="opacity:.008" fill="#323232" d="M406.5 249.5c1.745 1.533 2.745 3.533 3 6-2.039-1.411-3.039-3.411-3-6Z"/>
    <path style="opacity:.278" fill="#414141" d="M75.5 252.5c-1.365 3.144-2.365 6.477-3 10a327.399 327.399 0 0 1-6-5c2.179.34 4.012 1.34 5.5 3-1.338-3.666-.171-6.332 3.5-8Z"/>
    <path style="opacity:.004" fill="#161616" d="M127.5 258.5c1.406.473 2.073 1.473 2 3-.617.111-1.117.444-1.5 1a8.43 8.43 0 0 1-.5-4Z"/>
    <path style="opacity:.161" fill="#373736" d="M52.5 262.5c-1.681 1.508-3.681 2.508-6 3 1.411-2.039 3.411-3.039 6-3Z"/>
    <path style="opacity:.004" d="M259.5 263.5c1.333.667 1.333.667 0 0Z"/>
    <path style="opacity:.004" fill="#1c1c1c" d="M62.5 263.5c1.527-.073 2.527.594 3 2-1.623.991-2.623.324-3-2Z"/>
    <path style="opacity:.678" fill="#575757" d="M36.5 262.5c.694 3.081-.639 5.414-4 7 .233-1.562.9-2.895 2-4 .667 0 1-.333 1-1 .838-.342 1.172-1.008 1-2Z"/>
    <path style="opacity:.149" fill="#3c3c3c" d="M80.5 258.5a54.938 54.938 0 0 0-1 12c-.66-1.464-.993-3.131-1-5-.184-2.705.483-5.038 2-7Z"/>
    <path style="opacity:.494" fill="#3c3c39" d="M444.5 265.5c3.667 1.667 6.333 4.333 8 8-3-2.333-5.667-5-8-8Z"/>
    <path style="opacity:.6" fill="#4e4d48" d="M454.5 264.5c2.087 1.085 3.42 2.751 4 5-2.087-1.085-3.42-2.751-4-5Z"/>
    <path style="opacity:.024" fill="#2a2a2a" d="M45.5 266.5c-.762 1.762-2.096 2.762-4 3 .762-1.762 2.096-2.762 4-3Z"/>
    <path style="opacity:.149" fill="#343434" d="M139.5 265.5c1.406.473 2.073 1.473 2 3-1.406-.473-2.073-1.473-2-3Z"/>
    <path style="opacity:.141" fill="#343432" d="M351.5 265.5c-.25 2.174-1.25 3.841-3 5 .25-2.174 1.25-3.841 3-5Z"/>
    <path style="opacity:.008" fill="#222" d="M67.5 267.5c1.406.473 2.073 1.473 2 3-1.21-.432-2.21-1.099-3-2 .667 0 1-.333 1-1Z"/>
    <path style="opacity:.176" fill="#343434" d="M358.5 267.5c-.25 2.174-1.25 3.841-3 5 .25-2.174 1.25-3.841 3-5Z"/>
    <path style="opacity:.067" fill="#2b2b2b" d="M423.5 267.5c.073 1.527-.594 2.527-2 3-.073-1.527.594-2.527 2-3Z"/>
    <path style="opacity:.012" fill="#303030" d="M41.5 269.5c-.238 1.904-1.238 3.238-3 4 .238-1.904 1.238-3.238 3-4Z"/>
    <path style="opacity:.984" fill="#7d7d7b" d="M132.5 267.5c2.611 2.119 4.278 4.786 5 8l-2-1c-.715-2.255-2.048-4.088-4-5.5.556-.383.889-.883 1-1.5Z"/>
    <path style="opacity:.188" fill="#363636" d="M458.5 269.5c1.406.473 2.073 1.473 2 3-1.406-.473-2.073-1.473-2-3Z"/>
    <path style="opacity:.004" fill="#1e1e1d" d="M452.5 273.5c1.406.473 2.073 1.473 2 3-1.406-.473-2.073-1.473-2-3Z"/>
    <path style="opacity:.01" fill="#191919" d="M70.5 272.5a36.082 36.082 0 0 1 4 7c-2.813-1.395-4.146-3.729-4-7Z"/>
    <path style="opacity:.004" fill="#141414" d="M137.5 276.5c1.604.787 2.271 2.12 2 4-1.333.333-1.333.667 0 1-.172.992.162 1.658 1 2-.172.992.162 1.658 1 2 .333 2.667.667 2.667 1 0 1.174 1.014 1.84 2.347 2 4h-1c-.333-1.333-.667-1.333-1 0-2.811-3.609-5.145-7.609-7-12 .7-.287 1.367-.62 2-1Z"/>
    <path style="opacity:.204" fill="#3e3e3c" d="M419.5 274.5c-.25 2.174-1.25 3.841-3 5 .25-2.174 1.25-3.841 3-5Z"/>
    <path style="opacity:.267" fill="#464646" d="M36.5 276.5c-.764 2.518-1.764 4.851-3 7-.334-2.991.666-5.324 3-7Z"/>
    <path style="opacity:.999" fill="#d1d1cf" d="M62.5 285.5c-.632 4.433-2.632 5.1-6 2-1.433-2.058-2.1-4.392-2-7 .814-1.773 2.148-2.273 4-1.5 2.234 1.638 3.567 3.805 4 6.5Z"/>
    <path style="opacity:.204" fill="#414141" d="M353.5 276.5c-.579 2.831-1.912 5.164-4 7 .579-2.831 1.912-5.164 4-7Z"/>
    <path style="opacity:.999" fill="#c6c6c4" d="M434.5 287.5c-5.121 3.218-6.788 1.884-5-4 .773-3.287 2.773-4.787 6-4.5 2.391 3.044 2.057 5.877-1 8.5Z"/>
    <path style="opacity:.004" fill="#323231" d="M454.5 276.5c1.777 2.73 3.111 5.73 4 9-2.374-2.434-3.708-5.434-4-9Z"/>
    <path style="opacity:.005" fill="#0d0d0d" d="M54.5 280.5c-.1 2.608.567 4.942 2 7-1.8 1.105-2.967.439-3.5-2-.877-2.174-.377-3.841 1.5-5Z"/>
    <path style="opacity:.251" fill="#353533" d="M359.5 285.5a4.934 4.934 0 0 0-.5-3c-.708.881-1.542 1.547-2.5 2 .194-2.412 1.527-3.412 4-3 .268 1.599-.066 2.932-1 4Z"/>
    <path style="opacity:.006" fill="#191919" d="M26.5 282.5c-1.333 7-1.333 14 0 21-.667 0-1 .333-1 1-.722-.418-1.222-1.084-1.5-2a100.245 100.245 0 0 1 0-20l1 2c.278-.916.778-1.582 1.5-2Z"/>
    <path style="opacity:.005" fill="#1e1e1d" d="M134.5 284.5c-.958-.453-1.792-1.119-2.5-2a4.934 4.934 0 0 0-.5 3c-1.333.667-1.333 1.333 0 2-.039 1.724.294 2.057 1 1 1.793 1.926 2.793 4.259 3 7h-1c-2.872-3.24-4.872-7.073-6-11.5l.5-1.5c1.087 2.432 1.587 2.098 1.5-1 2.473-.412 3.806.588 4 3Z"/>
    <path style="opacity:.008" fill="#202020" d="M75.5 281.5c1.745 1.533 2.745 3.533 3 6-2.71-1.414-3.71-3.414-3-6Z"/>
    <path style="opacity:.004" d="M466.5 284.5c1.333.667 1.333.667 0 0Z"/>
    <path style="opacity:.004" fill="#282828" d="M348.5 285.5c-.172.992.162 1.658 1 2l-2 2-2 2c.154-2.47 1.154-4.47 3-6Z"/>
    <path style="opacity:.122" fill="#323231" d="M86.5 286.5c2.039 1.411 3.039 3.411 3 6-1.507-1.681-2.507-3.681-3-6Z"/>
    <path style="opacity:.999" fill="#d6d6d6" d="M134.5 284.5a57.535 57.535 0 0 1 10 15c-.073 1.527.594 2.527 2 3l1 2c-.073 1.527.594 2.527 2 3h1l2 6a36.077 36.077 0 0 0 4 7l2 1v2c.492 2.319 1.492 4.319 3 6l7 10c1.242 4.155 3.242 7.822 6 11l9 20c-.271 1.88.396 3.213 2 4a88.562 88.562 0 0 1 7 17c.215 1.679-.452 2.679-2 3a2364.284 2364.284 0 0 1-11-16v-1c-.25-2.174-1.25-3.841-3-5-.838-.342-1.172-1.008-1-2-.84-2.353-2.174-4.353-4-6 0-.667-.333-1-1-1-.418-.722-1.084-1.222-2-1.5.671-.986.671-2.153 0-3.5.073-1.527-.594-2.527-2-3 0-.667-.333-1-1-1 0-.667-.333-1-1-1v-2c-.25-2.174-1.25-3.841-3-5 0-.667-.333-1-1-1-.933-2.87-2.6-5.204-5-7 1.215-1.279.882-2.279-1-3v-2c-.16-1.653-.826-2.986-2-4 .172-.992-.162-1.658-1-2-.826-2.985-2.159-5.651-4-8a48.188 48.188 0 0 0-5-10h-1c-.418-.722-1.084-1.222-2-1.5.752-.671 1.086-1.504 1-2.5-.492-2.319-1.492-4.319-3-6h-1c.172-.992-.162-1.658-1-2v-2c-.207-2.741-1.207-5.074-3-7 0-.667-.333-1-1-1v-2a4.934 4.934 0 0 1 .5-3c.708.881 1.542 1.547 2.5 2Z"/>
    <path style="opacity:.082" fill="#212120" d="M62.5 285.5c1.663 4.5-.004 6-5 4.5-.752-.671-1.086-1.504-1-2.5 3.368 3.1 5.368 2.433 6-2Z"/>
    <path style="opacity:.043" fill="#272727" d="M78.5 287.5c1.406.473 2.073 1.473 2 3-1.406-.473-2.073-1.473-2-3Z"/>
    <path style="opacity:.007" fill="#131313" d="M142.5 289.5h1c0 .667.333 1 1 1-.172.992.162 1.658 1 2-.039 1.724.294 2.057 1 1 3.837 5.67 7.17 11.67 10 18 2.271 2.112 3.604 4.779 4 8-1.333.333-1.333.667 0 1 1.729.736 2.729 2.07 3 4-1 1.333-2 1.333-3 0 .073-1.527-.594-2.527-2-3 .271-1.88-.396-3.213-2-4 .172-.992-.162-1.658-1-2 0-.667-.333-1-1-1-.579-2.831-1.912-5.164-4-7 .172-.992-.162-1.658-1-2-.61-1.934-1.61-3.601-3-5a75.813 75.813 0 0 1-4-11Z"/>
    <path style="opacity:.059" fill="#323128" d="M412.5 287.5c.073 1.527-.594 2.527-2 3-.073-1.527.594-2.527 2-3Z"/>
    <path style="opacity:.082" fill="#242421" d="M429.5 283.5c-1.788 5.884-.121 7.218 5 4 .086.996-.248 1.829-1 2.5-3.362 1.293-5.362.293-6-3-.113-1.699.553-2.866 2-3.5Z"/>
    <path style="opacity:.086" fill="#353535" d="M403.5 288.5c-.16 1.653-.826 2.986-2 4-.271-1.88.396-3.213 2-4Z"/>
    <path style="opacity:.102" fill="#292929" d="M80.5 290.5c1.174 1.014 1.84 2.347 2 4-2.262-.845-2.929-2.178-2-4Z"/>
    <path style="opacity:.169" fill="#393939" d="M152.5 289.5c1.406.473 2.073 1.473 2 3-1.406-.473-2.073-1.473-2-3Z"/>
    <path style="opacity:.161" fill="#393937" d="M338.5 289.5c.073 1.527-.594 2.527-2 3-.073-1.527.594-2.527 2-3Z"/>
    <path style="opacity:.999" fill="#cececd" d="M359.5 285.5c.172.992-.162 1.658-1 2-1.903 3.03-3.237 6.363-4 10 .172.992-.162 1.658-1 2-2.039 1.411-3.039 3.411-3 6-.16 1.653-.826 2.986-2 4-1.508 1.681-2.508 3.681-3 6-1.492 4.318-3.492 8.318-6 12-2.088 1.836-3.421 4.169-4 7-2.905 7.2-6.572 13.866-11 20-1.174 1.014-1.84 2.347-2 4a53.615 53.615 0 0 1-7 12c-1.75 1.159-2.75 2.826-3 5-3.011 6.697-7.011 12.697-12 18-.617.111-1.117.444-1.5 1a8.43 8.43 0 0 1-.5-4 225.348 225.348 0 0 1 10-24c1.841-2.349 3.174-5.015 4-8a255.14 255.14 0 0 0 10-19c1.406-.473 2.073-1.473 2-3a55.848 55.848 0 0 0 8-15 491.607 491.607 0 0 0 15.5-26c2.37-4.097 5.203-7.764 8.5-11 .958-.453 1.792-1.119 2.5-2 .483.948.649 1.948.5 3Z"/>
    <path style="opacity:.239" fill="#30302e" d="M465.5 285.5h1a112.97 112.97 0 0 1-.5 15c-.232 1.237-.732 2.237-1.5 3a114.269 114.269 0 0 0 1-18Z"/>
    <path style="opacity:.02" fill="#333" d="M458.5 286.5c1.294 4.233 1.294 8.566 0 13a512.117 512.117 0 0 1 0-13Z"/>
    <path style="opacity:.004" d="M345.5 293.5h1c-.566 4.306-1.232 4.639-2 1 .667 0 1-.333 1-1Z"/>
    <path style="opacity:.161" fill="#3d3d3b" d="M358.5 287.5c-.372 3.797-1.706 7.13-4 10 .763-3.637 2.097-6.97 4-10Z"/>
    <path style="opacity:.094" fill="#2f2f2d" d="M410.5 290.5c.271 1.88-.396 3.213-2 4 .16-1.653.826-2.986 2-4Z"/>
    <path style="opacity:.216" fill="#3d3d3a" d="M32.5 287.5c.143 3.643.143 6.977 0 10-1.333-3.333-1.333-6.667 0-10Z"/>
    <path style="opacity:.01" fill="#1d1d1d" d="M82.5 294.5c1.174 1.014 1.84 2.347 2 4-1.604-.787-2.27-2.12-2-4Z"/>
    <path style="opacity:.004" d="M177.5 296.5c1.333.667 1.333.667 0 0Z"/>
    <path style="opacity:.106" fill="#333" d="M343.5 294.5c.271 1.88-.396 3.213-2 4 .16-1.653.826-2.986 2-4Z"/>
    <path style="opacity:.005" fill="#1e1e1d" d="M84.5 298.5c2.088 1.836 3.421 4.169 4 7-2.753-1.863-4.086-4.197-4-7Z"/>
    <path style="opacity:.161" fill="#323232" d="M406.5 298.5c-.579 2.831-1.912 5.164-4 7 .579-2.831 1.912-5.164 4-7Z"/>
    <path style="opacity:.157" fill="#363636" d="m144.5 299.5 2 1v2c-1.406-.473-2.073-1.473-2-3Z"/>
    <path style="opacity:.302" fill="#515150" d="M353.5 299.5c-.492 2.319-1.492 4.319-3 6-.039-2.589.961-4.589 3-6Z"/>
    <path style="opacity:.133" fill="#2f2f2f" d="M158.5 300.5c1.75 1.159 2.75 2.826 3 5-1.75-1.159-2.75-2.826-3-5Z"/>
    <path style="opacity:.133" fill="#31312f" d="M332.5 300.5c-.25 2.174-1.25 3.841-3 5 .25-2.174 1.25-3.841 3-5Z"/>
    <path style="opacity:.165" fill="#353535" d="M94.5 301.5c1.406.473 2.073 1.473 2 3-1.406-.473-2.073-1.473-2-3Z"/>
    <path style="opacity:.008" fill="#1b1a1a" d="M137.5 299.5c1.508 1.681 2.508 3.681 3 6-1.45 1.158-2.45.658-3-1.5 1.134-1.016.801-1.683-1-2 .752-.671 1.086-1.504 1-2.5Z"/>
    <path style="opacity:.005" fill="#232322" d="M26.5 303.5c.904.709 1.237 1.709 1 3 1.431 1.28 2.098 2.947 2 5-.717-.961-1.883-1.961-3.5-3a8.435 8.435 0 0 1-.5-4c.667 0 1-.333 1-1Z"/>
    <path style="opacity:.008" fill="#1c1c1c" d="M339.5 302.5c-.172.992.162 1.658 1 2-.685 2.278-1.685 3.612-3 4-.667 0-1 .333-1 1h-1c.579-2.831 1.912-5.164 4-7Z"/>
    <path style="opacity:.004" d="M178.5 305.5c1.333.667 1.333.667 0 0Z"/>
    <path style="opacity:.192" fill="#343434" d="m147.5 304.5 2 1v2c-1.406-.473-2.073-1.473-2-3Z"/>
    <path style="opacity:.004" d="M469.5 306.5c1.333.667 1.333.667 0 0ZM169.5 308.5c1.333.667 1.333.667 0 0ZM337.5 308.5c1.273.577 1.273 1.243 0 2-.607-.124-.94-.457-1-1 .667 0 1-.333 1-1ZM237.5 309.5c1.333.667 1.333.667 0 0Z"/>
    <path style="opacity:.286" fill="#545454" d="M463.5 306.5c-.207 2.741-1.207 5.074-3 7 .207-2.741 1.207-5.074 3-7Z"/>
    <path style="opacity:.004" d="M464.5 309.5c1.333.667 1.333.667 0 0Z"/>
    <path style="opacity:.007" fill="#222" d="M89.5 307.5c2.223 2.644 3.89 5.644 5 9-3.595-2.206-5.262-5.206-5-9Z"/>
    <path style="opacity:.098" fill="#30302b" d="M327.5 309.5c-.16 1.653-.826 2.986-2 4-.271-1.88.396-3.213 2-4Z"/>
    <path style="opacity:.204" fill="#3f3f3f" d="M401.5 307.5c-.492 2.319-1.492 4.319-3 6-.039-2.589.961-4.589 3-6Z"/>
    <path style="opacity:.137" fill="#363636" d="M348.5 309.5c.039 2.589-.961 4.589-3 6 .492-2.319 1.492-4.319 3-6Z"/>
    <path style="opacity:.165" fill="#353535" d="M100.5 312.5c1.406.473 2.073 1.473 2 3-1.406-.473-2.073-1.473-2-3Z"/>
    <path style="opacity:.004" fill="#202020" d="M142.5 309.5a48.188 48.188 0 0 1 5 10h-1c-3.092-2.82-4.425-6.153-4-10Z"/>
    <path style="opacity:.173" fill="#353233" d="M38.5 313.5c1.406.473 2.073 1.473 2 3-1.406-.473-2.073-1.473-2-3Z"/>
    <path style="opacity:.004" d="M487.5 315.5c1.333.667 1.333.667 0 0Z"/>
    <path style="opacity:.808" fill="#656460" d="M390.5 312.5c-.092 2.348-1.092 4.014-3 5 .25-2.174 1.25-3.841 3-5Z"/>
    <path style="opacity:.125" fill="#323232" d="m332.5 315.5-1 4-2 1c.25-2.174 1.25-3.841 3-5Z"/>
    <path style="opacity:.059" fill="#393939" d="m152.5 313.5 2 1c.667 0 1 .333 1 1-.172.992.162 1.658 1 2v3a36.077 36.077 0 0 1-4-7Z"/>
    <path style="opacity:.965" fill="#7d7d7d" d="M453.5 311.5c-.418 3.849-2.085 6.849-5 9 .91-3.492 2.576-6.492 5-9Z"/>
    <path style="opacity:.169" fill="#393937" d="M458.5 316.5c.039 2.589-.961 4.589-3 6 .492-2.319 1.492-4.319 3-6Z"/>
    <path style="opacity:.005" fill="#1d1d1d" d="M31.5 315.5c2.424 2.508 4.09 5.508 5 9-2.434-2.044-4.434-4.544-6-7.5.556-.383.89-.883 1-1.5Z"/>
    <path style="opacity:.012" fill="#151516" d="M94.5 316.5c1.507 1.681 2.507 3.681 3 6-1.884-.882-3.217-2.382-4-4.5.556-.383.89-.883 1-1.5Z"/>
    <path style="opacity:.165" fill="#343433" d="M147.5 319.5c1.841 2.349 3.174 5.015 4 8h-1c-.725-2.285-2.058-4.118-4-5.5.752-.671 1.086-1.504 1-2.5Z"/>
    <path style="opacity:.008" fill="#242424" d="M97.5 322.5c1.406.473 2.073 1.473 2 3-1.406-.473-2.073-1.473-2-3Z"/>
    <path style="opacity:.063" fill="#2c2c2c" d="M329.5 320.5c.271 1.88-.396 3.213-2 4 .16-1.653.826-2.986 2-4Z"/>
    <path style="opacity:.004" d="M218.5 324.5c1.333.667 1.333.667 0 0Z"/>
    <path style="opacity:.106" fill="#252525" d="M447.5 322.5c.073 1.527-.594 2.527-2 3-.073-1.527.594-2.527 2-3Z"/>
    <path style="opacity:.098" fill="#363635" d="M106.5 323.5c1.604.787 2.271 2.12 2 4-1.174-1.014-1.84-2.347-2-4Z"/>
    <path style="opacity:.122" fill="#343434" d="m158.5 323.5 2 1a20.69 20.69 0 0 1 1 5c-1.508-1.681-2.508-3.681-3-6Z"/>
    <path style="opacity:.094" fill="#2f2f2d" d="M384.5 323.5c-.25 2.174-1.25 3.841-3 5 .25-2.174 1.25-3.841 3-5Z"/>
    <path style="opacity:.078" fill="#282828" d="M44.5 324.5c1.406.473 2.073 1.473 2 3-1.406-.473-2.073-1.473-2-3Z"/>
    <path style="opacity:.176" fill="#373737" d="M171.5 324.5c1.406.473 2.073 1.473 2 3-1.406-.473-2.073-1.473-2-3Z"/>
    <path style="opacity:.008" fill="#1a1a1a" d="M99.5 325.5c1.508 1.681 2.508 3.681 3 6-1.884-.882-3.217-2.382-4-4.5.556-.383.89-.883 1-1.5Z"/>
    <path style="opacity:.008" fill="#121212" d="M164.5 326.5c.838.342 1.172 1.008 1 2-.667 0-1 .333-1 1-.838-.342-1.172-1.008-1-2 .667 0 1-.333 1-1Z"/>
    <path style="opacity:.008" fill="#191919" d="M37.5 326.5c1.695 2.035 3.028 4.368 4 7-.667 0-1 .333-1 1-2.085-2.184-3.085-4.851-3-8Z"/>
    <path style="opacity:.047" fill="#1d1d1d" d="M151.5 327.5c.838.342 1.172 1.008 1 2-.667 0-1 .333-1 1-.838-.342-1.172-1.008-1-2 .667 0 1-.333 1-1Z"/>
    <path style="opacity:.086" fill="#2b2b2a" d="M391.5 325.5c.271 1.88-.396 3.213-2 4 .16-1.653.826-2.986 2-4Z"/>
    <path style="opacity:.071" fill="#242424" d="M445.5 325.5c.271 1.88-.396 3.213-2 4 .16-1.653.826-2.986 2-4Z"/>
    <path style="opacity:.227" fill="#464646" d="M453.5 326.5c-.25 2.174-1.25 3.841-3 5 .25-2.174 1.25-3.841 3-5Z"/>
    <path style="opacity:.188" fill="#3b3b3b" d="M339.5 327.5c-.579 2.831-1.912 5.164-4 7 .579-2.831 1.912-5.164 4-7Z"/>
    <path style="opacity:.005" fill="#161616" d="M152.5 329.5c1.174 1.014 1.84 2.347 2 4-1.937.695-2.937-.305-3-3 .667 0 1-.333 1-1Z"/>
    <path style="opacity:.01" fill="#181818" d="M166.5 330.5c1.406.473 2.073 1.473 2 3-.896-1.006-1.562-1.006-2 0-.838-.342-1.172-1.008-1-2 .667 0 1-.333 1-1Z"/>
    <path style="opacity:.008" fill="#1e1e1d" d="M103.5 333.5c2.088 1.836 3.421 4.169 4 7-3.265-1.548-4.598-3.882-4-7Z"/>
    <path style="opacity:.004" fill="#1e1e18" d="M168.5 333.5c1.174 1.014 1.84 2.347 2 4h-1l-2-2c.838-.342 1.172-1.008 1-2Z"/>
    <path style="opacity:.043" fill="#292929" d="M441.5 333.5c-.16 1.653-.826 2.986-2 4-.271-1.88.396-3.213 2-4Z"/>
    <path style="opacity:.006" fill="#090909" d="M169.5 337.5c.333 1.333.667 1.333 1 0 .838.342 1.172 1.008 1 2-.667 0-1 .333-1 1l-2-1c-.172-.992.162-1.658 1-2Z"/>
    <path style="opacity:.145" fill="#303030" d="M177.5 335.5c1.406.473 2.073 1.473 2 3-1.406-.473-2.073-1.473-2-3Z"/>
    <path style="opacity:.141" fill="#323232" d="M313.5 335.5c-.25 2.174-1.25 3.841-3 5 .25-2.174 1.25-3.841 3-5Z"/>
    <path style="opacity:.141" fill="#313131" d="M387.5 333.5c-.579 2.831-1.912 5.164-4 7 .579-2.831 1.912-5.164 4-7Z"/>
    <path style="opacity:.007" fill="#181817" d="M41.5 333.5c2.218 2.613 3.885 5.613 5 9-.996.086-1.83-.248-2.5-1l-3.5-7c.667 0 1-.333 1-1Z"/>
    <path style="opacity:.157" fill="#333" d="M51.5 337.5c1.406.473 2.073 1.473 2 3-1.406-.473-2.073-1.473-2-3Z"/>
    <path style="opacity:.165" fill="#373737" d="M320.5 337.5c-.579 2.831-1.912 5.164-4 7 .579-2.831 1.912-5.164 4-7Z"/>
    <path style="opacity:.145" fill="#363635" d="M439.5 337.5c.073 1.527-.594 2.527-2 3-.073-1.527.594-2.527 2-3Z"/>
    <path style="opacity:.039" fill="#1f1f1f" d="M171.5 339.5c2.088 1.836 3.421 4.169 4 7h-1c-.333-1.333-.667-1.333-1 0-.838-.342-1.172-1.008-1-2-.838-.342-1.172-1.008-1-2-.838-.342-1.172-1.008-1-2 .667 0 1-.333 1-1Z"/>
    <path style="opacity:.008" fill="#1b1b1b" d="M46.5 342.5c1.841 2.349 3.174 5.015 4 8-2.23-1.576-3.897-3.743-5-6.5.556-.383.89-.883 1-1.5Z"/>
    <path style="opacity:.2" fill="#3f3f3e" d="M108.5 342.5c2.088 1.836 3.421 4.169 4 7-2.088-1.836-3.421-4.169-4-7Z"/>
    <path style="opacity:.118" fill="#2f2f2f" d="M444.5 342.5c.039 2.589-.961 4.589-3 6 .492-2.319 1.492-4.319 3-6Z"/>
    <path style="opacity:.004" fill="#0f0f0f" d="M173.5 346.5h1c.333 1.333.667 1.333 1 0 .838.342 1.172 1.008 1 2 .838.342 1.172 1.008 1 2-.667 0-1 .333-1 1l-2-1-1-4Z"/>
    <path style="opacity:.208" fill="#3d3d3d" d="M382.5 342.5c-.492 2.319-1.492 4.319-3 6-.039-2.589.961-4.589 3-6Z"/>
    <path style="opacity:.129" fill="#30302f" d="M160.5 346.5h1c1.75 1.159 2.75 2.826 3 5a21.614 21.614 0 0 1-4-5Z"/>
    <path style="opacity:.149" fill="#343434" d="M119.5 347.5c1.406.473 2.073 1.473 2 3-1.406-.473-2.073-1.473-2-3Z"/>
    <path style="opacity:.153" fill="#363637" d="M433.5 348.5c-.25 2.174-1.25 3.841-3 5 .25-2.174 1.25-3.841 3-5Z"/>
    <path style="opacity:.035" fill="#1e1e1e" d="M177.5 350.5c.838.342 1.172 1.008 1 2-.667 0-1 .333-1 1-.838-.342-1.172-1.008-1-2 .667 0 1-.333 1-1Z"/>
    <path style="opacity:.012" fill="#1e1e1d" d="M50.5 350.5c2.088 1.836 3.421 4.169 4 7-2.202-1.292-3.868-3.126-5-5.5.556-.383.89-.883 1-1.5Z"/>
    <path style="opacity:.004" fill="#1b1b1a" d="M178.5 352.5c1.406.473 2.073 1.473 2 3-.897-1.098-1.73-1.098-2.5 0a2.428 2.428 0 0 1-.5-2c.667 0 1-.333 1-1Z"/>
    <path style="opacity:.969" fill="#8b8b89" d="M371.5 347.5c-1.435 5.798-4.102 10.798-8 15a54.107 54.107 0 0 1 8-15Z"/>
    <path style="opacity:.051" fill="#282828" d="M312.5 352.5c.073 1.527-.594 2.527-2 3-.073-1.527.594-2.527 2-3Z"/>
    <path style="opacity:.173" fill="#343433" d="M440.5 350.5c-.579 2.831-1.912 5.164-4 7 .579-2.831 1.912-5.164 4-7Z"/>
    <path style="opacity:.004" d="M312.5 356.5v2c-1.425 1.531-2.091 1.198-2-1l2-1Z"/>
    <path style="opacity:.086" fill="#292929" d="M166.5 355.5c1.406.473 2.073 1.473 2 3-1.406-.473-2.073-1.473-2-3Z"/>
    <path style="opacity:.004" fill="#141414" d="M179.5 357.5h1c.333 1.333.667 1.333 1 0 .838.342 1.172 1.008 1 2 .901.79 1.568 1.79 2 3-.992-.172-1.658.162-2 1-1.508-1.681-2.508-3.681-3-6Z"/>
    <path style="opacity:.078" fill="#2c2c2c" d="M324.5 354.5c.271 1.88-.396 3.213-2 4 .16-1.653.826-2.986 2-4Z"/>
    <path style="opacity:.118" fill="#282828" d="M62.5 357.5c1.406.473 2.073 1.473 2 3-1.406-.473-2.073-1.473-2-3Z"/>
    <path style="opacity:.11" fill="#323232" d="M428.5 357.5c-.492 2.319-1.492 4.319-3 6-.039-2.589.961-4.589 3-6Z"/>
    <path style="opacity:.098" fill="#282828" d="M125.5 358.5c1.406.473 2.073 1.473 2 3-1.406-.473-2.073-1.473-2-3Z"/>
    <path style="opacity:.169" fill="#363636" d="M190.5 359.5c1.406.473 2.073 1.473 2 3-1.406-.473-2.073-1.473-2-3Z"/>
    <path style="opacity:.102" fill="#282828" d="M118.5 361.5c1.406.473 2.073 1.473 2 3-1.548-.321-2.215-1.321-2-3Z"/>
    <path style="opacity:.004" d="M307.5 363.5c.904.709 1.237 1.709 1 3l-2 1 1-4Z"/>
    <path style="opacity:.973" fill="#757575" d="M55.5 359.5c2.938 2.203 4.605 5.203 5 9a68.814 68.814 0 0 0-5-5.5c-.299-1.073-.299-2.24 0-3.5Z"/>
    <path style="opacity:.005" fill="#1e130f" d="m182.5 363.5 2 1c-.039 1.724.294 2.057 1 1 1.406.473 2.073 1.473 2 3-.838.342-1.172 1.008-1 2-2.088-1.836-3.421-4.169-4-7Z"/>
    <path style="opacity:.059" fill="#212121" d="M120.5 364.5c1.174 1.014 1.84 2.347 2 4-2.262-.845-2.929-2.178-2-4Z"/>
    <path style="opacity:.035" fill="#252525" d="M170.5 364.5h1c1.826 1.647 3.16 3.647 4 6a16.635 16.635 0 0 1-5-6Z"/>
    <path style="opacity:.118" fill="#323232" d="M305.5 364.5v3c-.667 0-1 .333-1 1h-1c.16-1.653.826-2.986 2-4Z"/>
    <path style="opacity:.004" d="M305.5 367.5h1c-.532 2.96-1.199 3.293-2 1 .667 0 1-.333 1-1Z"/>
    <path style="opacity:.016" fill="#1d1d1a" d="M60.5 368.5c1.174 1.014 1.84 2.347 2 4-2.262-.845-2.929-2.178-2-4Z"/>
    <path style="opacity:.007" fill="#1d1d1c" d="M123.5 370.5c1.75 1.159 2.75 2.826 3 5-2.584-.548-3.584-2.215-3-5Z"/>
    <path style="opacity:.145" fill="#373737" d="M196.5 370.5c1.75 1.159 2.75 2.826 3 5-1.75-1.159-2.75-2.826-3-5Z"/>
    <path style="opacity:.18" fill="#3b3b37" d="M315.5 370.5c-.25 2.174-1.25 3.841-3 5 .25-2.174 1.25-3.841 3-5Z"/>
    <path style="opacity:.149" fill="#353535" d="M367.5 369.5c.039 2.589-.961 4.589-3 6 .492-2.319 1.492-4.319 3-6Z"/>
    <path style="opacity:.125" fill="#2f2f2f" d="M132.5 371.5c1.406.473 2.073 1.473 2 3-1.406-.473-2.073-1.473-2-3Z"/>
    <path style="opacity:.094" fill="#262626" d="M183.5 370.5c1.174 1.014 1.84 2.347 2 4-1.604-.787-2.271-2.12-2-4Z"/>
    <path style="opacity:.004" fill="#151515" d="M298.5 377.5c-.073-1.527.594-2.527 2-3 .333 1.333.667 1.333 1 0 2.04-.975 2.373-.308 1 2a55.78 55.78 0 0 0-4 1Z"/>
    <path style="opacity:.01" fill="#161616" d="M62.5 372.5c1.174 1.014 1.84 2.347 2 4-2.35-.695-3.017-2.028-2-4Z"/>
    <path style="opacity:.169" fill="#343434" d="M70.5 372.5c1.406.473 2.073 1.473 2 3-1.406-.473-2.073-1.473-2-3Z"/>
    <path style="opacity:.153" fill="#2d2d2d" d="M176.5 372.5c1.75 1.159 2.75 2.826 3 5a37.829 37.829 0 0 0-4-3.5c.556-.383.889-.883 1-1.5Z"/>
    <path style="opacity:.005" fill="#1b1b1b" d="M188.5 374.5h1c.333 1.333.667 1.333 1 0 1.406.473 2.073 1.473 2 3-.897-1.098-1.73-1.098-2.5 0-1.039-.744-1.539-1.744-1.5-3Z"/>
    <path style="opacity:.008" d="M64.5 377.5c-.667.667-.667.667 0 0Z"/>
    <path style="opacity:.008" fill="#1f1f1f" d="M65.5 377.5c1.507 1.681 2.507 3.681 3 6-2.469-1.107-3.469-3.107-3-6Z"/>
    <path style="opacity:.125" fill="#363636" d="M425.5 377.5c.271 1.88-.396 3.213-2 4 .16-1.653.826-2.986 2-4Z"/>
    <path style="opacity:.005" fill="#161616" d="M127.5 377.5c2.223 2.644 3.889 5.644 5 9-3.581-2.177-5.248-5.177-5-9Z"/>
    <path style="opacity:.007" fill="#0d0d0d" d="M192.5 381.5h1c.333 1.333.667 1.333 1 0 1.174 1.014 1.84 2.347 2 4-.667 0-1 .333-1 1-1.75-1.159-2.75-2.826-3-5Z"/>
    <path style="opacity:.208" fill="#3b3b3b" d="M363.5 377.5c-.492 2.319-1.492 4.319-3 6-.039-2.589.961-4.589 3-6Z"/>
    <path style="opacity:.004" d="M428.5 382.5c1.333.667 1.333.667 0 0Z"/>
    <path style="opacity:.149" fill="#313131" d="M138.5 382.5c1.406.473 2.073 1.473 2 3-1.406-.473-2.073-1.473-2-3Z"/>
    <path style="opacity:.176" fill="#323232" d="M76.5 383.5c1.406.473 2.073 1.473 2 3-1.406-.473-2.073-1.473-2-3Z"/>
    <path style="opacity:.007" fill="#121212" d="M196.5 385.5c.838.342 1.172 1.008 1 2-.667 0-1 .333-1 1-.838-.342-1.172-1.008-1-2 .667 0 1-.333 1-1Z"/>
    <path style="opacity:.145" fill="#3d3d3d" d="M352.5 382.5c-.579 2.831-1.912 5.164-4 7 .579-2.831 1.912-5.164 4-7Z"/>
    <path style="opacity:.067" fill="#1d1d1a" d="M132.5 386.5c1.841 2.349 3.174 5.015 4 8a50.725 50.725 0 0 1-5-6.5c.556-.383.889-.883 1-1.5Z"/>
    <path style="opacity:.007" fill="#1e1e1e" d="M70.5 387.5c2.088 1.836 3.421 4.169 4 7-.996.086-1.83-.248-2.5-1a20.093 20.093 0 0 1-1.5-6Z"/>
    <path style="opacity:.004" fill="#1a1a1a" d="M199.5 390.5c1.174 1.014 1.84 2.347 2 4-1.527.073-2.527-.594-3-2 .838-.342 1.172-1.008 1-2Z"/>
    <path style="opacity:.086" fill="#2d2c27" d="M291.5 390.5c.271 1.88-.396 3.213-2 4 .16-1.653.826-2.986 2-4Z"/>
    <path style="opacity:.11" fill="#313130" d="M347.5 391.5c-.492 2.319-1.492 4.319-3 6-.039-2.589.961-4.589 3-6Z"/>
    <path style="opacity:.004" d="M4.5 394.5c1.333.667 1.333.667 0 0Z"/>
    <path style="opacity:.122" fill="#2f2f2c" d="M81.5 392.5c1.75 1.159 2.75 2.826 3 5-1.75-1.159-2.75-2.826-3-5Z"/>
    <path style="opacity:.29" fill="#3a3a39" d="M192.5 391.5a19.602 19.602 0 0 1 2 3.5c-1.624 2.019-2.957 1.852-4-.5 1.548-.321 2.215-1.321 2-3Z"/>
    <path style="opacity:.325" fill="#3c3c3a" d="M298.5 390.5a8.43 8.43 0 0 0 .5 4c.383-.556.883-.889 1.5-1-.184 2.673-1.351 3.34-3.5 2-.203-1.891.297-3.557 1.5-5Z"/>
    <path style="opacity:.118" fill="#31312f" d="M409.5 392.5c-.492 2.319-1.492 4.319-3 6-.039-2.589.961-4.589 3-6Z"/>
    <path style="opacity:.102" fill="#303030" d="M144.5 393.5c1.604.787 2.271 2.12 2 4-1.174-1.014-1.84-2.347-2-4Z"/>
    <path style="opacity:.006" fill="#181818" d="M136.5 396.5c2.853 1.333 4.519 3.666 5 7-2.39-1.767-4.057-4.1-5-7Z"/>
    <path style="opacity:.231" fill="#41403f" d="M75.5 396.5c2.088 1.836 3.421 4.169 4 7h-1a32.517 32.517 0 0 1-3-7Z"/>
    <path style="opacity:.114" fill="#373737" d="M353.5 395.5c.271 1.88-.396 3.213-2 4 .16-1.653.826-2.986 2-4Z"/>
    <path style="opacity:.176" fill="#3b3e3e" d="M415.5 396.5c-.492 2.319-1.492 4.319-3 6-.039-2.589.961-4.589 3-6Z"/>
    <path style="opacity:.133" fill="#2e2e2d" d="M204.5 400.5c1.75 1.159 2.75 2.826 3 5a37.829 37.829 0 0 0-4-3.5c.556-.383.889-.883 1-1.5Z"/>
    <path style="opacity:.129" fill="#363636" d="M286.5 399.5c.039 2.589-.961 4.589-3 6 .492-2.319 1.492-4.319 3-6Z"/>
    <path style="opacity:.004" d="M78.5 403.5c-.667.667-.667.667 0 0ZM479.5 403.5c1.333.667 1.333.667 0 0Z"/>
    <path style="opacity:.071" fill="#292929" d="M341.5 402.5c-.16 1.653-.826 2.986-2 4-.271-1.88.396-3.213 2-4Z"/>
    <path style="opacity:.007" fill="#1c1c1c" d="M142.5 405.5c2.088 1.836 3.421 4.169 4 7-3.121-1.236-4.455-3.569-4-7Z"/>
    <path style="opacity:.133" fill="#30302c" d="M215.5 405.5c1.406.473 2.073 1.473 2 3-1.406-.473-2.073-1.473-2-3Z"/>
    <path style="opacity:.125" fill="#333332" d="M275.5 405.5c-.25 2.174-1.25 3.841-3 5 .25-2.174 1.25-3.841 3-5Z"/>
    <path style="opacity:.125" fill="#2a2a2a" d="M339.5 406.5c.073 1.527-.594 2.527-2 3-.073-1.527.594-2.527 2-3Z"/>
    <path style="opacity:.161" fill="#353535" d="M89.5 407.5c1.406.473 2.073 1.473 2 3-1.406-.473-2.073-1.473-2-3Z"/>
    <path style="opacity:.102" fill="#333" d="M349.5 403.5c-.579 2.831-1.912 5.164-4 7 .579-2.831 1.912-5.164 4-7Z"/>
    <path style="opacity:.184" fill="#313131" d="M209.5 409.5c2.088 1.836 3.421 4.169 4 7a68.87 68.87 0 0 0-5-5.5c.556-.383.889-.883 1-1.5Z"/>
    <path style="opacity:.18" fill="#383836" d="M281.5 409.5c-.25 2.174-1.25 3.841-3 5 .25-2.174 1.25-3.841 3-5Z"/>
    <path style="opacity:.004" d="M83.5 412.5c-.667.667-.667.667 0 0Z"/>
    <path style="opacity:.118" fill="#282825" d="M84.5 413.5c1.406.473 2.073 1.473 2 3-1.548-.321-2.215-1.321-2-3Z"/>
    <path style="opacity:.98" fill="#868686" d="M401.5 407.5c-.418 3.849-2.085 6.849-5 9 .91-3.492 2.576-6.492 5-9Z"/>
    <path style="opacity:.004" fill="#2b2b29" d="M146.5 412.5c2.424 2.508 4.09 5.508 5 9-3.613-2.244-5.28-5.244-5-9Z"/>
    <path style="opacity:.004" fill="#1d1d1c" d="M86.5 416.5c1.174 1.014 1.84 2.347 2 4-1.677-.683-2.343-2.017-2-4Z"/>
    <path style="opacity:.059" fill="#303030" d="M269.5 416.5c-.16 1.653-.826 2.986-2 4-.271-1.88.396-3.213 2-4Z"/>
    <path style="opacity:.145" fill="#323232" d="M157.5 417.5c1.406.473 2.073 1.473 2 3-1.406-.473-2.073-1.473-2-3ZM333.5 417.5c.073 1.527-.594 2.527-2 3-.073-1.527.594-2.527 2-3Z"/>
    <path style="opacity:.004" fill="#242422" d="M341.5 418.5c.073 1.527-.594 2.527-2 3-.073-1.527.594-2.527 2-3Z"/>
    <path style="opacity:.239" fill="#474745" d="M214.5 418.5c2.039 1.411 3.039 3.411 3 6-1.508-1.681-2.508-3.681-3-6Z"/>
    <path style="opacity:.153" fill="#333" d="M395.5 418.5c.073 1.527-.594 2.527-2 3-.073-1.527.594-2.527 2-3Z"/>
    <path style="opacity:.004" d="M227.5 421.5c1.333.667 1.333.667 0 0Z"/>
    <path style="opacity:.122" fill="#282828" d="M159.5 420.5c1.174 1.014 1.84 2.347 2 4-1.604-.787-2.271-2.12-2-4Z"/>
    <path style="opacity:.004" d="M261.5 423.5c1.333.667 1.333.667 0 0Z"/>
    <path style="opacity:.122" fill="#222" d="M331.5 420.5c.271 1.88-.396 3.213-2 4 .16-1.653.826-2.986 2-4Z"/>
    <path style="opacity:.106" fill="#222221" d="M393.5 421.5c.271 1.88-.396 3.213-2 4 .16-1.653.826-2.986 2-4Z"/>
    <path style="opacity:.18" fill="#3a3a39" d="M401.5 422.5c-.25 2.174-1.25 3.841-3 5 .25-2.174 1.25-3.841 3-5Z"/>
    <path style="opacity:.004" fill="#1e1e1c" d="M151.5 421.5c2.271 2.112 3.604 4.779 4 8-3.037-2.071-4.371-4.737-4-8Z"/>
    <path style="opacity:.137" fill="#2c2c2c" d="M89.5 422.5c2.424 2.508 4.09 5.508 5 9-2.245-.041-2.912-.875-2-2.5-1.671-1.843-2.671-4.009-3-6.5Z"/>
    <path style="opacity:.004" fill="#161616" d="M217.5 424.5c.904.709 1.237 1.709 1 3a2.428 2.428 0 0 1-2-.5c.752-.671 1.086-1.504 1-2.5Z"/>
    <path style="opacity:.407" fill="#61615f" d="M267.5 421.5a64.9 64.9 0 0 0-2 19c-1.148-4.481-1.315-9.148-.5-14 .099-2.153.933-3.819 2.5-5Z"/>
    <path style="opacity:.106" fill="#222" d="M156.5 431.5c1.75 1.159 2.75 2.826 3 5-2.547-1.121-3.547-2.788-3-5Z"/>
    <path style="opacity:.122" fill="#333335" d="M334.5 430.5c.039 2.589-.961 4.589-3 6 .492-2.319 1.492-4.319 3-6Z"/>
    <path style="opacity:.114" fill="#313130" d="M325.5 432.5c.073 1.527-.594 2.527-2 3-.073-1.527.594-2.527 2-3Z"/>
    <path style="opacity:.005" fill="#1c1c1c" d="M94.5 431.5c2.088 1.836 3.421 4.169 4 7-.617.111-1.117.444-1.5 1a60.756 60.756 0 0 0-3.5-6.5c.556-.383.89-.883 1-1.5Z"/>
    <path style="opacity:.004" d="M238.5 437.5c1.333.667 1.333.667 0 0Z"/>
    <path style="opacity:.118" fill="#363635" d="M394.5 435.5c.073 1.527-.594 2.527-2 3-.073-1.527.594-2.527 2-3Z"/>
    <path style="opacity:.122" fill="#303030" d="M160.5 438.5c2.088 1.836 3.421 4.169 4 7a68.87 68.87 0 0 0-5-5.5c.556-.383.889-.883 1-1.5Z"/>
    <path style="opacity:.184" fill="#515151" d="M331.5 436.5c-.91 3.492-2.576 6.492-5 9 .646-3.703 2.312-6.703 5-9Z"/>
    <path style="opacity:.055" fill="#1c1c1b" d="M99.5 440.5c1.508 1.681 2.508 3.681 3 6-2.71-1.414-3.71-3.414-3-6Z"/>
    <path style="opacity:.18" fill="#363635" d="M319.5 443.5c.073 1.527-.594 2.527-2 3-.073-1.527.594-2.527 2-3Z"/>
    <path style="opacity:.004" d="M394.5 446.5c1.333.667 1.333.667 0 0Z"/>
    <path style="opacity:.071" fill="#2a2a29" d="M102.5 446.5c1.406.473 2.073 1.473 2 3-2.324-.377-2.991-1.377-2-3Z"/>
    <path style="opacity:.169" fill="#333" d="M173.5 446.5c1.406.473 2.073 1.473 2 3-1.406-.473-2.073-1.473-2-3Z"/>
    <path style="opacity:.18" fill="#333330" d="M215.5 446.5c.073 1.527-.594 2.527-2 3-.073-1.527.594-2.527 2-3Z"/>
    <path style="opacity:.008" fill="#1b1b1b" d="M267.5 446.5c1.174 1.014 1.84 2.347 2 4-1.676-.683-2.343-2.017-2-4Z"/>
    <path style="opacity:.165" fill="#2e2e2b" d="M317.5 446.5c.073 1.527-.594 2.527-2 3-.073-1.527.594-2.527 2-3Z"/>
    <path style="opacity:.078" fill="#343433" d="M388.5 446.5c.073 1.527-.594 2.527-2 3-.073-1.527.594-2.527 2-3Z"/>
    <path style="opacity:.192" fill="#32322f" d="M212.5 450.5c-1.085 2.087-2.751 3.42-5 4 1.085-2.087 2.751-3.42 5-4Z"/>
    <path style="opacity:.016" fill="#292929" d="M221.5 450.5c.073 1.527-.594 2.527-2 3-.073-1.527.594-2.527 2-3Z"/>
    <path style="opacity:.09" fill="#242424" d="M104.5 449.5c1.508 1.681 2.508 3.681 3 6-2.582-1.489-3.582-3.489-3-6Z"/>
    <path style="opacity:.004" fill="#272727" d="M280.5 452.5c1.527-.073 2.527.594 3 2-1.527.073-2.527-.594-3-2Z"/>
    <path style="opacity:.098" fill="#31312f" d="M386.5 449.5c.271 1.88-.396 3.213-2 4 .16-1.653.826-2.986 2-4Z"/>
    <path style="opacity:.004" d="M470.5 452.5c1.333.667 1.333.667 0 0Z"/>
    <path style="opacity:.004" fill="#21211e" d="M166.5 449.5c1.745 1.533 2.745 3.533 3 6-1.879-1.395-2.879-3.395-3-6Z"/>
    <path style="opacity:.149" fill="#323232" d="M114.5 453.5c1.406.473 2.073 1.473 2 3-1.406-.473-2.073-1.473-2-3Z"/>
    <path style="opacity:.008" fill="#272726" d="M272.5 454.5c1.667 1 3 2.333 4 4-2.333-.333-3.667-1.667-4-4Z"/>
    <path style="opacity:.329" fill="#474747" d="M182.5 455.5c2.286.095 4.286.762 6 2-2.398.241-4.398-.426-6-2Z"/>
    <path style="opacity:.243" fill="#333332" d="M285.5 455.5c1.903.296 3.57.963 5 2-2.198.38-3.865-.287-5-2Z"/>
    <path style="opacity:.733" fill="#4c4c4a" d="M207.5 454.5c-.953 2.11-2.619 3.277-5 3.5-4.852.815-9.519.648-14-.5a72.367 72.367 0 0 0 12-.5c2.431-.295 4.264-1.462 5.5-3.5.383.556.883.889 1.5 1Z"/>
    <path style="opacity:.008" fill="#171717" d="M301.5 457.5c-3.667 1.333-7.333 1.333-11 0 3.878-.195 7.544-.195 11 0Z"/>
    <path style="opacity:.999" fill="#c3c3c2" d="M162.5 473.5c-1.208.734-2.541 1.067-4 1a12.066 12.066 0 0 1-4-3c.073-1.527-.594-2.527-2-3 .237-1.291-.096-2.291-1-3-1.135-2.245-1.635-4.578-1.5-7 1.466-1.825 3.299-2.325 5.5-1.5 4.549 4.889 6.882 10.389 7 16.5Z"/>
    <path style="opacity:.999" fill="#dddddc" d="M334.5 458.5h5v5c.172.992-.162 1.658-1 2-1.174 1.014-1.84 2.347-2 4v2h-1c-1.406.473-2.073 1.473-2 3-4 .667-5.667-1-5-5 1.242-4.155 3.242-7.822 6-11Z"/>
    <path style="opacity:.165" fill="#2e2e2e" d="M108.5 457.5c2.088 1.836 3.421 4.169 4 7a81.338 81.338 0 0 0-5-5.5c.556-.383.889-.883 1-1.5Z"/>
    <path style="opacity:.929" fill="#7b7a79" d="M377.5 451.5c-.418 3.849-2.085 6.849-5 9 .91-3.492 2.576-6.492 5-9Z"/>
    <path style="opacity:.161" fill="#373737" d="M382.5 457.5c-.25 2.174-1.25 3.841-3 5 .25-2.174 1.25-3.841 3-5Z"/>
    <path style="opacity:.004" fill="#161615" d="M142.5 461.5v4c-.838.342-1.172 1.008-1 2-.934-1.272-1.601-2.772-2-4.5.394-2.28 1.394-2.78 3-1.5Z"/>
    <path style="opacity:.835" fill="#7f7f7e" d="M339.5 463.5v-5h-5c.462-1.38 1.462-2.047 3-2 4.35 1.378 5.017 3.711 2 7Z"/>
    <path style="opacity:.133" fill="#31312d" d="M211.5 460.5c-2.692 2.681-6.025 4.014-10 4a87.673 87.673 0 0 1 10-4Z"/>
    <path style="opacity:.004" fill="#191919" d="M309.5 463.5c-1.333.333-1.333.667 0 1v1c-1.637.718-3.303.884-5 .5 2.597-.779 2.597-1.279 0-1.5 1.619-1.738 3.619-2.238 6-1.5-.228.399-.562.565-1 .5Z"/>
    <path style="opacity:.216" fill="#3e3e3d" d="M183.5 463.5a132.596 132.596 0 0 0 18 1c-2.141.663-4.475.997-7 1-3.947.137-7.614-.53-11-2Z"/>
    <path style="opacity:.561" fill="#5b5b5b" d="M317.5 462.5a6.846 6.846 0 0 1-1 4l2 2a185.977 185.977 0 0 0-2 3c-.652-.949-.986-2.115-1-3.5-.107-2.221.56-4.054 2-5.5Z"/>
    <path style="opacity:.075" fill="#2f2f2f" d="m149.5 464.5 2 1v3c-1.174-1.014-1.84-2.347-2-4Z"/>
    <path style="opacity:.102" fill="#333" d="M370.5 464.5c-.16 1.653-.826 2.986-2 4-.271-1.88.396-3.213 2-4Z"/>
    <path style="opacity:.063" fill="#24241f" d="M142.5 466.5c1.174 1.014 1.84 2.347 2 4a6.547 6.547 0 0 1-3-3c.667 0 1-.333 1-1Z"/>
    <path style="opacity:.059" fill="#252525" d="M338.5 465.5v3l-2 1c.16-1.653.826-2.986 2-4Z"/>
    <path style="opacity:.231" fill="#434341" d="M377.5 466.5c-.579 2.831-1.912 5.164-4 7 .579-2.831 1.912-5.164 4-7Z"/>
    <path style="opacity:.004" d="M214.5 469.5c1.333.667 1.333.667 0 0Z"/>
    <path style="opacity:.192" fill="#3a3a3a" d="M113.5 466.5c2.088 1.836 3.421 4.169 4 7-2.442-1.621-3.775-3.954-4-7Z"/>
    <path style="opacity:.031" fill="#202020" d="M144.5 470.5c.838.342 1.172 1.008 1 2-.667 0-1 .333-1 1-1.125-.848-1.125-1.848 0-3Z"/>
    <path style="opacity:.012" fill="#272727" d="M335.5 471.5v2l-2 1c-.073-1.527.594-2.527 2-3Z"/>
    <path style="opacity:.651" fill="#5a5a5a" d="M125.5 472.5c1.667 1 3 2.333 4 4-2.333-.333-3.667-1.667-4-4Z"/>
    <path style="opacity:.004" d="M68.5 474.5c1.333.667 1.333.667 0 0ZM117.5 474.5c-.667.667-.667.667 0 0Z"/>
    <path style="opacity:.005" fill="#2d2d2c" d="M328.5 469.5c-.667 4 1 5.667 5 5v3c-1.406.473-2.073 1.473-2 3h-1v-5h-5a20.514 20.514 0 0 0 3-6Z"/>
    <path style="opacity:.007" fill="#171717" d="M145.5 472.5c2.424 2.508 4.09 5.508 5 9-2.586-1.138-4.253-3.138-5-6-.838-.342-1.172-1.008-1-2 .667 0 1-.333 1-1Z"/>
    <path style="opacity:.997" fill="#eaeae8" d="M165.5 475.5c.951 1.419 1.284 3.085 1 5h-1c-4 .667-5.667-1-5-5h5Z"/>
    <path style="opacity:.999" fill="#e6e6e4" d="M325.5 475.5h5v5c-2.121.175-4.121-.159-6-1-.268-1.599.066-2.932 1-4Z"/>
    <path style="opacity:.078" fill="#2c2c2c" d="M373.5 473.5c.073 1.527-.594 2.527-2 3-.073-1.527.594-2.527 2-3Z"/>
    <path style="opacity:.004" fill="#1e1e1e" d="M118.5 475.5a6.547 6.547 0 0 1 3 3c-2 0-3-1-3-3Z"/>
    <path style="opacity:.102" fill="#363636" d="M310.5 475.5c1.508 1.681 2.508 3.681 3 6-2.039-1.411-3.039-3.411-3-6Z"/>
    <path style="opacity:.122" fill="#2a2a2a" d="M344.5 474.5c-.25 2.174-1.25 3.841-3 5 .25-2.174 1.25-3.841 3-5Z"/>
    <path style="opacity:.004" d="M388.5 476.5c1.333.667 1.333.667 0 0Z"/>
    <path style="opacity:.384" fill="#4e4e4d" d="m162.5 473.5 3 2h-5c-.667 4 1 5.667 5 5 0 1.333-.667 2-2 2-1.171-.845-2.505-1.511-4-2-.743-2.196-1.076-4.196-1-6 1.459.067 2.792-.266 4-1Z"/>
    <path style="opacity:.153" fill="#3c3c3b" d="M180.5 475.5c-.055 3.114-1.388 5.448-4 7a36.077 36.077 0 0 1 4-7Z"/>
    <path style="opacity:.004" d="M399.5 479.5c1.333.667 1.333.667 0 0Z"/>
    <path style="opacity:.137" fill="#353535" d="M133.5 479.5c2.985.826 5.651 2.159 8 4-3.254-.294-5.921-1.627-8-4Z"/>
    <path style="opacity:.004" fill="#333" d="M321.5 479.5c1.298.616 2.298.616 3 0 1.879.841 3.879 1.175 6 1l-3 2c-2.467-.255-4.467-1.255-6-3Z"/>
    <path style="opacity:.016" fill="#232320" d="M123.5 480.5a6.547 6.547 0 0 1 3 3c-2 0-3-1-3-3Z"/>
    <path style="opacity:.165" fill="#313131" d="m157.5 479.5 2 1v2c-1.406-.473-2.073-1.473-2-3Z"/>
    <path style="opacity:.004" fill="#1b1b1b" d="M367.5 480.5c0 2-1 3-3 3a6.547 6.547 0 0 1 3-3Z"/>
    <path style="opacity:.004" d="M35.5 484.5c1.333.667 1.333.667 0 0Z"/>
    <path style="opacity:.2" fill="#323232" d="M150.5 481.5c.838.342 1.172 1.008 1 2 .543.06.876.393 1 1-3.931 1.381-7.598 1.047-11-1 2.047.011 4.047.344 6 1 1.873.018 2.206-.482 1-1.5.916-.278 1.582-.778 2-1.5Z"/>
    <path style="opacity:.004" d="M254.5 484.5c1.333.667 1.333.667 0 0Z"/>
    <path style="opacity:.22" fill="#4d4d4d" d="M339.5 483.5c1.765.961 3.765 1.295 6 1-2.193 1.297-4.527 1.297-7 0 .124-.607.457-.94 1-1Z"/>
    <path style="opacity:.004" d="M58.5 485.5c1.333.667 1.333.667 0 0Z"/>
    <path style="opacity:.145" fill="#343434" d="M361.5 485.5c-1.411 2.039-3.411 3.039-6 3 1.681-1.508 3.681-2.508 6-3Z"/>
    <path style="opacity:.004" d="M426.5 486.5c1.333.667 1.333.667 0 0Z"/>
    <path style="opacity:.098" fill="#353534" d="M171.5 486.5c-.787 1.604-2.12 2.271-4 2 1.014-1.174 2.347-1.84 4-2Z"/>
    <path style="opacity:.01" fill="#1a1a1a" d="M162.5 490.5c.709-.904 1.709-1.237 3-1-.304 2.296-1.304 2.629-3 1Z"/>
    <path style="opacity:.006" fill="#171717" d="M159.5 491.5c.709-.904 1.709-1.237 3-1a2.428 2.428 0 0 1-.5 2c-.671-.752-1.504-1.086-2.5-1Z"/>
    <path style="opacity:.859" fill="#9b9b9b" d="M323.5 488.5c8.857 1.804 17.857 2.471 27 2-1.068.934-2.401 1.268-4 1h-14c-3.416-.028-6.416-1.028-9-3Z"/>
    <path style="opacity:.005" fill="#141413" d="M332.5 491.5h14c-2.469.817-5.135 1.317-8 1.5 3.914.897 3.748 1.397-.5 1.5-2.742.384-4.575-.616-5.5-3Z"/>
    <path style="opacity:.004" d="M151.5 494.5c.397-1.025 1.063-1.192 2-.5a2.428 2.428 0 0 1-2 .5Z"/>
</svg>
