<svg version="1.0" xmlns="http://www.w3.org/2000/svg" width="1206.7" height="1505.3" viewBox="0 0 905 1129"><g fill="#fff"><path d="M686 15a185 185 0 0 0-95 39l-38 30a228 228 0 0 0-59 62c-5 11-5 11-11 12-14 3-29 9-41 17-8 5-29 27-35 35-10 15-17 32-21 52-2 9-2 40 0 48 2 9 7 27 10 33a192 192 0 0 0 22 33 135 135 0 0 0 107 61c7 1 21 0 33-2 15-3 33-11 47-19 3-3 7-5 7-4l1 118 1 124c2 17 16 33 33 39 6 2 9 2 33 2 28 0 32 0 43-5 8-4 18-15 22-24 4-10 4-11 4-157V370l7-6 23-17 22-17A174 174 0 0 0 686 15zm44 16c41 8 73 28 100 62 19 25 31 62 31 95 0 30-10 62-28 89a246 246 0 0 1-54 51l-25 20-23 17a160 160 0 0 1-93 25l-3-1 3-7c11-16 16-29 18-48 4-23 0-45-11-67-5-11-17-28-44-62a119 119 0 0 0-95-50l13-20c11-15 21-24 59-53l16-12c21-16 24-18 39-26l21-9c22-7 51-8 76-4zM535 174c27 9 39 19 63 51l15 18 15 22c10 16 15 33 15 54 0 16-3 28-10 43-16 35-55 59-97 61-33 1-63-10-88-33-10-10-30-36-36-48-28-53-13-118 35-153a95 95 0 0 1 63-19c14 1 16 1 25 4zm199 339v132h-53c-47 0-53 0-53-2V406c0-2 2-2 12-1a180 180 0 0 0 91-23c3-4 3-5 3 131zm-3 148c0 3-7 11-12 14-7 5-11 6-38 6-24 0-31-1-36-4-4-2-10-9-13-13l-2-4h50l51 1z"/><path d="M730 104c-6 2-8 4-41 25-27 18-31 23-31 40 0 8 0 11 2 14 6 13 19 21 34 21 6 0 14-4 30-14l8-5 16-11c17-12 21-15 25-23 2-5 2-7 2-15l-1-13c-4-9-12-16-21-19-6-3-17-2-23 0zm18 13c7 1 14 11 14 20 0 8-3 12-16 21a323 323 0 0 1-28 18c-19 12-20 13-25 13-8 0-11-1-16-5-7-8-8-20-1-28l14-11a2057 2057 0 0 0 44-28c5-2 7-2 14 0zM441 269c-6 3-11 7-14 13-2 5-2 7-2 18 0 10 0 13 3 21 4 12 11 26 18 35 19 23 39 35 54 32 6-1 7-2 11-6 7-7 8-12 8-23 0-14-4-29-14-46-6-10-19-25-28-32s-15-10-23-12h-13zm18 17c9 5 15 10 25 21 14 18 24 45 21 58-2 7-4 9-10 9-9 0-23-9-33-21-12-15-19-29-22-43-3-13-2-22 3-26 3-2 11-1 16 2zM313 444a193 193 0 0 0-77 29 326 326 0 0 0-37 29l-34 29c-16 14-28 29-37 45-5 9-6 11-9 12l-12 5a140 140 0 0 0-80 123 141 141 0 0 0 115 146 136 136 0 0 0 103-27c2-1 2 15 2 118l1 126c1 9 6 18 14 26 12 12 21 14 59 14 25 0 35-1 43-4 16-5 28-21 30-38a9158 9158 0 0 0 2-303 458 458 0 0 1 32-27l34-32 13-19c5-7 15-28 17-34l2-7c8-25 9-61 1-88l-2-9c-2-8-11-26-18-37-21-34-62-63-102-73-20-5-46-6-60-4zm45 15a153 153 0 0 1 118 203c-4 12-9 20-17 32s-19 23-41 42l-19 15a364 364 0 0 1-18 18l-1 149v146h-59l-60-1V938c0-109 0-125-2-127-1-1-6-3-16-5a146 146 0 0 1-82-56 174 174 0 0 1-33-56l-2-8c-2-8-4-25-4-35 0-9 2-26 5-35l2-7c2-10 11-28 19-39 9-12 21-24 49-48a2040 2040 0 0 0 49-40c21-13 50-23 72-24 11-1 31 0 39 1zM114 609l-3 12c-3 13-3 47-1 59a215 215 0 0 0 9 30c7 19 22 41 46 66 17 19 42 34 66 42 7 2 7 3 3 6l-20 13c-19 8-43 13-60 11a123 123 0 0 1-91-54c-14-20-22-48-22-73a127 127 0 0 1 61-110c10-6 13-7 12-2zm265 470c1 3-5 13-8 16l-9 6-4 3h-37c-36 0-36 0-41-3-10-5-20-19-16-22a1186 1186 0 0 1 115 0z"/><path d="M314 553c-13 4-23 14-28 27-2 7-2 7-2 61 0 55 0 55 2 61 4 10 9 17 19 23 11 7 29 7 42 0 4-2 14-12 16-16l5-15V589c-2-11-4-17-10-24-5-5-13-10-21-13-5-1-17-1-23 1zm25 15c4 3 10 9 13 15l2 5v53c0 54 0 55-4 63-4 7-15 12-24 12-7 0-14-3-20-8-8-8-8-4-8-68v-56l3-4c4-5 6-8 11-11 7-4 20-4 27-1z"/></g></svg>