<?xml version="1.0" standalone="no"?>
<!DOCTYPE svg PUBLIC "-//W3C//DTD SVG 20010904//EN" "http://www.w3.org/TR/2001/REC-SVG-20010904/DTD/svg10.dtd">
<svg version="1.0" xmlns="http://www.w3.org/2000/svg" width="905.000000pt" height="1129.000000pt"
    viewBox="0 0 905.000000 1129.000000" preserveAspectRatio="xMidYMid meet">

    <g transform="translate(0.000000,1129.000000) scale(0.100000,-0.100000)" fill="#ffffff" stroke="none">
        <path d="M6855 11139 c-174 -21 -325 -57 -455 -108 -158 -63 -347 -173 -488
-284 -80 -63 -238 -184 -382 -293 -165 -124 -198 -152 -316 -269 -109 -109
-210 -241 -274 -360 -55 -102 -55 -102 -112 -114 -138 -29 -290 -94 -413 -175
-77 -51 -290 -263 -343 -342 -105 -157 -174 -327 -214 -524 -17 -86 -17 -405
0 -485 18 -82 76 -262 103 -321 25 -53 107 -196 117 -204 4 -3 50 -61 101
-130 199 -262 320 -366 571 -487 103 -50 322 -113 391 -113 22 0 72 -5 111
-11 72 -11 203 -2 328 22 150 30 330 104 465 192 38 25 73 43 77 41 4 -3 8
-535 8 -1182 1 -647 5 -1207 9 -1244 23 -173 159 -333 334 -391 56 -19 86 -21
327 -21 282 -1 324 4 425 55 85 42 182 148 223 243 42 96 42 103 42 1564 l0
1397 72 55 c40 30 140 107 223 170 82 64 182 140 220 169 280 214 441 400 565
656 54 111 89 200 111 283 5 17 14 49 19 70 48 176 63 463 36 652 -18 124 -24
150 -63 280 -61 204 -180 426 -313 585 -69 84 -238 240 -327 303 -55 40 -103
72 -106 72 -3 0 -34 17 -68 39 -67 40 -173 91 -189 91 -6 0 -18 4 -28 9 -47
26 -184 66 -312 91 -150 29 -331 37 -475 19z m448 -160 c410 -75 732 -276 999
-624 184 -241 308 -620 308 -942 0 -307 -101 -627 -283 -898 -67 -99 -282
-321 -382 -395 -33 -25 -62 -47 -65 -50 -3 -3 -41 -32 -85 -65 -44 -33 -156
-119 -250 -191 -93 -72 -197 -149 -231 -171 -160 -109 -366 -193 -565 -233
-60 -12 -344 -31 -366 -24 -7 2 -20 6 -28 9 -12 3 -6 19 29 74 105 164 152
287 181 481 35 233 -1 450 -112 675 -54 110 -175 279 -444 620 -174 220 -325
337 -549 423 -96 37 -266 71 -352 72 -27 0 -48 2 -48 5 0 9 92 148 132 199
112 142 212 231 588 521 25 19 99 76 165 127 206 160 231 176 390 256 111 55
111 55 210 87 218 72 509 89 758 44z m-1954 -1429 c268 -89 396 -192 636 -510
72 -95 135 -177 140 -184 29 -32 127 -168 157 -216 100 -160 148 -334 148
-537 0 -165 -26 -281 -96 -430 -166 -351 -551 -592 -974 -610 -333 -14 -630
97 -879 329 -102 96 -297 353 -363 478 -274 526 -126 1175 350 1528 90 67 170
107 288 147 114 38 165 44 339 40 147 -3 168 -6 254 -35z m1991 -3390 l0
-1320 -529 0 c-473 0 -530 2 -535 16 -8 20 -8 2357 0 2377 4 12 27 13 126 9
202 -8 453 34 658 111 64 24 231 104 245 118 35 35 35 47 35 -1311z m-30
-1482 c-1 -24 -71 -109 -116 -141 -72 -51 -112 -57 -384 -57 -239 0 -312 8
-364 37 -33 18 -101 91 -124 132 l-23 41 505 0 c398 0 506 -3 506 -12z" />
        <path d="M7295 10250 c-52 -20 -79 -37 -405 -249 -275 -179 -315 -230 -315
-401 1 -75 5 -105 22 -142 58 -125 192 -208 338 -208 62 0 140 36 301 140 38
25 74 49 79 53 6 4 79 53 162 108 176 115 216 151 251 228 22 48 26 70 26 151
0 65 -5 106 -16 130 -42 91 -119 163 -209 194 -61 22 -172 19 -234 -4z m181
-125 c72 -15 144 -115 144 -201 0 -82 -35 -128 -162 -214 -60 -41 -115 -77
-121 -80 -7 -3 -78 -49 -159 -102 -183 -121 -197 -128 -251 -128 -77 0 -108
11 -153 55 -78 77 -85 195 -16 277 15 17 79 65 142 106 63 41 176 115 250 165
74 50 160 101 190 113 51 21 67 22 136 9z" />
        <path d="M4414 8596 c-68 -25 -113 -66 -145 -131 -22 -45 -24 -62 -23 -170 1
-107 4 -130 32 -211 43 -124 115 -262 184 -349 185 -235 389 -357 543 -325 50
10 66 20 109 64 62 62 80 116 80 231 0 138 -47 288 -143 452 -61 106 -191 255
-284 325 -90 69 -145 98 -222 114 -70 16 -89 16 -131 0z m179 -168 c86 -47
143 -97 242 -213 145 -171 248 -444 215 -573 -17 -69 -43 -92 -102 -92 -91 0
-228 90 -328 215 -119 150 -192 288 -224 428 -30 128 -17 213 36 252 30 22
104 14 161 -17z" />
        <path d="M3125 6849 c-204 -35 -237 -43 -379 -90 -121 -40 -283 -122 -391
-197 -75 -52 -214 -159 -225 -172 -3 -3 -68 -60 -145 -125 -231 -196 -245
-207 -339 -288 -159 -138 -281 -286 -371 -452 -44 -82 -60 -102 -89 -111 -11
-4 -63 -26 -114 -50 -377 -176 -646 -505 -760 -929 -27 -101 -34 -160 -39
-301 -8 -206 12 -340 79 -539 80 -238 251 -481 443 -630 28 -22 52 -42 55 -45
28 -31 288 -170 319 -170 6 0 19 -4 29 -9 27 -15 151 -48 226 -62 172 -30 436
-8 621 54 131 43 365 167 389 206 4 6 14 11 22 11 12 0 14 -161 14 -1192 0
-680 4 -1221 10 -1257 13 -93 61 -184 135 -257 125 -122 211 -143 594 -144
256 0 348 8 431 38 155 55 281 216 301 385 4 39 8 736 9 1547 0 811 4 1480 8
1485 4 6 34 33 67 60 33 28 71 60 85 71 14 12 89 76 167 141 199 168 298 260
341 316 82 108 94 124 133 182 47 71 150 281 168 345 8 25 17 56 22 70 82 252
88 605 12 880 -8 30 -18 69 -23 85 -22 85 -106 265 -177 378 -209 334 -628
631 -1023 725 -203 49 -459 66 -605 41z m450 -154 c282 -52 478 -138 700 -305
125 -94 294 -281 369 -410 51 -85 124 -245 149 -325 23 -74 30 -102 57 -243
13 -70 13 -337 -1 -421 -19 -120 -42 -206 -86 -320 -46 -120 -89 -202 -170
-318 -82 -119 -196 -235 -413 -419 -96 -82 -180 -154 -186 -159 -6 -6 -47 -41
-91 -78 -44 -37 -85 -79 -92 -93 -8 -18 -11 -411 -11 -1490 l0 -1464 -592 2
-593 3 -3 1253 c-2 1088 -4 1255 -17 1268 -15 15 -62 30 -165 53 -274 62 -565
250 -766 496 -26 33 -51 62 -54 65 -38 35 -149 186 -191 260 -47 82 -67 124
-119 255 -5 11 -11 31 -15 45 -3 14 -12 48 -20 75 -23 85 -45 258 -45 356 0
86 25 260 50 352 5 20 14 52 19 70 26 98 114 274 189 382 91 129 208 242 493
480 27 22 133 111 236 199 104 87 220 179 258 204 207 134 496 234 715 246
112 6 312 -3 395 -19z m-2438 -1492 c-3 -16 -16 -71 -28 -123 -29 -128 -33
-470 -6 -595 18 -84 52 -206 66 -240 5 -11 15 -36 22 -55 68 -188 224 -414
454 -659 176 -187 426 -345 662 -417 70 -21 77 -35 36 -68 -29 -23 -163 -104
-203 -123 -188 -88 -425 -133 -599 -113 -221 25 -333 62 -521 171 -150 87
-285 215 -391 370 -136 200 -219 479 -219 733 1 264 72 494 226 726 102 154
212 260 381 366 99 62 129 69 120 27z m2649 -4708 c9 -23 -42 -120 -81 -154
-19 -16 -56 -42 -82 -58 l-48 -28 -365 0 c-364 0 -365 0 -410 24 -99 51 -199
189 -163 224 3 4 262 7 575 7 498 0 569 -2 574 -15z" />
        <path d="M3143 5765 c-135 -43 -236 -141 -285 -276 -23 -64 -23 -64 -23 -609
0 -545 0 -545 23 -609 38 -104 96 -176 190 -235 107 -66 294 -67 421 -1 42 21
144 125 162 165 33 72 38 87 48 151 14 85 14 961 1 1049 -17 109 -43 167 -105
237 -50 57 -126 105 -202 128 -58 18 -173 18 -230 0z m244 -158 c48 -25 105
-88 129 -144 l24 -54 0 -527 c0 -546 -1 -550 -42 -628 -38 -71 -144 -128 -238
-128 -73 0 -144 30 -195 81 -84 84 -80 46 -80 678 l0 560 29 45 c34 54 58 78
109 109 65 40 194 44 264 8z" />
    </g>
</svg>