<?xml version="1.0" encoding="utf-8"?>
<!DOCTYPE svg PUBLIC "-//W3C//DTD SVG 1.1//EN" "http://www.w3.org/Graphics/SVG/1.1/DTD/svg11.dtd">
<svg height="500px" style="shape-rendering:geometricPrecision; text-rendering:geometricPrecision; image-rendering:optimizeQuality; fill-rule:evenodd; clip-rule:evenodd" version="1.1" width="499px" xmlns="http://www.w3.org/2000/svg" xmlns:xlink="http://www.w3.org/1999/xlink">
<g><path d="M 482.5,8.5 C 483.833,9.16667 483.833,9.16667 482.5,8.5 Z" fill="#ffffff" style="opacity:0.004"/></g>
<g><path d="M 358.5,12.5 C 359.833,13.1667 359.833,13.1667 358.5,12.5 Z" fill="#ffffff" style="opacity:0.004"/></g>
<g><path d="M 117.5,17.5 C 128.401,15.7694 139.068,16.7694 149.5,20.5C 138.966,18.1894 128.299,17.1894 117.5,17.5 Z" fill="#ffffff" style="opacity:0.311"/></g>
<g><path d="M 419.5,16.5 C 420.833,17.1667 420.833,17.1667 419.5,16.5 Z" fill="#ffffff" style="opacity:0.004"/></g>
<g><path d="M 117.5,17.5 C 114.054,18.6874 110.387,19.3541 106.5,19.5C 109.845,17.783 113.511,17.1164 117.5,17.5 Z" fill="#ffffff" style="opacity:0.204"/></g>
<g><path d="M 117.5,17.5 C 128.299,17.1894 138.966,18.1894 149.5,20.5C 151.792,22.2671 154.458,23.2671 157.5,23.5C 159.426,25.2927 161.759,26.2927 164.5,26.5C 166.153,26.6596 167.486,27.3263 168.5,28.5C 170.426,30.2927 172.759,31.2927 175.5,31.5C 177.181,33.0075 179.181,34.0075 181.5,34.5C 183.426,36.2927 185.759,37.2927 188.5,37.5C 191.485,38.3257 194.151,39.659 196.5,41.5C 197.802,43.8218 199.802,45.1551 202.5,45.5C 203.262,47.2624 204.596,48.2624 206.5,48.5C 207.167,48.5 207.5,48.8333 207.5,49.5C 208.585,51.5869 210.251,52.9202 212.5,53.5C 215.101,57.7706 218.434,61.4372 222.5,64.5C 222.738,66.4044 223.738,67.7377 225.5,68.5C 226.338,68.8417 226.672,69.5084 226.5,70.5C 226.427,72.0269 227.094,73.0269 228.5,73.5C 228.427,75.0269 229.094,76.0269 230.5,76.5C 230.427,78.0269 231.094,79.0269 232.5,79.5C 233.674,80.5137 234.34,81.847 234.5,83.5C 234.66,85.153 235.326,86.4863 236.5,87.5C 237.674,88.5137 238.34,89.847 238.5,91.5C 238.402,93.5529 239.069,95.2196 240.5,96.5C 240.12,98.698 240.787,100.365 242.5,101.5C 243.434,102.568 243.768,103.901 243.5,105.5C 243.565,108.428 244.232,111.095 245.5,113.5C 246.083,122.155 246.416,130.822 246.5,139.5C 246.5,140.167 246.5,140.833 246.5,141.5C 244.87,145.911 243.87,150.578 243.5,155.5C 242.069,156.78 241.402,158.447 241.5,160.5C 239.326,163.515 237.659,166.849 236.5,170.5C 235.094,170.973 234.427,171.973 234.5,173.5C 232.738,174.262 231.738,175.596 231.5,177.5C 231.5,178.167 231.167,178.5 230.5,178.5C 229.5,178.833 228.833,179.5 228.5,180.5C 227.5,180.833 226.833,181.5 226.5,182.5C 224.833,183.5 223.5,184.833 222.5,186.5C 222.5,187.167 222.167,187.5 221.5,187.5C 219.596,187.738 218.262,188.738 217.5,190.5C 215.973,190.427 214.973,191.094 214.5,192.5C 214.158,193.338 213.492,193.672 212.5,193.5C 209.669,194.079 207.336,195.412 205.5,197.5C 204.22,198.931 202.553,199.598 200.5,199.5C 195.095,200.518 189.762,201.851 184.5,203.5C 184.957,204.298 185.624,204.631 186.5,204.5C 190.255,207.416 194.588,208.75 199.5,208.5C 203.054,209.984 206.888,210.651 211,210.5C 215.427,210.606 219.594,209.94 223.5,208.5C 228.044,208.541 232.044,207.208 235.5,204.5C 235.842,203.662 236.508,203.328 237.5,203.5C 240.313,203.975 242.313,202.975 243.5,200.5C 245.027,200.573 246.027,199.906 246.5,198.5C 249.089,197.581 251.089,195.914 252.5,193.5C 254.833,193.167 256.167,191.833 256.5,189.5C 257.5,189.167 258.167,188.5 258.5,187.5C 259.906,187.027 260.573,186.027 260.5,184.5C 262.822,183.198 264.155,181.198 264.5,178.5C 264.328,177.508 264.662,176.842 265.5,176.5C 267.625,173.912 268.958,170.912 269.5,167.5C 270.913,164.781 271.58,161.781 271.5,158.5C 271.5,151.833 271.5,145.167 271.5,138.5C 271.54,133.64 270.207,129.307 267.5,125.5C 266.069,124.22 265.402,122.553 265.5,120.5C 265.573,118.973 264.906,117.973 263.5,117.5C 263.573,115.973 262.906,114.973 261.5,114.5C 261.573,112.973 260.906,111.973 259.5,111.5C 258.833,111.5 258.5,111.167 258.5,110.5C 256.906,107.236 254.573,104.569 251.5,102.5C 251.5,99.1667 253.167,97.5 256.5,97.5C 256.833,98.5 257.5,99.1667 258.5,99.5C 258.833,100.5 259.5,101.167 260.5,101.5C 262.458,104.792 264.791,107.792 267.5,110.5C 268.34,112.853 269.674,114.853 271.5,116.5C 272.931,117.78 273.598,119.447 273.5,121.5C 273.66,123.153 274.326,124.486 275.5,125.5C 275.595,127.786 276.262,129.786 277.5,131.5C 277.646,135.387 278.313,139.054 279.5,142.5C 279.5,145.5 279.5,148.5 279.5,151.5C 278.492,159.198 276.825,166.865 274.5,174.5C 274.672,175.492 274.338,176.158 273.5,176.5C 272.326,177.514 271.66,178.847 271.5,180.5C 269.992,182.181 268.992,184.181 268.5,186.5C 266.016,188.8 264.016,191.467 262.5,194.5C 261.089,196.914 259.089,198.581 256.5,199.5C 254.142,201.529 251.808,203.529 249.5,205.5C 246.128,207.186 242.795,208.853 239.5,210.5C 239.027,211.906 238.027,212.573 236.5,212.5C 225.373,215.525 214.04,216.858 202.5,216.5C 200.265,216.795 198.265,216.461 196.5,215.5C 193.45,213.899 190.116,212.899 186.5,212.5C 185.486,211.326 184.153,210.66 182.5,210.5C 180.447,210.598 178.78,209.931 177.5,208.5C 177.5,207.833 177.167,207.5 176.5,207.5C 176.44,206.957 176.107,206.624 175.5,206.5C 174.5,250.828 174.167,295.162 174.5,339.5C 172.992,341.181 171.992,343.181 171.5,345.5C 171.5,346.167 171.167,346.5 170.5,346.5C 169.167,347.167 168.167,348.167 167.5,349.5C 167.158,350.338 166.492,350.672 165.5,350.5C 149.535,351.455 133.535,351.788 117.5,351.5C 116.508,351.672 115.842,351.338 115.5,350.5C 115.027,349.094 114.027,348.427 112.5,348.5C 111.5,346.833 110.167,345.5 108.5,344.5C 107.326,343.486 106.66,342.153 106.5,340.5C 106.667,290.166 106.5,239.832 106,189.5C 105.617,188.944 105.117,188.611 104.5,188.5C 104.027,187.094 103.027,186.427 101.5,186.5C 100.833,185.167 99.8333,184.167 98.5,183.5C 97.8333,183.5 97.5,183.167 97.5,182.5C 95.4309,179.427 92.7642,177.094 89.5,175.5C 88.0892,173.086 86.0892,171.419 83.5,170.5C 81.7607,167.757 79.4274,165.757 76.5,164.5C 76.1667,163.5 75.5,162.833 74.5,162.5C 70.8333,158.167 66.8333,154.167 62.5,150.5C 62.2624,148.596 61.2624,147.262 59.5,146.5C 59.4456,144.368 58.4456,143.035 56.5,142.5C 55.6618,142.158 55.3284,141.492 55.5,140.5C 53.676,135.675 51.676,131.008 49.5,126.5C 49.405,124.214 48.7384,122.214 47.5,120.5C 47.2833,116.295 46.6167,112.295 45.5,108.5C 44.1694,100.45 44.5027,92.45 46.5,84.5C 47.9238,82.4855 48.5905,80.1522 48.5,77.5C 48.7215,74.9327 49.3882,72.5994 50.5,70.5C 52.3809,67.0619 54.0475,63.3952 55.5,59.5C 55.6596,57.847 56.3263,56.5137 57.5,55.5C 59.2624,54.7377 60.2624,53.4044 60.5,51.5C 61.9063,51.0269 62.573,50.0269 62.5,48.5C 65.2427,46.7607 67.2427,44.4274 68.5,41.5C 70.8333,41.1667 72.1667,39.8333 72.5,37.5C 75.0892,36.5806 77.0892,34.914 78.5,32.5C 80.8525,31.6597 82.8525,30.3264 84.5,28.5C 84.8417,27.6618 85.5084,27.3284 86.5,27.5C 88.0269,27.573 89.0269,26.9063 89.5,25.5C 91.5529,25.5979 93.2196,24.9313 94.5,23.5C 95.7804,22.0687 97.4471,21.4021 99.5,21.5C 101.898,21.7406 103.898,21.0739 105.5,19.5C 105.833,19.5 106.167,19.5 106.5,19.5C 110.387,19.3541 114.054,18.6874 117.5,17.5 Z M 132.5,24.5 C 137.291,25.942 142.291,26.942 147.5,27.5C 148.78,28.9313 150.447,29.5979 152.5,29.5C 152.833,29.5 153.167,29.5 153.5,29.5C 154.911,31.539 156.911,32.539 159.5,32.5C 162.836,34.7306 166.503,36.3973 170.5,37.5C 172.426,39.2927 174.759,40.2927 177.5,40.5C 178.78,41.9313 180.447,42.5979 182.5,42.5C 182.973,43.9063 183.973,44.573 185.5,44.5C 186.78,45.9313 188.447,46.5979 190.5,46.5C 190.973,47.9063 191.973,48.573 193.5,48.5C 195.147,50.3264 197.147,51.6597 199.5,52.5C 200.262,54.2624 201.596,55.2624 203.5,55.5C 207.548,60.2148 211.881,64.5481 216.5,68.5C 216.427,70.0269 217.094,71.0269 218.5,71.5C 218.427,73.0269 219.094,74.0269 220.5,74.5C 221.34,76.8525 222.674,78.8525 224.5,80.5C 224.229,82.3797 224.896,83.713 226.5,84.5C 226.66,86.153 227.326,87.4863 228.5,88.5C 228.992,90.8185 229.992,92.8185 231.5,94.5C 232.263,98.1368 233.597,101.47 235.5,104.5C 238.585,119.032 239.251,133.699 237.5,148.5C 236.262,150.214 235.595,152.214 235.5,154.5C 234.596,155.209 234.263,156.209 234.5,157.5C 232.583,160.331 230.917,163.331 229.5,166.5C 229.5,166.833 229.5,167.167 229.5,167.5C 227.086,168.911 225.419,170.911 224.5,173.5C 220.141,177.528 215.807,181.528 211.5,185.5C 211.167,185.5 210.833,185.5 210.5,185.5C 201.054,190.899 191.054,194.566 180.5,196.5C 179.833,196.5 179.167,196.5 178.5,196.5C 177.175,192.724 176.509,188.557 176.5,184C 177.391,165.152 180.391,146.652 185.5,128.5C 186.338,128.158 186.672,127.492 186.5,126.5C 187.124,126.083 187.457,125.416 187.5,124.5C 187.253,123.287 186.586,122.62 185.5,122.5C 185.209,121.351 184.376,120.684 183,120.5C 180.725,120.278 179.559,121.278 179.5,123.5C 177.747,126.146 176.747,129.146 176.5,132.5C 174.517,135.799 173.517,139.466 173.5,143.5C 172.076,145.515 171.41,147.848 171.5,150.5C 169.942,157.07 168.942,163.737 168.5,170.5C 167.833,220.335 167.167,270.335 166.5,320.5C 165.914,320.291 165.414,319.957 165,319.5C 156.735,320.153 148.568,320.82 140.5,321.5C 140.167,321.5 139.833,321.5 139.5,321.5C 138.504,321.414 137.671,321.748 137,322.5C 136.22,324.387 136.387,326.054 137.5,327.5C 137.611,328.117 137.944,328.617 138.5,329C 148.167,329.333 157.833,329.667 167.5,330C 167.374,331.974 167.208,334.141 167,336.5C 166.284,338.879 165.117,340.879 163.5,342.5C 163.5,342.833 163.5,343.167 163.5,343.5C 148.869,344.45 134.202,344.784 119.5,344.5C 119.027,343.094 118.027,342.427 116.5,342.5C 116.573,340.973 115.906,339.973 114.5,339.5C 114.169,288.595 114.503,237.762 115.5,187C 114.972,183.911 113.972,181.077 112.5,178.5C 112.844,171.918 112.177,165.584 110.5,159.5C 110.884,155.511 110.217,151.845 108.5,148.5C 108.5,148.167 108.5,147.833 108.5,147.5C 108.829,144.772 108.163,142.438 106.5,140.5C 106.784,138.585 106.451,136.919 105.5,135.5C 105.59,132.848 104.924,130.515 103.5,128.5C 103.768,126.901 103.434,125.568 102.5,124.5C 102.573,122.973 101.906,121.973 100.5,121.5C 98.5453,120.07 96.8786,120.403 95.5,122.5C 94.5222,122.811 93.8555,123.478 93.5,124.5C 94.0578,127.127 95.0578,129.46 96.5,131.5C 97.631,139.854 99.631,147.854 102.5,155.5C 102.376,161.069 103.043,166.402 104.5,171.5C 104.5,171.833 104.5,172.167 104.5,172.5C 104.795,174.735 104.461,176.735 103.5,178.5C 103.5,177.167 102.833,176.5 101.5,176.5C 100.833,175.167 99.8333,174.167 98.5,173.5C 97.7377,171.738 96.4044,170.738 94.5,170.5C 94.5,169.833 94.1667,169.5 93.5,169.5C 92.8333,168.167 91.8333,167.167 90.5,166.5C 89.4206,164.457 87.754,163.124 85.5,162.5C 83.4509,159.45 80.7843,157.117 77.5,155.5C 76.0892,153.086 74.0892,151.419 71.5,150.5C 71.2624,148.596 70.2624,147.262 68.5,146.5C 68.2624,144.596 67.2624,143.262 65.5,142.5C 65.573,140.973 64.9063,139.973 63.5,139.5C 63.6716,138.508 63.3382,137.842 62.5,137.5C 62.2503,135.326 61.2503,133.659 59.5,132.5C 59.2671,129.458 58.2671,126.792 56.5,124.5C 56.7406,122.102 56.0739,120.102 54.5,118.5C 54.2601,114.394 53.5934,110.394 52.5,106.5C 52.4502,98.7638 53.1169,91.0972 54.5,83.5C 56.7652,78.4646 58.4318,73.1313 59.5,67.5C 61.1042,66.713 61.7709,65.3797 61.5,63.5C 63.1042,62.713 63.7709,61.3797 63.5,59.5C 64.9063,59.0269 65.573,58.0269 65.5,56.5C 66.1667,56.5 66.5,56.1667 66.5,55.5C 68.984,53.1997 70.984,50.5331 72.5,47.5C 74.1667,46.5 75.5,45.1667 76.5,43.5C 78.7488,42.9202 80.4154,41.5869 81.5,39.5C 83.8525,38.6597 85.8525,37.3264 87.5,35.5C 89.0269,35.573 90.0269,34.9063 90.5,33.5C 93.4965,32.7297 96.1632,31.3964 98.5,29.5C 99.791,29.7373 100.791,29.404 101.5,28.5C 104.067,28.2785 106.401,27.6118 108.5,26.5C 110.099,26.7678 111.432,26.4345 112.5,25.5C 119.148,24.8605 125.814,24.5272 132.5,24.5 Z" fill="#ffffff" style="opacity:0.994"/></g>
<g><path d="M 105.5,19.5 C 103.898,21.0739 101.898,21.7406 99.5,21.5C 101.214,20.2616 103.214,19.595 105.5,19.5 Z" fill="#ffffff" style="opacity:0.584"/></g>
<g><path d="M 149.5,20.5 C 152.542,20.7329 155.208,21.7329 157.5,23.5C 154.458,23.2671 151.792,22.2671 149.5,20.5 Z" fill="#ffffff" style="opacity:0.204"/></g>
<g><path d="M 94.5,23.5 C 93.2196,24.9313 91.5529,25.5979 89.5,25.5C 90.7804,24.0687 92.4471,23.4021 94.5,23.5 Z" fill="#ffffff" style="opacity:0.22"/></g>
<g><path d="M 132.5,24.5 C 125.814,24.5272 119.148,24.8605 112.5,25.5C 119.102,23.4566 125.769,23.1232 132.5,24.5 Z" fill="#ffffff" style="opacity:0.225"/></g>
<g><path d="M 157.5,23.5 C 160.241,23.7073 162.574,24.7073 164.5,26.5C 161.759,26.2927 159.426,25.2927 157.5,23.5 Z" fill="#ffffff" style="opacity:0.145"/></g>
<g><path d="M 89.5,25.5 C 89.0269,26.9063 88.0269,27.573 86.5,27.5C 86.9731,26.0937 87.9731,25.427 89.5,25.5 Z" fill="#ffffff" style="opacity:0.541"/></g>
<g><path d="M 215.5,26.5 C 216.833,27.1667 216.833,27.1667 215.5,26.5 Z" fill="#ffffff" style="opacity:0.004"/></g>
<g><path d="M 108.5,26.5 C 106.401,27.6118 104.067,28.2785 101.5,28.5C 103.438,26.8372 105.772,26.1706 108.5,26.5 Z" fill="#ffffff" style="opacity:0.082"/></g>
<g><path d="M 147.5,27.5 C 149.553,27.4021 151.22,28.0687 152.5,29.5C 150.447,29.5979 148.78,28.9313 147.5,27.5 Z" fill="#ffffff" style="opacity:0.098"/></g>
<g><path d="M 84.5,28.5 C 82.8525,30.3264 80.8525,31.6597 78.5,32.5C 79.8021,30.1782 81.8021,28.8449 84.5,28.5 Z" fill="#ffffff" style="opacity:0.104"/></g>
<g><path d="M 168.5,28.5 C 171.241,28.7073 173.574,29.7073 175.5,31.5C 172.759,31.2927 170.426,30.2927 168.5,28.5 Z" fill="#ffffff" style="opacity:0.259"/></g>
<g><path d="M 153.5,29.5 C 155.819,29.9925 157.819,30.9925 159.5,32.5C 156.911,32.539 154.911,31.539 153.5,29.5 Z" fill="#ffffff" style="opacity:0.029"/></g>
<g><path d="M 239.5,30.5 C 240.833,31.1667 240.833,31.1667 239.5,30.5 Z" fill="#ffffff" style="opacity:0.004"/></g>
<g><path d="M 98.5,29.5 C 96.1632,31.3964 93.4965,32.7297 90.5,33.5C 92.6123,31.2295 95.279,29.8961 98.5,29.5 Z" fill="#ffffff" style="opacity:0.29"/></g>
<g><path d="M 175.5,31.5 C 178.089,31.461 180.089,32.461 181.5,34.5C 179.181,34.0075 177.181,33.0075 175.5,31.5 Z" fill="#ffffff" style="opacity:0.041"/></g>
<g><path d="M 90.5,33.5 C 90.0269,34.9063 89.0269,35.573 87.5,35.5C 87.9731,34.0937 88.9731,33.427 90.5,33.5 Z" fill="#ffffff" style="opacity:0.008"/></g>
<g><path d="M 78.5,32.5 C 77.0892,34.914 75.0892,36.5806 72.5,37.5C 73.9108,35.086 75.9108,33.4194 78.5,32.5 Z" fill="#ffffff" style="opacity:0.647"/></g>
<g><path d="M 181.5,34.5 C 184.241,34.7073 186.574,35.7073 188.5,37.5C 185.759,37.2927 183.426,36.2927 181.5,34.5 Z" fill="#ffffff" style="opacity:0.176"/></g>
<g><path d="M 87.5,35.5 C 85.8525,37.3264 83.8525,38.6597 81.5,39.5C 82.8021,37.1782 84.8021,35.8449 87.5,35.5 Z" fill="#ffffff" style="opacity:0.161"/></g>
<g><path d="M 72.5,37.5 C 72.1667,39.8333 70.8333,41.1667 68.5,41.5C 69.5,39.8333 70.8333,38.5 72.5,37.5 Z" fill="#ffffff" style="opacity:0.78"/></g>
<g><path d="M 170.5,37.5 C 173.481,37.1824 175.815,38.1824 177.5,40.5C 174.759,40.2927 172.426,39.2927 170.5,37.5 Z" fill="#ffffff" style="opacity:0.098"/></g>
<g><path d="M 177.5,40.5 C 179.553,40.4021 181.22,41.0687 182.5,42.5C 180.447,42.5979 178.78,41.9313 177.5,40.5 Z" fill="#ffffff" style="opacity:0.09"/></g>
<g><path d="M 81.5,39.5 C 80.4154,41.5869 78.7488,42.9202 76.5,43.5C 77.5846,41.4131 79.2512,40.0798 81.5,39.5 Z" fill="#ffffff" style="opacity:0.004"/></g>
<g><path d="M 182.5,42.5 C 184.027,42.427 185.027,43.0937 185.5,44.5C 183.973,44.573 182.973,43.9063 182.5,42.5 Z" fill="#ffffff" style="opacity:0.141"/></g>
<g><path d="M 68.5,41.5 C 67.2427,44.4274 65.2427,46.7607 62.5,48.5C 63.7573,45.5726 65.7573,43.2393 68.5,41.5 Z" fill="#ffffff" style="opacity:0.675"/></g>
<g><path d="M 196.5,41.5 C 198.853,42.3403 200.853,43.6736 202.5,45.5C 199.802,45.1551 197.802,43.8218 196.5,41.5 Z" fill="#ffffff" style="opacity:0.075"/></g>
<g><path d="M 355.5,44.5 C 356.833,45.1667 356.833,45.1667 355.5,44.5 Z" fill="#ffffff" style="opacity:0.004"/></g>
<g><path d="M 185.5,44.5 C 187.553,44.4021 189.22,45.0687 190.5,46.5C 188.447,46.5979 186.78,45.9313 185.5,44.5 Z" fill="#ffffff" style="opacity:0.086"/></g>
<g><path d="M 202.5,45.5 C 204.404,45.7376 205.738,46.7376 206.5,48.5C 204.596,48.2624 203.262,47.2624 202.5,45.5 Z" fill="#ffffff" style="opacity:0.012"/></g>
<g><path d="M 190.5,46.5 C 192.027,46.427 193.027,47.0937 193.5,48.5C 191.973,48.573 190.973,47.9063 190.5,46.5 Z" fill="#ffffff" style="opacity:0.18"/></g>
<g><path d="M 62.5,48.5 C 62.573,50.0269 61.9063,51.0269 60.5,51.5C 60.427,49.9731 61.0937,48.9731 62.5,48.5 Z" fill="#ffffff" style="opacity:0.498"/></g>
<g><path d="M 193.5,48.5 C 196.198,48.8449 198.198,50.1782 199.5,52.5C 197.147,51.6597 195.147,50.3264 193.5,48.5 Z" fill="#ffffff" style="opacity:0.141"/></g>
<g><path d="M 207.5,49.5 C 209.749,50.0798 211.415,51.4131 212.5,53.5C 210.251,52.9202 208.585,51.5869 207.5,49.5 Z" fill="#ffffff" style="opacity:0.008"/></g>
<g><path d="M 424.5,52.5 C 425.833,53.1667 425.833,53.1667 424.5,52.5 Z" fill="#ffffff" style="opacity:0.004"/></g>
<g><path d="M 60.5,51.5 C 60.2624,53.4044 59.2624,54.7377 57.5,55.5C 57.7376,53.5956 58.7376,52.2623 60.5,51.5 Z" fill="#ffffff" style="opacity:0.463"/></g>
<g><path d="M 72.5,47.5 C 70.984,50.5331 68.984,53.1997 66.5,55.5C 67.5293,52.1092 69.5293,49.4426 72.5,47.5 Z" fill="#ffffff" style="opacity:0.02"/></g>
<g><path d="M 199.5,52.5 C 201.404,52.7376 202.738,53.7376 203.5,55.5C 201.596,55.2624 200.262,54.2624 199.5,52.5 Z" fill="#ffffff" style="opacity:0.298"/></g>
<g><path d="M 212.5,53.5 C 216.566,56.5628 219.899,60.2294 222.5,64.5C 218.434,61.4372 215.101,57.7706 212.5,53.5 Z" fill="#ffffff" style="opacity:0.584"/></g>
<g><path d="M 203.5,55.5 C 208.812,58.8121 213.145,63.1454 216.5,68.5C 211.881,64.5481 207.548,60.2148 203.5,55.5 Z" fill="#ffffff" style="opacity:0.608"/></g>
<g><path d="M 65.5,56.5 C 65.573,58.0269 64.9063,59.0269 63.5,59.5C 63.427,57.9731 64.0937,56.9731 65.5,56.5 Z" fill="#ffffff" style="opacity:0.016"/></g>
<g><path d="M 63.5,59.5 C 63.7709,61.3797 63.1042,62.713 61.5,63.5C 61.6596,61.847 62.3263,60.5137 63.5,59.5 Z" fill="#ffffff" style="opacity:0.043"/></g>
<g><path d="M 55.5,59.5 C 54.0475,63.3952 52.3809,67.0619 50.5,70.5C 50.8457,66.1476 52.5124,62.4809 55.5,59.5 Z" fill="#ffffff" style="opacity:0.047"/></g>
<g><path d="M 61.5,63.5 C 61.7709,65.3797 61.1042,66.713 59.5,67.5C 59.6596,65.847 60.3263,64.5137 61.5,63.5 Z" fill="#ffffff" style="opacity:0.004"/></g>
<g><path d="M 304.5,65.5 C 305.833,66.1667 305.833,66.1667 304.5,65.5 Z" fill="#ffffff" style="opacity:0.004"/></g>
<g><path d="M 222.5,64.5 C 224.262,65.2623 225.262,66.5956 225.5,68.5C 223.738,67.7377 222.738,66.4044 222.5,64.5 Z" fill="#ffffff" style="opacity:0.325"/></g>
<g><path d="M 216.5,68.5 C 217.906,68.9731 218.573,69.9731 218.5,71.5C 217.094,71.0269 216.427,70.0269 216.5,68.5 Z" fill="#ffffff" style="opacity:0.008"/></g>
<g><path d="M 226.5,70.5 C 227.906,70.9731 228.573,71.9731 228.5,73.5C 227.094,73.0269 226.427,72.0269 226.5,70.5 Z" fill="#ffffff" style="opacity:0.267"/></g>
<g><path d="M 218.5,71.5 C 219.906,71.9731 220.573,72.9731 220.5,74.5C 219.094,74.0269 218.427,73.0269 218.5,71.5 Z" fill="#ffffff" style="opacity:0.035"/></g>
<g><path d="M 378.5,73.5 C 379.833,74.1667 379.833,74.1667 378.5,73.5 Z" fill="#ffffff" style="opacity:0.004"/></g>
<g><path d="M 228.5,73.5 C 229.906,73.9731 230.573,74.9731 230.5,76.5C 229.094,76.0269 228.427,75.0269 228.5,73.5 Z" fill="#ffffff" style="opacity:0.267"/></g>
<g><path d="M 498.5,76.5 C 498.5,76.8333 498.5,77.1667 498.5,77.5C 497.83,77.0187 497.83,76.6853 498.5,76.5 Z" fill="#ffffff" style="opacity:0.004"/></g>
<g><path d="M 220.5,74.5 C 222.822,75.8021 224.155,77.8021 224.5,80.5C 222.674,78.8525 221.34,76.8525 220.5,74.5 Z" fill="#ffffff" style="opacity:0.149"/></g>
<g><path d="M 230.5,76.5 C 231.906,76.9731 232.573,77.9731 232.5,79.5C 231.094,79.0269 230.427,78.0269 230.5,76.5 Z" fill="#ffffff" style="opacity:0.086"/></g>
<g><path d="M 333.5,78.5 C 334.833,79.1667 334.833,79.1667 333.5,78.5 Z" fill="#ffffff" style="opacity:0.004"/></g>
<g><path d="M 48.5,77.5 C 48.5905,80.1522 47.9238,82.4855 46.5,84.5C 46.4095,81.8478 47.0762,79.5145 48.5,77.5 Z" fill="#ffffff" style="opacity:0.541"/></g>
<g><path d="M 40.5,81.5 C 41.8333,82.1667 41.8333,82.1667 40.5,81.5 Z" fill="#ffffff" style="opacity:0.004"/></g>
<g><path d="M 224.5,80.5 C 225.674,81.5137 226.34,82.847 226.5,84.5C 224.896,83.713 224.229,82.3797 224.5,80.5 Z" fill="#ffffff" style="opacity:0.067"/></g>
<g><path d="M 59.5,67.5 C 58.4318,73.1313 56.7652,78.4646 54.5,83.5C 54.9905,77.7004 56.6572,72.367 59.5,67.5 Z" fill="#ffffff" style="opacity:0.012"/></g>
<g><path d="M 149.5,84.5 C 143.508,83.2258 137.508,83.2258 131.5,84.5C 137.516,80.6276 143.516,80.6276 149.5,84.5 Z" fill="#ffffff" style="opacity:0.867"/></g>
<g><path d="M 149.5,84.5 C 149.973,85.9063 150.973,86.573 152.5,86.5C 152.5,88.5 153.5,89.5 155.5,89.5C 155.427,91.0269 156.094,92.0269 157.5,92.5C 157.5,92.8333 157.5,93.1667 157.5,93.5C 158.833,114.5 158.833,135.5 157.5,156.5C 157.672,157.492 157.338,158.158 156.5,158.5C 153.808,160.862 151.141,163.196 148.5,165.5C 143.175,166.761 137.842,166.761 132.5,165.5C 131.508,165.672 130.842,165.338 130.5,164.5C 129.415,162.413 127.749,161.08 125.5,160.5C 124.662,160.158 124.328,159.492 124.5,158.5C 124.005,156.518 123.505,154.518 123,152.5C 122.228,132.48 122.394,112.48 123.5,92.5C 125.262,91.7377 126.262,90.4044 126.5,88.5C 128.749,87.9202 130.415,86.5869 131.5,84.5C 137.508,83.2258 143.508,83.2258 149.5,84.5 Z" fill="#ffffff" style="opacity:0.997"/></g>
<g><path d="M 149.5,84.5 C 151.027,84.427 152.027,85.0937 152.5,86.5C 150.973,86.573 149.973,85.9063 149.5,84.5 Z" fill="#ffffff" style="opacity:0.02"/></g>
<g><path d="M 234.5,83.5 C 236.104,84.287 236.771,85.6203 236.5,87.5C 235.326,86.4863 234.66,85.153 234.5,83.5 Z" fill="#ffffff" style="opacity:0.047"/></g>
<g><path d="M 131.5,84.5 C 130.415,86.5869 128.749,87.9202 126.5,88.5C 127.585,86.4131 129.251,85.0798 131.5,84.5 Z" fill="#ffffff" style="opacity:0.698"/></g>
<g><path d="M 152.5,86.5 C 153.833,87.1667 154.833,88.1667 155.5,89.5C 153.5,89.5 152.5,88.5 152.5,86.5 Z" fill="#ffffff" style="opacity:0.686"/></g>
<g><path d="M 126.5,88.5 C 126.262,90.4044 125.262,91.7377 123.5,92.5C 123.738,90.5956 124.738,89.2623 126.5,88.5 Z" fill="#ffffff" style="opacity:0.302"/></g>
<g><path d="M 228.5,88.5 C 230.539,89.911 231.539,91.911 231.5,94.5C 229.992,92.8185 228.992,90.8185 228.5,88.5 Z" fill="#ffffff" style="opacity:0.153"/></g>
<g><path d="M 155.5,89.5 C 156.906,89.9731 157.573,90.9731 157.5,92.5C 156.094,92.0269 155.427,91.0269 155.5,89.5 Z" fill="#ffffff" style="opacity:0.137"/></g>
<g><path d="M 238.5,91.5 C 239.931,92.7804 240.598,94.4471 240.5,96.5C 239.069,95.2196 238.402,93.5529 238.5,91.5 Z" fill="#ffffff" style="opacity:0.067"/></g>
<g><path d="M 231.5,94.5 C 233.794,97.3695 235.128,100.703 235.5,104.5C 233.597,101.47 232.263,98.1368 231.5,94.5 Z" fill="#ffffff" style="opacity:0.098"/></g>
<g><path d="M 256.5,97.5 C 257.833,97.5 258.5,98.1667 258.5,99.5C 257.5,99.1667 256.833,98.5 256.5,97.5 Z" fill="#ffffff" style="opacity:0.008"/></g>
<g><path d="M 54.5,83.5 C 53.1169,91.0972 52.4502,98.7638 52.5,106.5C 51.353,102.354 51.1864,98.0204 52,93.5C 52.1489,89.8675 52.9823,86.5341 54.5,83.5 Z" fill="#ffffff" style="opacity:0.317"/></g>
<g><path d="M 240.5,96.5 C 241.931,97.7804 242.598,99.4471 242.5,101.5C 240.787,100.365 240.12,98.698 240.5,96.5 Z" fill="#ffffff" style="opacity:0.863"/></g>
<g><path d="M 256.5,97.5 C 253.167,97.5 251.5,99.1667 251.5,102.5C 249.806,99.361 250.806,97.361 254.5,96.5C 255.416,96.5427 256.083,96.8761 256.5,97.5 Z" fill="#ffffff" style="opacity:0.078"/></g>
<g><path d="M 258.5,99.5 C 259.833,99.5 260.5,100.167 260.5,101.5C 259.5,101.167 258.833,100.5 258.5,99.5 Z" fill="#ffffff" style="opacity:0.004"/></g>
<g><path d="M 123.5,92.5 C 122.394,112.48 122.228,132.48 123,152.5C 123.505,154.518 124.005,156.518 124.5,158.5C 123.034,157.653 122.2,156.32 122,154.5C 121.333,134.833 121.333,115.167 122,95.5C 122.232,94.2625 122.732,93.2625 123.5,92.5 Z" fill="#ffffff" style="opacity:0.35"/></g>
<g><path d="M 251.5,102.5 C 254.573,104.569 256.906,107.236 258.5,110.5C 255.427,108.431 253.094,105.764 251.5,102.5 Z" fill="#ffffff" style="opacity:0.004"/></g>
<g><path d="M 260.5,101.5 C 263.973,103.637 266.306,106.637 267.5,110.5C 264.791,107.792 262.458,104.792 260.5,101.5 Z" fill="#ffffff" style="opacity:0.216"/></g>
<g><path d="M 358.5,106.5 C 359.833,107.167 359.833,107.167 358.5,106.5 Z" fill="#ffffff" style="opacity:0.004"/></g>
<g><path d="M 157.5,93.5 C 158.222,93.9175 158.722,94.5842 159,95.5C 159.667,114.833 159.667,134.167 159,153.5C 158.768,154.737 158.268,155.737 157.5,156.5C 158.833,135.5 158.833,114.5 157.5,93.5 Z" fill="#ffffff" style="opacity:0.331"/></g>
<g><path d="M 45.5,108.5 C 46.6167,112.295 47.2833,116.295 47.5,120.5C 45.8643,116.79 45.1977,112.79 45.5,108.5 Z" fill="#ffffff" style="opacity:0.082"/></g>
<g><path d="M 243.5,105.5 C 245.04,107.838 245.706,110.505 245.5,113.5C 244.232,111.095 243.565,108.428 243.5,105.5 Z" fill="#ffffff" style="opacity:0.29"/></g>
<g><path d="M 259.5,111.5 C 260.906,111.973 261.573,112.973 261.5,114.5C 260.094,114.027 259.427,113.027 259.5,111.5 Z" fill="#ffffff" style="opacity:0.024"/></g>
<g><path d="M 267.5,110.5 C 269.822,111.802 271.155,113.802 271.5,116.5C 269.674,114.853 268.34,112.853 267.5,110.5 Z" fill="#ffffff" style="opacity:0.157"/></g>
<g><path d="M 261.5,114.5 C 262.906,114.973 263.573,115.973 263.5,117.5C 262.094,117.027 261.427,116.027 261.5,114.5 Z" fill="#ffffff" style="opacity:0.106"/></g>
<g><path d="M 263.5,117.5 C 264.906,117.973 265.573,118.973 265.5,120.5C 264.094,120.027 263.427,119.027 263.5,117.5 Z" fill="#ffffff" style="opacity:0.098"/></g>
<g><path d="M 54.5,118.5 C 56.0739,120.102 56.7406,122.102 56.5,124.5C 55.2616,122.786 54.595,120.786 54.5,118.5 Z" fill="#ffffff" style="opacity:0.033"/></g>
<g><path d="M 185.5,122.5 C 183.249,121.135 181.249,121.469 179.5,123.5C 179.559,121.278 180.725,120.278 183,120.5C 184.376,120.684 185.209,121.351 185.5,122.5 Z" fill="#ffffff" style="opacity:0.055"/></g>
<g><path d="M 245.5,113.5 C 247.535,122.118 247.868,130.784 246.5,139.5C 246.416,130.822 246.083,122.155 245.5,113.5 Z" fill="#ffffff" style="opacity:0.056"/></g>
<g><path d="M 273.5,121.5 C 275.104,122.287 275.771,123.62 275.5,125.5C 274.326,124.486 273.66,123.153 273.5,121.5 Z" fill="#ffffff" style="opacity:0.031"/></g>
<g><path d="M 47.5,120.5 C 48.7384,122.214 49.405,124.214 49.5,126.5C 47.9261,124.898 47.2594,122.898 47.5,120.5 Z" fill="#ffffff" style="opacity:0.008"/></g>
<g><path d="M 100.5,121.5 C 101.906,121.973 102.573,122.973 102.5,124.5C 101.094,124.027 100.427,123.027 100.5,121.5 Z" fill="#ffffff" style="opacity:0.227"/></g>
<g><path d="M 185.5,122.5 C 186.586,122.62 187.253,123.287 187.5,124.5C 187.457,125.416 187.124,126.083 186.5,126.5C 186.567,125.041 186.234,123.708 185.5,122.5 Z" fill="#ffffff" style="opacity:0.067"/></g>
<g><path d="M 263.5,125.5 C 264.833,126.167 264.833,126.167 263.5,125.5 Z" fill="#ffffff" style="opacity:0.004"/></g>
<g><path d="M 322.5,125.5 C 323.833,126.167 323.833,126.167 322.5,125.5 Z" fill="#ffffff" style="opacity:0.004"/></g>
<g><path d="M 56.5,124.5 C 58.2671,126.792 59.2671,129.458 59.5,132.5C 57.7329,130.208 56.7329,127.542 56.5,124.5 Z" fill="#ffffff" style="opacity:0.016"/></g>
<g><path d="M 179.5,123.5 C 179.472,126.916 178.472,129.916 176.5,132.5C 176.747,129.146 177.747,126.146 179.5,123.5 Z" fill="#ffffff" style="opacity:0.792"/></g>
<g><path d="M 275.5,125.5 C 277.074,127.102 277.741,129.102 277.5,131.5C 276.262,129.786 275.595,127.786 275.5,125.5 Z" fill="#ffffff" style="opacity:0.039"/></g>
<g><path d="M 235.5,104.5 C 237.337,108.533 238.504,112.867 239,117.5C 239.667,126.167 239.667,134.833 239,143.5C 238.802,145.382 238.302,147.048 237.5,148.5C 239.251,133.699 238.585,119.032 235.5,104.5 Z" fill="#ffffff" style="opacity:0.105"/></g>
<g><path d="M 267.5,125.5 C 270.207,129.307 271.54,133.64 271.5,138.5C 270.029,134.301 268.695,129.967 267.5,125.5 Z" fill="#ffffff" style="opacity:0.122"/></g>
<g><path d="M 95.5,122.5 C 95.5079,125.545 95.8413,128.545 96.5,131.5C 95.0578,129.46 94.0578,127.127 93.5,124.5C 93.8555,123.478 94.5222,122.811 95.5,122.5 Z" fill="#ffffff" style="opacity:0.169"/></g>
<g><path d="M 185.5,128.5 C 180.391,146.652 177.391,165.152 176.5,184C 176.509,188.557 177.175,192.724 178.5,196.5C 177.791,197.404 176.791,197.737 175.5,197.5C 174.019,173.663 177.352,150.663 185.5,128.5 Z" fill="#ffffff" style="opacity:0.02"/></g>
<g><path d="M 103.5,128.5 C 104.924,130.515 105.59,132.848 105.5,135.5C 103.837,133.562 103.171,131.228 103.5,128.5 Z" fill="#ffffff" style="opacity:0.698"/></g>
<g><path d="M 59.5,132.5 C 61.2503,133.659 62.2503,135.326 62.5,137.5C 60.7497,136.341 59.7497,134.674 59.5,132.5 Z" fill="#ffffff" style="opacity:0.149"/></g>
<g><path d="M 96.5,131.5 C 99.7291,139.083 101.729,147.083 102.5,155.5C 99.631,147.854 97.631,139.854 96.5,131.5 Z" fill="#ffffff" style="opacity:0.031"/></g>
<g><path d="M 336.5,136.5 C 337.833,137.167 337.833,137.167 336.5,136.5 Z" fill="#ffffff" style="opacity:0.004"/></g>
<g><path d="M 415.5,136.5 C 416.833,137.167 416.833,137.167 415.5,136.5 Z" fill="#ffffff" style="opacity:0.004"/></g>
<g><path d="M 49.5,126.5 C 51.676,131.008 53.676,135.675 55.5,140.5C 52.1571,136.49 50.1571,131.824 49.5,126.5 Z" fill="#ffffff" style="opacity:0.043"/></g>
<g><path d="M 176.5,132.5 C 176.318,136.489 175.318,140.156 173.5,143.5C 173.517,139.466 174.517,135.799 176.5,132.5 Z" fill="#ffffff" style="opacity:0.033"/></g>
<g><path d="M 401.5,138.5 C 402.833,139.167 402.833,139.167 401.5,138.5 Z" fill="#ffffff" style="opacity:0.004"/></g>
<g><path d="M 277.5,131.5 C 279.082,134.876 279.749,138.542 279.5,142.5C 278.313,139.054 277.646,135.387 277.5,131.5 Z" fill="#ffffff" style="opacity:0.194"/></g>
<g><path d="M 63.5,139.5 C 64.9063,139.973 65.573,140.973 65.5,142.5C 64.0937,142.027 63.427,141.027 63.5,139.5 Z" fill="#ffffff" style="opacity:0.212"/></g>
<g><path d="M 371.5,141.5 C 372.833,142.167 372.833,142.167 371.5,141.5 Z" fill="#ffffff" style="opacity:0.004"/></g>
<g><path d="M 56.5,142.5 C 58.4456,143.035 59.4456,144.368 59.5,146.5C 58.0256,145.564 57.0256,144.23 56.5,142.5 Z" fill="#ffffff" style="opacity:0.765"/></g>
<g><path d="M 106.5,140.5 C 108.163,142.438 108.829,144.772 108.5,147.5C 107.388,145.401 106.721,143.067 106.5,140.5 Z" fill="#ffffff" style="opacity:0.053"/></g>
<g><path d="M 65.5,142.5 C 67.2624,143.262 68.2624,144.596 68.5,146.5C 66.7376,145.738 65.7376,144.404 65.5,142.5 Z" fill="#ffffff" style="opacity:0.294"/></g>
<g><path d="M 385.5,147.5 C 387.978,146.836 390.645,146.503 393.5,146.5C 398.093,146.379 402.426,147.046 406.5,148.5C 399.524,147.768 392.524,147.435 385.5,147.5 Z" fill="#ffffff" style="opacity:0.203"/></g>
<g><path d="M 59.5,146.5 C 61.2624,147.262 62.2624,148.596 62.5,150.5C 60.7376,149.738 59.7376,148.404 59.5,146.5 Z" fill="#ffffff" style="opacity:0.012"/></g>
<g><path d="M 68.5,146.5 C 70.2624,147.262 71.2624,148.596 71.5,150.5C 69.7376,149.738 68.7376,148.404 68.5,146.5 Z" fill="#ffffff" style="opacity:0.588"/></g>
<g><path d="M 173.5,143.5 C 173.829,146.228 173.163,148.562 171.5,150.5C 171.41,147.848 172.076,145.515 173.5,143.5 Z" fill="#ffffff" style="opacity:0.573"/></g>
<g><path d="M 385.5,147.5 C 392.524,147.435 399.524,147.768 406.5,148.5C 406.833,148.5 407.167,148.5 407.5,148.5C 409.599,149.612 411.933,150.279 414.5,150.5C 416.599,151.612 418.933,152.279 421.5,152.5C 422.791,152.263 423.791,152.596 424.5,153.5C 429.333,156.418 434.333,159.084 439.5,161.5C 439.973,162.906 440.973,163.573 442.5,163.5C 442.833,164.5 443.5,165.167 444.5,165.5C 445.585,167.587 447.251,168.92 449.5,169.5C 449.81,171.144 450.81,172.144 452.5,172.5C 453.419,175.089 455.086,177.089 457.5,178.5C 458.08,180.749 459.413,182.415 461.5,183.5C 461.427,185.027 462.094,186.027 463.5,186.5C 463.66,188.153 464.326,189.486 465.5,190.5C 466.338,190.842 466.672,191.508 466.5,192.5C 466.66,194.153 467.326,195.486 468.5,196.5C 470.074,198.102 470.741,200.102 470.5,202.5C 471.605,206.352 472.938,210.018 474.5,213.5C 474.5,213.833 474.5,214.167 474.5,214.5C 476.708,230.498 475.374,246.164 470.5,261.5C 470.741,263.898 470.074,265.898 468.5,267.5C 467.326,268.514 466.66,269.847 466.5,271.5C 464.347,273.794 462.68,276.46 461.5,279.5C 460.094,279.973 459.427,280.973 459.5,282.5C 459.573,284.027 458.906,285.027 457.5,285.5C 456.5,285.833 455.833,286.5 455.5,287.5C 454.5,289.167 453.167,290.5 451.5,291.5C 450.167,292.167 449.167,293.167 448.5,294.5C 448.167,295.5 447.5,296.167 446.5,296.5C 443.911,297.419 441.911,299.086 440.5,301.5C 439.5,301.833 438.833,302.5 438.5,303.5C 437.833,304.833 436.833,305.833 435.5,306.5C 432.911,307.419 430.911,309.086 429.5,311.5C 428.833,312.833 427.833,313.833 426.5,314.5C 424.596,314.738 423.262,315.738 422.5,317.5C 421.883,317.611 421.383,317.944 421,318.5C 420.82,370.862 420.32,423.195 419.5,475.5C 419.672,476.492 419.338,477.158 418.5,477.5C 416.167,479.167 414.167,481.167 412.5,483.5C 410.524,485.011 408.191,485.844 405.5,486C 392.167,486.667 378.833,486.667 365.5,486C 363.942,485.79 362.609,485.29 361.5,484.5C 360.738,482.738 359.404,481.738 357.5,481.5C 357.167,480.5 356.5,479.833 355.5,479.5C 353.75,478.341 352.75,476.674 352.5,474.5C 352.5,434.167 352.5,393.833 352.5,353.5C 354.987,350.739 356.987,351.073 358.5,354.5C 358.168,393.67 358.501,432.67 359.5,471.5C 360.404,472.209 360.737,473.209 360.5,474.5C 360.5,475.833 361.167,476.5 362.5,476.5C 363.058,477.79 364.058,478.623 365.5,479C 379.167,479.667 392.833,479.667 406.5,479C 412.322,476.861 414.655,472.695 413.5,466.5C 413.5,465.5 413.5,464.5 413.5,463.5C 404.348,462.506 395.015,462.173 385.5,462.5C 384.508,462.672 383.842,462.338 383.5,461.5C 383.5,459.833 383.5,458.167 383.5,456.5C 393.63,455.88 403.63,455.214 413.5,454.5C 414.833,411.5 414.833,368.5 413.5,325.5C 411.77,326.026 410.436,327.026 409.5,328.5C 409.158,329.338 408.492,329.672 407.5,329.5C 405.973,329.427 404.973,330.094 404.5,331.5C 394.768,337.523 384.102,341.189 372.5,342.5C 364.648,342.175 356.982,342.508 349.5,343.5C 348.094,343.973 347.427,344.973 347.5,346.5C 346.833,347.833 345.833,348.833 344.5,349.5C 342.973,349.427 341.973,350.094 341.5,351.5C 336.136,356.347 329.802,359.347 322.5,360.5C 314.521,361.224 306.521,361.558 298.5,361.5C 294.41,359.925 290.077,358.925 285.5,358.5C 283.214,358.405 281.214,357.738 279.5,356.5C 278.365,354.787 276.698,354.12 274.5,354.5C 274.027,353.094 273.027,352.427 271.5,352.5C 270.508,352.672 269.842,352.338 269.5,351.5C 268.738,349.738 267.404,348.738 265.5,348.5C 265.027,347.094 264.027,346.427 262.5,346.5C 261.5,346.167 260.833,345.5 260.5,344.5C 259.738,342.738 258.404,341.738 256.5,341.5C 256.5,339.5 255.5,338.5 253.5,338.5C 252.92,336.251 251.587,334.585 249.5,333.5C 248.974,331.77 247.974,330.436 246.5,329.5C 246.573,327.973 245.906,326.973 244.5,326.5C 243.326,325.486 242.66,324.153 242.5,322.5C 242.34,320.847 241.674,319.514 240.5,318.5C 239.662,318.158 239.328,317.492 239.5,316.5C 239.072,313.215 238.072,310.215 236.5,307.5C 235.566,306.432 235.232,305.099 235.5,303.5C 234.834,295.517 234.501,287.517 234.5,279.5C 234.205,277.265 234.539,275.265 235.5,273.5C 236.924,271.485 237.59,269.152 237.5,266.5C 237.752,262.673 239.085,259.34 241.5,256.5C 243.008,254.819 244.008,252.819 244.5,250.5C 245.906,250.027 246.573,249.027 246.5,247.5C 247.906,247.027 248.573,246.027 248.5,244.5C 250.587,243.415 251.92,241.749 252.5,239.5C 254.19,239.144 255.19,238.144 255.5,236.5C 256.5,236.167 257.167,235.5 257.5,234.5C 257.833,233.5 258.5,232.833 259.5,232.5C 263.777,230.218 267.777,227.551 271.5,224.5C 272.78,223.069 274.447,222.402 276.5,222.5C 278.716,221.797 280.549,220.464 282,218.5C 283.75,216.266 285.25,213.932 286.5,211.5C 289.52,209.477 291.854,206.81 293.5,203.5C 293.5,202.833 293.833,202.5 294.5,202.5C 296.914,201.089 298.581,199.089 299.5,196.5C 305.167,191.5 310.5,186.167 315.5,180.5C 318.427,179.243 320.761,177.243 322.5,174.5C 325.117,173.214 327.45,171.547 329.5,169.5C 331.027,169.573 332.027,168.906 332.5,167.5C 334.027,167.573 335.027,166.906 335.5,165.5C 337.153,165.34 338.486,164.674 339.5,163.5C 341.153,163.34 342.486,162.674 343.5,161.5C 346.485,160.674 349.151,159.341 351.5,157.5C 351.842,156.662 352.508,156.328 353.5,156.5C 355.553,156.598 357.22,155.931 358.5,154.5C 360.898,154.741 362.898,154.074 364.5,152.5C 367.152,152.59 369.485,151.924 371.5,150.5C 371.833,150.5 372.167,150.5 372.5,150.5C 374.898,150.741 376.898,150.074 378.5,148.5C 380.764,147.781 383.097,147.448 385.5,147.5 Z M 409.5,156.5 C 409.833,156.5 410.167,156.5 410.5,156.5C 412.102,158.074 414.102,158.741 416.5,158.5C 416.833,158.5 417.167,158.5 417.5,158.5C 419.509,160.065 421.843,161.065 424.5,161.5C 426.849,163.341 429.515,164.674 432.5,165.5C 433.262,167.262 434.596,168.262 436.5,168.5C 436.842,169.338 437.508,169.672 438.5,169.5C 438.5,170.833 439.167,171.5 440.5,171.5C 442.239,174.243 444.573,176.243 447.5,177.5C 448.08,179.749 449.413,181.415 451.5,182.5C 452.512,183.872 453.512,185.205 454.5,186.5C 456.676,191.528 459.343,196.194 462.5,200.5C 462.402,202.553 463.069,204.22 464.5,205.5C 464.259,207.898 464.926,209.898 466.5,211.5C 466.42,214.781 467.087,217.781 468.5,220.5C 468.931,230.931 468.264,241.265 466.5,251.5C 465.262,253.214 464.595,255.214 464.5,257.5C 463.27,259.297 462.604,261.297 462.5,263.5C 459.11,268.233 456.11,273.233 453.5,278.5C 450.427,280.569 448.094,283.236 446.5,286.5C 445.5,286.833 444.833,287.5 444.5,288.5C 441.236,290.094 438.569,292.427 436.5,295.5C 435.167,295.5 434.5,296.167 434.5,297.5C 433.167,297.5 432.5,298.167 432.5,299.5C 429.865,300.473 427.865,302.14 426.5,304.5C 425.5,304.833 424.833,305.5 424.5,306.5C 420.9,308.43 417.9,311.097 415.5,314.5C 412.911,315.419 410.911,317.086 409.5,319.5C 408.508,319.328 407.842,319.662 407.5,320.5C 405.596,320.738 404.262,321.738 403.5,323.5C 399.182,324.992 395.182,326.992 391.5,329.5C 389.447,329.402 387.78,330.069 386.5,331.5C 382.603,332.055 378.937,333.055 375.5,334.5C 372.615,334.194 369.948,334.527 367.5,335.5C 363.629,335.815 359.962,335.482 356.5,334.5C 358.601,331.203 359.935,327.537 360.5,323.5C 362.118,320.829 362.785,317.829 362.5,314.5C 363.813,306.599 363.813,298.599 362.5,290.5C 362.281,286.2 361.281,282.2 359.5,278.5C 359.267,275.458 358.267,272.792 356.5,270.5C 358.011,268.162 357.677,267.496 355.5,268.5C 355.008,266.181 354.008,264.181 352.5,262.5C 352.573,260.973 351.906,259.973 350.5,259.5C 350.573,257.973 349.906,256.973 348.5,256.5C 348.573,254.973 347.906,253.973 346.5,253.5C 344.234,249.564 341.234,246.231 337.5,243.5C 337.167,242.5 336.5,241.833 335.5,241.5C 334.738,239.738 333.404,238.738 331.5,238.5C 330.738,236.738 329.404,235.738 327.5,235.5C 327.027,234.094 326.027,233.427 324.5,233.5C 324.158,232.662 323.492,232.328 322.5,232.5C 322.027,231.094 321.027,230.427 319.5,230.5C 319.167,230.5 318.833,230.5 318.5,230.5C 313.486,226.822 307.819,224.489 301.5,223.5C 297.214,222.257 292.881,221.257 288.5,220.5C 289.5,220.167 290.167,219.5 290.5,218.5C 293.219,216.781 295.219,214.447 296.5,211.5C 297.906,211.027 298.573,210.027 298.5,208.5C 299.833,208.5 300.5,207.833 300.5,206.5C 301.167,206.5 301.5,206.167 301.5,205.5C 304.243,203.761 306.243,201.427 307.5,198.5C 308.167,198.5 308.5,198.167 308.5,197.5C 311.167,195.5 313.5,193.167 315.5,190.5C 317.167,189.5 318.5,188.167 319.5,186.5C 321.749,185.92 323.415,184.587 324.5,182.5C 326.389,181.396 328.055,180.063 329.5,178.5C 332.37,177.567 334.704,175.9 336.5,173.5C 338.027,173.573 339.027,172.906 339.5,171.5C 341.38,171.771 342.713,171.104 343.5,169.5C 350.197,166.493 356.864,163.493 363.5,160.5C 365.898,160.741 367.898,160.074 369.5,158.5C 382.677,155.491 396.01,154.824 409.5,156.5 Z M 278.5,229.5 C 283.5,229.5 288.5,229.5 293.5,229.5C 295.438,231.163 297.772,231.829 300.5,231.5C 304.215,233.405 308.215,234.738 312.5,235.5C 312.842,236.338 313.508,236.672 314.5,236.5C 315.287,238.104 316.62,238.771 318.5,238.5C 318.973,239.906 319.973,240.573 321.5,240.5C 323.296,242.9 325.63,244.567 328.5,245.5C 328.833,246.5 329.5,247.167 330.5,247.5C 332.882,250.548 335.548,253.215 338.5,255.5C 338.427,257.027 339.094,258.027 340.5,258.5C 341.786,261.117 343.453,263.45 345.5,265.5C 345.328,266.492 345.662,267.158 346.5,267.5C 346.66,269.153 347.326,270.486 348.5,271.5C 349.321,275.127 350.654,278.46 352.5,281.5C 352.41,284.152 353.076,286.485 354.5,288.5C 355.014,294.822 355.347,301.155 355.5,307.5C 354.597,310.391 354.264,313.391 354.5,316.5C 352.899,319.55 351.899,322.884 351.5,326.5C 350.662,326.842 350.328,327.508 350.5,328.5C 349.069,329.78 348.402,331.447 348.5,333.5C 346.738,334.262 345.738,335.596 345.5,337.5C 343.738,338.262 342.738,339.596 342.5,341.5C 339.911,342.419 337.911,344.086 336.5,346.5C 334.326,346.75 332.659,347.75 331.5,349.5C 329.847,349.66 328.514,350.326 327.5,351.5C 322.983,352.19 318.65,353.19 314.5,354.5C 307.453,354.663 300.453,354.163 293.5,353C 294.756,352.583 295.423,351.75 295.5,350.5C 296.5,350.167 297.167,349.5 297.5,348.5C 298.906,348.027 299.573,347.027 299.5,345.5C 300.167,345.5 300.5,345.167 300.5,344.5C 304.194,338.534 305.194,332.201 303.5,325.5C 303.405,323.214 302.738,321.214 301.5,319.5C 301.672,318.508 301.338,317.842 300.5,317.5C 300.573,315.973 299.906,314.973 298.5,314.5C 298.167,313.5 297.5,312.833 296.5,312.5C 295.92,310.251 294.587,308.585 292.5,307.5C 292.167,306.5 291.5,305.833 290.5,305.5C 289.243,302.573 287.243,300.239 284.5,298.5C 283.581,295.911 281.914,293.911 279.5,292.5C 279.106,290.29 277.773,288.957 275.5,288.5C 275.027,287.094 274.027,286.427 272.5,286.5C 272.158,285.662 271.492,285.328 270.5,285.5C 268.115,284.083 265.615,282.75 263,281.5C 258.057,282.03 253.223,283.03 248.5,284.5C 248.167,283.833 247.833,283.167 247.5,282.5C 244.649,282.963 243.649,284.296 244.5,286.5C 243.833,286.5 243.5,286.833 243.5,287.5C 242.624,287.631 241.957,287.298 241.5,286.5C 242.407,283.579 242.74,280.579 242.5,277.5C 243.703,271.686 245.37,266.019 247.5,260.5C 249.104,259.713 249.771,258.38 249.5,256.5C 251.25,255.341 252.25,253.674 252.5,251.5C 254.262,250.738 255.262,249.404 255.5,247.5C 256.167,247.5 256.5,247.167 256.5,246.5C 259.5,244.167 262.167,241.5 264.5,238.5C 265.833,238.5 266.5,237.833 266.5,236.5C 270.508,234.163 274.508,231.83 278.5,229.5 Z M 268.5,292.5 C 270.167,294.833 272.167,296.833 274.5,298.5C 274.833,299.5 275.5,300.167 276.5,300.5C 276.5,301.833 277.167,302.5 278.5,302.5C 278.738,304.404 279.738,305.738 281.5,306.5C 281.833,307.5 282.5,308.167 283.5,308.5C 284.419,311.089 286.086,313.089 288.5,314.5C 289.167,315.833 290.167,316.833 291.5,317.5C 291.427,319.027 292.094,320.027 293.5,320.5C 293.66,322.153 294.326,323.486 295.5,324.5C 294.294,326.437 294.627,328.104 296.5,329.5C 295.937,334.088 294.604,338.421 292.5,342.5C 290.5,343.833 288.833,345.5 287.5,347.5C 285.847,347.66 284.514,348.326 283.5,349.5C 282.167,349.167 280.833,348.833 279.5,348.5C 278.713,346.896 277.38,346.229 275.5,346.5C 275.158,345.662 274.492,345.328 273.5,345.5C 272.198,343.178 270.198,341.845 267.5,341.5C 266.833,340.167 265.833,339.167 264.5,338.5C 261.833,335.167 258.833,332.167 255.5,329.5C 255.262,327.596 254.262,326.262 252.5,325.5C 252.34,323.847 251.674,322.514 250.5,321.5C 250.573,319.973 249.906,318.973 248.5,318.5C 248.34,316.847 247.674,315.514 246.5,314.5C 247.28,312.17 246.613,310.17 244.5,308.5C 244.149,305.097 243.482,301.763 242.5,298.5C 244.167,297.5 245.5,296.167 246.5,294.5C 247.167,294.5 247.5,294.167 247.5,293.5C 249.153,293.34 250.486,292.674 251.5,291.5C 257.241,290.223 262.907,290.557 268.5,292.5 Z" fill="#ffffff" style="opacity:0.997"/></g>
<g><path d="M 246.5,141.5 C 246.735,146.546 245.735,151.213 243.5,155.5C 243.87,150.578 244.87,145.911 246.5,141.5 Z" fill="#ffffff" style="opacity:0.22"/></g>
<g><path d="M 407.5,148.5 C 410.228,148.171 412.562,148.837 414.5,150.5C 411.933,150.279 409.599,149.612 407.5,148.5 Z" fill="#ffffff" style="opacity:0.092"/></g>
<g><path d="M 378.5,148.5 C 376.898,150.074 374.898,150.741 372.5,150.5C 374.102,148.926 376.102,148.259 378.5,148.5 Z" fill="#ffffff" style="opacity:0.729"/></g>
<g><path d="M 71.5,150.5 C 74.0892,151.419 76.0892,153.086 77.5,155.5C 74.9108,154.581 72.9108,152.914 71.5,150.5 Z" fill="#ffffff" style="opacity:0.027"/></g>
<g><path d="M 414.5,150.5 C 417.228,150.171 419.562,150.837 421.5,152.5C 418.933,152.279 416.599,151.612 414.5,150.5 Z" fill="#ffffff" style="opacity:0.09"/></g>
<g><path d="M 62.5,150.5 C 66.8333,154.167 70.8333,158.167 74.5,162.5C 69.5,159.5 65.5,155.5 62.5,150.5 Z" fill="#ffffff" style="opacity:0.012"/></g>
<g><path d="M 371.5,150.5 C 369.485,151.924 367.152,152.59 364.5,152.5C 366.539,151.422 368.706,150.422 371,149.5C 371.399,149.728 371.565,150.062 371.5,150.5 Z" fill="#ffffff" style="opacity:0.584"/></g>
<g><path d="M 237.5,148.5 C 237.946,151.01 237.28,153.01 235.5,154.5C 235.595,152.214 236.262,150.214 237.5,148.5 Z" fill="#ffffff" style="opacity:0.694"/></g>
<g><path d="M 108.5,148.5 C 110.217,151.845 110.884,155.511 110.5,159.5C 109.313,156.054 108.646,152.387 108.5,148.5 Z" fill="#ffffff" style="opacity:0.094"/></g>
<g><path d="M 364.5,152.5 C 362.898,154.074 360.898,154.741 358.5,154.5C 360.214,153.262 362.214,152.595 364.5,152.5 Z" fill="#ffffff" style="opacity:0.576"/></g>
<g><path d="M 409.5,156.5 C 396.01,154.824 382.677,155.491 369.5,158.5C 372.503,156.738 375.837,155.572 379.5,155C 387.833,154.333 396.167,154.333 404.5,155C 406.382,155.198 408.048,155.698 409.5,156.5 Z" fill="#ffffff" style="opacity:0.09"/></g>
<g><path d="M 358.5,154.5 C 357.22,155.931 355.553,156.598 353.5,156.5C 354.78,155.069 356.447,154.402 358.5,154.5 Z" fill="#ffffff" style="opacity:0.098"/></g>
<g><path d="M 424.5,153.5 C 430.26,154.878 435.26,157.545 439.5,161.5C 434.333,159.084 429.333,156.418 424.5,153.5 Z" fill="#ffffff" style="opacity:0.055"/></g>
<g><path d="M 77.5,155.5 C 80.7843,157.117 83.4509,159.45 85.5,162.5C 82.1898,160.854 79.5232,158.52 77.5,155.5 Z" fill="#ffffff" style="opacity:0.004"/></g>
<g><path d="M 243.5,155.5 C 243.88,157.698 243.213,159.365 241.5,160.5C 241.402,158.447 242.069,156.78 243.5,155.5 Z" fill="#ffffff" style="opacity:0.033"/></g>
<g><path d="M 279.5,151.5 C 280.171,159.803 278.504,167.47 274.5,174.5C 276.825,166.865 278.492,159.198 279.5,151.5 Z" fill="#ffffff" style="opacity:0.159"/></g>
<g><path d="M 410.5,156.5 C 412.786,156.595 414.786,157.262 416.5,158.5C 414.102,158.741 412.102,158.074 410.5,156.5 Z" fill="#ffffff" style="opacity:0.027"/></g>
<g><path d="M 417.5,158.5 C 420.491,158.166 422.824,159.166 424.5,161.5C 421.843,161.065 419.509,160.065 417.5,158.5 Z" fill="#ffffff" style="opacity:0.714"/></g>
<g><path d="M 351.5,157.5 C 349.151,159.341 346.485,160.674 343.5,161.5C 345.579,159.127 348.246,157.794 351.5,157.5 Z" fill="#ffffff" style="opacity:0.118"/></g>
<g><path d="M 369.5,158.5 C 367.898,160.074 365.898,160.741 363.5,160.5C 365.214,159.262 367.214,158.595 369.5,158.5 Z" fill="#ffffff" style="opacity:0.008"/></g>
<g><path d="M 125.5,160.5 C 127.749,161.08 129.415,162.413 130.5,164.5C 128.251,163.92 126.585,162.587 125.5,160.5 Z" fill="#ffffff" style="opacity:0.514"/></g>
<g><path d="M 156.5,158.5 C 155.062,162.274 152.395,164.607 148.5,165.5C 151.141,163.196 153.808,160.862 156.5,158.5 Z" fill="#ffffff" style="opacity:0.055"/></g>
<g><path d="M 234.5,157.5 C 234.116,161.272 232.45,164.272 229.5,166.5C 230.917,163.331 232.583,160.331 234.5,157.5 Z" fill="#ffffff" style="opacity:0.208"/></g>
<g><path d="M 102.5,155.5 C 103.957,160.598 104.624,165.931 104.5,171.5C 103.043,166.402 102.376,161.069 102.5,155.5 Z" fill="#ffffff" style="opacity:0.026"/></g>
<g><path d="M 439.5,161.5 C 441.027,161.427 442.027,162.094 442.5,163.5C 440.973,163.573 439.973,162.906 439.5,161.5 Z" fill="#ffffff" style="opacity:0.004"/></g>
<g><path d="M 271.5,158.5 C 271.58,161.781 270.913,164.781 269.5,167.5C 269.42,164.219 270.087,161.219 271.5,158.5 Z" fill="#ffffff" style="opacity:0.427"/></g>
<g><path d="M 343.5,161.5 C 342.486,162.674 341.153,163.34 339.5,163.5C 340.287,161.896 341.62,161.229 343.5,161.5 Z" fill="#ffffff" style="opacity:0.337"/></g>
<g><path d="M 74.5,162.5 C 75.5,162.833 76.1667,163.5 76.5,164.5C 75.1667,164.5 74.5,163.833 74.5,162.5 Z" fill="#ffffff" style="opacity:0.008"/></g>
<g><path d="M 85.5,162.5 C 87.754,163.124 89.4206,164.457 90.5,166.5C 88.2054,165.864 86.5387,164.531 85.5,162.5 Z" fill="#ffffff" style="opacity:0.008"/></g>
<g><path d="M 241.5,160.5 C 240.873,164.42 239.207,167.753 236.5,170.5C 237.659,166.849 239.326,163.515 241.5,160.5 Z" fill="#ffffff" style="opacity:0.059"/></g>
<g><path d="M 442.5,163.5 C 443.833,163.5 444.5,164.167 444.5,165.5C 443.5,165.167 442.833,164.5 442.5,163.5 Z" fill="#ffffff" style="opacity:0.004"/></g>
<g><path d="M 339.5,163.5 C 338.486,164.674 337.153,165.34 335.5,165.5C 336.287,163.896 337.62,163.229 339.5,163.5 Z" fill="#ffffff" style="opacity:0.278"/></g>
<g><path d="M 363.5,160.5 C 356.864,163.493 350.197,166.493 343.5,169.5C 349.396,164.971 356.062,161.971 363.5,160.5 Z" fill="#ffffff" style="opacity:0.239"/></g>
<g><path d="M 444.5,165.5 C 446.749,166.08 448.415,167.413 449.5,169.5C 447.251,168.92 445.585,167.587 444.5,165.5 Z" fill="#ffffff" style="opacity:0.055"/></g>
<g><path d="M 76.5,164.5 C 79.4274,165.757 81.7607,167.757 83.5,170.5C 80.5726,169.243 78.2393,167.243 76.5,164.5 Z" fill="#ffffff" style="opacity:0.373"/></g>
<g><path d="M 132.5,165.5 C 137.842,166.761 143.175,166.761 148.5,165.5C 146.193,167.047 143.527,167.713 140.5,167.5C 137.473,167.713 134.807,167.047 132.5,165.5 Z" fill="#ffffff" style="opacity:0.047"/></g>
<g><path d="M 335.5,165.5 C 335.027,166.906 334.027,167.573 332.5,167.5C 332.973,166.094 333.973,165.427 335.5,165.5 Z" fill="#ffffff" style="opacity:0.365"/></g>
<g><path d="M 432.5,165.5 C 434.404,165.738 435.738,166.738 436.5,168.5C 434.596,168.262 433.262,167.262 432.5,165.5 Z" fill="#ffffff" style="opacity:0.349"/></g>
<g><path d="M 90.5,166.5 C 91.8333,167.167 92.8333,168.167 93.5,169.5C 91.5,169.5 90.5,168.5 90.5,166.5 Z" fill="#ffffff" style="opacity:0.557"/></g>
<g><path d="M 332.5,167.5 C 332.027,168.906 331.027,169.573 329.5,169.5C 329.973,168.094 330.973,167.427 332.5,167.5 Z" fill="#ffffff" style="opacity:0.384"/></g>
<g><path d="M 83.5,170.5 C 86.0892,171.419 88.0892,173.086 89.5,175.5C 86.9108,174.581 84.9108,172.914 83.5,170.5 Z" fill="#ffffff" style="opacity:0.518"/></g>
<g><path d="M 94.5,170.5 C 96.4044,170.738 97.7377,171.738 98.5,173.5C 96.5956,173.262 95.2623,172.262 94.5,170.5 Z" fill="#ffffff" style="opacity:0.027"/></g>
<g><path d="M 329.5,169.5 C 327.45,171.547 325.117,173.214 322.5,174.5C 323.992,171.677 326.326,170.01 329.5,169.5 Z" fill="#ffffff" style="opacity:0.027"/></g>
<g><path d="M 343.5,169.5 C 342.713,171.104 341.38,171.771 339.5,171.5C 340.514,170.326 341.847,169.66 343.5,169.5 Z" fill="#ffffff" style="opacity:0.11"/></g>
<g><path d="M 438.5,169.5 C 439.5,169.833 440.167,170.5 440.5,171.5C 439.167,171.5 438.5,170.833 438.5,169.5 Z" fill="#ffffff" style="opacity:0.004"/></g>
<g><path d="M 449.5,169.5 C 451.19,169.856 452.19,170.856 452.5,172.5C 450.81,172.144 449.81,171.144 449.5,169.5 Z" fill="#ffffff" style="opacity:0.004"/></g>
<g><path d="M 229.5,167.5 C 228.581,170.089 226.914,172.089 224.5,173.5C 225.419,170.911 227.086,168.911 229.5,167.5 Z" fill="#ffffff" style="opacity:0.224"/></g>
<g><path d="M 236.5,170.5 C 236.573,172.027 235.906,173.027 234.5,173.5C 234.427,171.973 235.094,170.973 236.5,170.5 Z" fill="#ffffff" style="opacity:0.02"/></g>
<g><path d="M 440.5,171.5 C 443.427,172.757 445.761,174.757 447.5,177.5C 444.573,176.243 442.239,174.243 440.5,171.5 Z" fill="#ffffff" style="opacity:0.365"/></g>
<g><path d="M 269.5,167.5 C 268.958,170.912 267.625,173.912 265.5,176.5C 266.059,173.057 267.393,170.057 269.5,167.5 Z" fill="#ffffff" style="opacity:0.075"/></g>
<g><path d="M 339.5,171.5 C 339.027,172.906 338.027,173.573 336.5,173.5C 336.973,172.094 337.973,171.427 339.5,171.5 Z" fill="#ffffff" style="opacity:0.012"/></g>
<g><path d="M 37.5,173.5 C 38.8333,174.167 38.8333,174.167 37.5,173.5 Z" fill="#ffffff" style="opacity:0.004"/></g>
<g><path d="M 234.5,173.5 C 234.262,175.404 233.262,176.738 231.5,177.5C 231.738,175.596 232.738,174.262 234.5,173.5 Z" fill="#ffffff" style="opacity:0.012"/></g>
<g><path d="M 89.5,175.5 C 92.7642,177.094 95.4309,179.427 97.5,182.5C 94.2358,180.906 91.5691,178.573 89.5,175.5 Z" fill="#ffffff" style="opacity:0.631"/></g>
<g><path d="M 104.5,172.5 C 105.797,174.693 105.797,177.027 104.5,179.5C 103.893,179.376 103.56,179.043 103.5,178.5C 104.461,176.735 104.795,174.735 104.5,172.5 Z" fill="#ffffff" style="opacity:0.237"/></g>
<g><path d="M 101.5,176.5 C 102.833,176.5 103.5,177.167 103.5,178.5C 102.5,178.167 101.833,177.5 101.5,176.5 Z" fill="#ffffff" style="opacity:0.016"/></g>
<g><path d="M 322.5,174.5 C 320.761,177.243 318.427,179.243 315.5,180.5C 317.239,177.757 319.573,175.757 322.5,174.5 Z" fill="#ffffff" style="opacity:0.439"/></g>
<g><path d="M 336.5,173.5 C 334.704,175.9 332.37,177.567 329.5,178.5C 330.992,175.677 333.326,174.01 336.5,173.5 Z" fill="#ffffff" style="opacity:0.012"/></g>
<g><path d="M 452.5,172.5 C 454.914,173.911 456.581,175.911 457.5,178.5C 455.086,177.089 453.419,175.089 452.5,172.5 Z" fill="#ffffff" style="opacity:0.529"/></g>
<g><path d="M 224.5,173.5 C 221.446,178.887 217.113,182.887 211.5,185.5C 215.807,181.528 220.141,177.528 224.5,173.5 Z" fill="#ffffff" style="opacity:0.459"/></g>
<g><path d="M 447.5,177.5 C 449.587,178.585 450.92,180.251 451.5,182.5C 449.413,181.415 448.08,179.749 447.5,177.5 Z" fill="#ffffff" style="opacity:0.043"/></g>
<g><path d="M 230.5,178.5 C 230.5,179.833 229.833,180.5 228.5,180.5C 228.833,179.5 229.5,178.833 230.5,178.5 Z" fill="#ffffff" style="opacity:0.016"/></g>
<g><path d="M 273.5,176.5 C 273.771,178.38 273.104,179.713 271.5,180.5C 271.66,178.847 272.326,177.514 273.5,176.5 Z" fill="#ffffff" style="opacity:0.09"/></g>
<g><path d="M 112.5,178.5 C 113.972,181.077 114.972,183.911 115.5,187C 114.503,237.762 114.169,288.595 114.5,339.5C 113.778,339.082 113.278,338.416 113,337.5C 112.5,284.501 112.333,231.501 112.5,178.5 Z" fill="#ffffff" style="opacity:0.012"/></g>
<g><path d="M 228.5,180.5 C 228.5,181.833 227.833,182.5 226.5,182.5C 226.833,181.5 227.5,180.833 228.5,180.5 Z" fill="#ffffff" style="opacity:0.004"/></g>
<g><path d="M 440.5,184.5 C 434.959,182.267 429.293,181.933 423.5,183.5C 425.634,181.967 428.134,181.3 431,181.5C 432.833,181.667 434.667,181.833 436.5,182C 438.32,182.2 439.653,183.034 440.5,184.5 Z" fill="#ffffff" style="opacity:0.076"/></g>
<g><path d="M 457.5,178.5 C 459.587,179.585 460.92,181.251 461.5,183.5C 459.413,182.415 458.08,180.749 457.5,178.5 Z" fill="#ffffff" style="opacity:0.18"/></g>
<g><path d="M 264.5,178.5 C 264.155,181.198 262.822,183.198 260.5,184.5C 260.845,181.802 262.178,179.802 264.5,178.5 Z" fill="#ffffff" style="opacity:0.18"/></g>
<g><path d="M 271.5,180.5 C 271.539,183.089 270.539,185.089 268.5,186.5C 268.992,184.181 269.992,182.181 271.5,180.5 Z" fill="#ffffff" style="opacity:0.173"/></g>
<g><path d="M 440.5,184.5 C 441.492,184.328 442.158,184.662 442.5,185.5C 443.767,187.773 445.433,189.773 447.5,191.5C 448.674,192.514 449.34,193.847 449.5,195.5C 449.533,199.869 449.2,204.202 448.5,208.5C 446.196,211.141 443.862,213.808 441.5,216.5C 441.027,217.906 440.027,218.573 438.5,218.5C 436.326,218.75 434.659,219.75 433.5,221.5C 431.973,221.427 430.973,222.094 430.5,223.5C 428.326,223.75 426.659,224.75 425.5,226.5C 425.158,227.338 424.492,227.672 423.5,227.5C 422.5,227.833 421.833,228.5 421.5,229.5C 421.158,230.338 420.492,230.672 419.5,230.5C 417.973,230.427 416.973,231.094 416.5,232.5C 416.158,233.338 415.492,233.672 414.5,233.5C 412.973,233.427 411.973,234.094 411.5,235.5C 409.178,237.664 406.511,239.331 403.5,240.5C 401.973,240.427 400.973,241.094 400.5,242.5C 398.597,242.796 396.93,243.463 395.5,244.5C 392.269,245.782 388.936,245.782 385.5,244.5C 384.486,243.326 383.153,242.66 381.5,242.5C 380.415,240.413 378.749,239.08 376.5,238.5C 376.34,236.847 375.674,235.514 374.5,234.5C 373.22,228.847 373.22,223.18 374.5,217.5C 376.262,216.738 377.262,215.404 377.5,213.5C 380.117,212.214 382.45,210.547 384.5,208.5C 387.198,208.155 389.198,206.822 390.5,204.5C 392.027,204.573 393.027,203.906 393.5,202.5C 393.842,201.662 394.508,201.328 395.5,201.5C 398.511,200.331 401.178,198.664 403.5,196.5C 405.404,196.262 406.738,195.262 407.5,193.5C 407.842,192.662 408.508,192.328 409.5,192.5C 412.198,192.155 414.198,190.822 415.5,188.5C 415.842,187.662 416.508,187.328 417.5,187.5C 419.027,187.573 420.027,186.906 420.5,185.5C 422.027,185.573 423.027,184.906 423.5,183.5C 429.293,181.933 434.959,182.267 440.5,184.5 Z" fill="#ffffff" style="opacity:0.999"/></g>
<g><path d="M 226.5,182.5 C 226.167,184.833 224.833,186.167 222.5,186.5C 223.5,184.833 224.833,183.5 226.5,182.5 Z" fill="#ffffff" style="opacity:0.008"/></g>
<g><path d="M 423.5,183.5 C 423.027,184.906 422.027,185.573 420.5,185.5C 420.973,184.094 421.973,183.427 423.5,183.5 Z" fill="#ffffff" style="opacity:0.357"/></g>
<g><path d="M 98.5,183.5 C 99.8333,184.167 100.833,185.167 101.5,186.5C 99.5,186.5 98.5,185.5 98.5,183.5 Z" fill="#ffffff" style="opacity:0.053"/></g>
<g><path d="M 324.5,182.5 C 323.415,184.587 321.749,185.92 319.5,186.5C 320.585,184.413 322.251,183.08 324.5,182.5 Z" fill="#ffffff" style="opacity:0.004"/></g>
<g><path d="M 461.5,183.5 C 462.906,183.973 463.573,184.973 463.5,186.5C 462.094,186.027 461.427,185.027 461.5,183.5 Z" fill="#ffffff" style="opacity:0.157"/></g>
<g><path d="M 101.5,186.5 C 103.027,186.427 104.027,187.094 104.5,188.5C 102.973,188.573 101.973,187.906 101.5,186.5 Z" fill="#ffffff" style="opacity:0.475"/></g>
<g><path d="M 260.5,184.5 C 260.573,186.027 259.906,187.027 258.5,187.5C 258.427,185.973 259.094,184.973 260.5,184.5 Z" fill="#ffffff" style="opacity:0.267"/></g>
<g><path d="M 420.5,185.5 C 420.027,186.906 419.027,187.573 417.5,187.5C 417.973,186.094 418.973,185.427 420.5,185.5 Z" fill="#ffffff" style="opacity:0.592"/></g>
<g><path d="M 258.5,187.5 C 258.167,188.5 257.5,189.167 256.5,189.5C 256.5,188.167 257.167,187.5 258.5,187.5 Z" fill="#ffffff" style="opacity:0.169"/></g>
<g><path d="M 442.5,185.5 C 445.261,186.593 446.927,188.593 447.5,191.5C 445.433,189.773 443.767,187.773 442.5,185.5 Z" fill="#ffffff" style="opacity:0.075"/></g>
<g><path d="M 463.5,186.5 C 465.104,187.287 465.771,188.62 465.5,190.5C 464.326,189.486 463.66,188.153 463.5,186.5 Z" fill="#ffffff" style="opacity:0.027"/></g>
<g><path d="M 221.5,187.5 C 220.738,189.262 219.404,190.262 217.5,190.5C 218.262,188.738 219.596,187.738 221.5,187.5 Z" fill="#ffffff" style="opacity:0.008"/></g>
<g><path d="M 415.5,188.5 C 414.198,190.822 412.198,192.155 409.5,192.5C 411.147,190.674 413.147,189.34 415.5,188.5 Z" fill="#ffffff" style="opacity:0.435"/></g>
<g><path d="M 217.5,190.5 C 217.027,191.906 216.027,192.573 214.5,192.5C 214.973,191.094 215.973,190.427 217.5,190.5 Z" fill="#ffffff" style="opacity:0.012"/></g>
<g><path d="M 256.5,189.5 C 256.167,191.833 254.833,193.167 252.5,193.5C 253.5,191.833 254.833,190.5 256.5,189.5 Z" fill="#ffffff" style="opacity:0.655"/></g>
<g><path d="M 268.5,186.5 C 267.471,189.891 265.471,192.557 262.5,194.5C 264.016,191.467 266.016,188.8 268.5,186.5 Z" fill="#ffffff" style="opacity:0.02"/></g>
<g><path d="M 454.5,186.5 C 458.147,190.443 460.814,195.11 462.5,200.5C 459.343,196.194 456.676,191.528 454.5,186.5 Z" fill="#ffffff" style="opacity:0.137"/></g>
<g><path d="M 315.5,180.5 C 310.5,186.167 305.167,191.5 299.5,196.5C 303.833,190.167 309.167,184.833 315.5,180.5 Z" fill="#ffffff" style="opacity:0.357"/></g>
<g><path d="M 210.5,185.5 C 201.831,192.489 191.831,196.156 180.5,196.5C 191.054,194.566 201.054,190.899 210.5,185.5 Z" fill="#ffffff" style="opacity:0.569"/></g>
<g><path d="M 212.5,193.5 C 210.66,195.669 208.326,197.002 205.5,197.5C 207.336,195.412 209.669,194.079 212.5,193.5 Z" fill="#ffffff" style="opacity:0.11"/></g>
<g><path d="M 315.5,190.5 C 313.5,193.167 311.167,195.5 308.5,197.5C 309.833,194.167 312.167,191.833 315.5,190.5 Z" fill="#ffffff" style="opacity:0.067"/></g>
<g><path d="M 407.5,193.5 C 406.738,195.262 405.404,196.262 403.5,196.5C 404.262,194.738 405.596,193.738 407.5,193.5 Z" fill="#ffffff" style="opacity:0.38"/></g>
<g><path d="M 466.5,192.5 C 468.104,193.287 468.771,194.62 468.5,196.5C 467.326,195.486 466.66,194.153 466.5,192.5 Z" fill="#ffffff" style="opacity:0.137"/></g>
<g><path d="M 219.5,195.5 C 220.833,196.167 220.833,196.167 219.5,195.5 Z" fill="#ffffff" style="opacity:0.004"/></g>
<g><path d="M 252.5,193.5 C 251.089,195.914 249.089,197.581 246.5,198.5C 247.911,196.086 249.911,194.419 252.5,193.5 Z" fill="#ffffff" style="opacity:0.31"/></g>
<g><path d="M 449.5,195.5 C 450.16,196.964 450.493,198.631 450.5,200.5C 450.618,203.486 449.952,206.152 448.5,208.5C 449.2,204.202 449.533,199.869 449.5,195.5 Z" fill="#ffffff" style="opacity:0.135"/></g>
<g><path d="M 246.5,198.5 C 246.027,199.906 245.027,200.573 243.5,200.5C 243.973,199.094 244.973,198.427 246.5,198.5 Z" fill="#ffffff" style="opacity:0.565"/></g>
<g><path d="M 403.5,196.5 C 401.178,198.664 398.511,200.331 395.5,201.5C 397.484,198.836 400.151,197.169 403.5,196.5 Z" fill="#ffffff" style="opacity:0.247"/></g>
<g><path d="M 299.5,196.5 C 298.581,199.089 296.914,201.089 294.5,202.5C 295.419,199.911 297.086,197.911 299.5,196.5 Z" fill="#ffffff" style="opacity:0.325"/></g>
<g><path d="M 256.5,199.5 C 255.422,202.908 253.089,204.908 249.5,205.5C 251.808,203.529 254.142,201.529 256.5,199.5 Z" fill="#ffffff" style="opacity:0.031"/></g>
<g><path d="M 200.5,199.5 C 196.092,201.969 191.425,203.636 186.5,204.5C 185.624,204.631 184.957,204.298 184.5,203.5C 189.762,201.851 195.095,200.518 200.5,199.5 Z" fill="#ffffff" style="opacity:0.094"/></g>
<g><path d="M 243.5,200.5 C 242.313,202.975 240.313,203.975 237.5,203.5C 239.181,201.992 241.181,200.992 243.5,200.5 Z" fill="#ffffff" style="opacity:0.761"/></g>
<g><path d="M 307.5,198.5 C 306.243,201.427 304.243,203.761 301.5,205.5C 302.757,202.573 304.757,200.239 307.5,198.5 Z" fill="#ffffff" style="opacity:0.02"/></g>
<g><path d="M 393.5,202.5 C 393.027,203.906 392.027,204.573 390.5,204.5C 390.973,203.094 391.973,202.427 393.5,202.5 Z" fill="#ffffff" style="opacity:0.345"/></g>
<g><path d="M 462.5,200.5 C 463.931,201.78 464.598,203.447 464.5,205.5C 463.069,204.22 462.402,202.553 462.5,200.5 Z" fill="#ffffff" style="opacity:0.231"/></g>
<g><path d="M 186.5,204.5 C 190.922,205.865 195.255,207.198 199.5,208.5C 194.588,208.75 190.255,207.416 186.5,204.5 Z" fill="#ffffff" style="opacity:0.102"/></g>
<g><path d="M 235.5,204.5 C 232.044,207.208 228.044,208.541 223.5,208.5C 227.353,206.993 231.353,205.66 235.5,204.5 Z" fill="#ffffff" style="opacity:0.041"/></g>
<g><path d="M 249.5,205.5 C 247.017,208.741 243.684,210.408 239.5,210.5C 242.795,208.853 246.128,207.186 249.5,205.5 Z" fill="#ffffff" style="opacity:0.016"/></g>
<g><path d="M 176.5,207.5 C 177.167,207.5 177.5,207.833 177.5,208.5C 176.833,228.167 176.167,247.833 175.5,267.5C 175.17,247.326 175.503,227.326 176.5,207.5 Z" fill="#ffffff" style="opacity:0.005"/></g>
<g><path d="M 293.5,203.5 C 291.854,206.81 289.52,209.477 286.5,211.5C 288.117,208.216 290.45,205.549 293.5,203.5 Z" fill="#ffffff" style="opacity:0.259"/></g>
<g><path d="M 300.5,206.5 C 300.5,207.833 299.833,208.5 298.5,208.5C 298.833,207.5 299.5,206.833 300.5,206.5 Z" fill="#ffffff" style="opacity:0.016"/></g>
<g><path d="M 390.5,204.5 C 389.198,206.822 387.198,208.155 384.5,208.5C 386.147,206.674 388.147,205.34 390.5,204.5 Z" fill="#ffffff" style="opacity:0.357"/></g>
<g><path d="M 464.5,205.5 C 465.738,207.214 466.405,209.214 466.5,211.5C 464.926,209.898 464.259,207.898 464.5,205.5 Z" fill="#ffffff" style="opacity:0.012"/></g>
<g><path d="M 470.5,202.5 C 473.19,205.569 474.523,209.236 474.5,213.5C 472.938,210.018 471.605,206.352 470.5,202.5 Z" fill="#ffffff" style="opacity:0.052"/></g>
<g><path d="M 10.5,209.5 C 11.8333,210.167 11.8333,210.167 10.5,209.5 Z" fill="#ffffff" style="opacity:0.004"/></g>
<g><path d="M 199.5,208.5 C 207.495,209.739 215.495,209.739 223.5,208.5C 219.594,209.94 215.427,210.606 211,210.5C 206.888,210.651 203.054,209.984 199.5,208.5 Z" fill="#ffffff" style="opacity:0.427"/></g>
<g><path d="M 478.5,209.5 C 479.833,210.167 479.833,210.167 478.5,209.5 Z" fill="#ffffff" style="opacity:0.004"/></g>
<g><path d="M 182.5,210.5 C 184.153,210.66 185.486,211.326 186.5,212.5C 184.62,212.771 183.287,212.104 182.5,210.5 Z" fill="#ffffff" style="opacity:0.078"/></g>
<g><path d="M 384.5,208.5 C 382.45,210.547 380.117,212.214 377.5,213.5C 378.992,210.677 381.326,209.01 384.5,208.5 Z" fill="#ffffff" style="opacity:0.776"/></g>
<g><path d="M 186.5,212.5 C 190.116,212.899 193.45,213.899 196.5,215.5C 192.786,215.41 189.452,214.41 186.5,212.5 Z" fill="#ffffff" style="opacity:0.047"/></g>
<g><path d="M 448.5,208.5 C 447.569,212.429 445.236,215.095 441.5,216.5C 443.862,213.808 446.196,211.141 448.5,208.5 Z" fill="#ffffff" style="opacity:0.051"/></g>
<g><path d="M 487.5,213.5 C 488.833,214.167 488.833,214.167 487.5,213.5 Z" fill="#ffffff" style="opacity:0.004"/></g>
<g><path d="M 296.5,211.5 C 295.219,214.447 293.219,216.781 290.5,218.5C 291.81,215.527 293.81,213.193 296.5,211.5 Z" fill="#ffffff" style="opacity:0.004"/></g>
<g><path d="M 377.5,213.5 C 377.262,215.404 376.262,216.738 374.5,217.5C 374.738,215.596 375.738,214.262 377.5,213.5 Z" fill="#ffffff" style="opacity:0.443"/></g>
<g><path d="M 236.5,212.5 C 225.545,217.219 214.212,218.552 202.5,216.5C 214.04,216.858 225.373,215.525 236.5,212.5 Z" fill="#ffffff" style="opacity:0.014"/></g>
<g><path d="M 466.5,211.5 C 468.118,214.171 468.785,217.171 468.5,220.5C 467.087,217.781 466.42,214.781 466.5,211.5 Z" fill="#ffffff" style="opacity:0.106"/></g>
<g><path d="M 438.5,218.5 C 437.341,220.25 435.674,221.25 433.5,221.5C 434.659,219.75 436.326,218.75 438.5,218.5 Z" fill="#ffffff" style="opacity:0.098"/></g>
<g><path d="M 286.5,211.5 C 285.25,213.932 283.75,216.266 282,218.5C 280.549,220.464 278.716,221.797 276.5,222.5C 279.609,218.603 282.943,214.936 286.5,211.5 Z" fill="#ffffff" style="opacity:0.608"/></g>
<g><path d="M 288.5,220.5 C 292.881,221.257 297.214,222.257 301.5,223.5C 296.74,223.487 292.074,222.82 287.5,221.5C 287.624,220.893 287.957,220.56 288.5,220.5 Z" fill="#ffffff" style="opacity:0.047"/></g>
<g><path d="M 433.5,221.5 C 433.027,222.906 432.027,223.573 430.5,223.5C 430.973,222.094 431.973,221.427 433.5,221.5 Z" fill="#ffffff" style="opacity:0.008"/></g>
<g><path d="M 374.5,217.5 C 373.22,223.18 373.22,228.847 374.5,234.5C 372.887,232.572 371.887,230.238 371.5,227.5C 371.952,223.878 372.952,220.545 374.5,217.5 Z" fill="#ffffff" style="opacity:0.729"/></g>
<g><path d="M 301.5,223.5 C 307.819,224.489 313.486,226.822 318.5,230.5C 312.676,228.342 307.01,226.009 301.5,223.5 Z" fill="#ffffff" style="opacity:0.329"/></g>
<g><path d="M 430.5,223.5 C 429.341,225.25 427.674,226.25 425.5,226.5C 426.659,224.75 428.326,223.75 430.5,223.5 Z" fill="#ffffff" style="opacity:0.188"/></g>
<g><path d="M 271.5,224.5 C 267.777,227.551 263.777,230.218 259.5,232.5C 262.678,228.664 266.678,225.998 271.5,224.5 Z" fill="#ffffff" style="opacity:0.251"/></g>
<g><path d="M 104.5,188.5 C 105.117,188.611 105.617,188.944 106,189.5C 106.5,239.832 106.667,290.166 106.5,340.5C 105.824,289.961 105.158,239.294 104.5,188.5 Z" fill="#ffffff" style="opacity:0.102"/></g>
<g><path d="M 423.5,227.5 C 423.5,228.833 422.833,229.5 421.5,229.5C 421.833,228.5 422.5,227.833 423.5,227.5 Z" fill="#ffffff" style="opacity:0.004"/></g>
<g><path d="M 278.5,229.5 C 274.508,231.83 270.508,234.163 266.5,236.5C 269.55,232.638 273.55,230.305 278.5,229.5 Z" fill="#ffffff" style="opacity:0.118"/></g>
<g><path d="M 293.5,229.5 C 296.152,229.41 298.485,230.076 300.5,231.5C 297.772,231.829 295.438,231.163 293.5,229.5 Z" fill="#ffffff" style="opacity:0.11"/></g>
<g><path d="M 319.5,230.5 C 321.027,230.427 322.027,231.094 322.5,232.5C 320.973,232.573 319.973,231.906 319.5,230.5 Z" fill="#ffffff" style="opacity:0.098"/></g>
<g><path d="M 419.5,230.5 C 419.027,231.906 418.027,232.573 416.5,232.5C 416.973,231.094 417.973,230.427 419.5,230.5 Z" fill="#ffffff" style="opacity:0.008"/></g>
<g><path d="M 300.5,231.5 C 304.292,231.726 307.959,232.56 311.5,234C 312.056,234.383 312.389,234.883 312.5,235.5C 308.215,234.738 304.215,233.405 300.5,231.5 Z" fill="#ffffff" style="opacity:0.018"/></g>
<g><path d="M 324.5,233.5 C 326.027,233.427 327.027,234.094 327.5,235.5C 325.973,235.573 324.973,234.906 324.5,233.5 Z" fill="#ffffff" style="opacity:0.008"/></g>
<g><path d="M 414.5,233.5 C 414.027,234.906 413.027,235.573 411.5,235.5C 411.973,234.094 412.973,233.427 414.5,233.5 Z" fill="#ffffff" style="opacity:0.004"/></g>
<g><path d="M 257.5,234.5 C 257.167,235.5 256.5,236.167 255.5,236.5C 255.5,235.167 256.167,234.5 257.5,234.5 Z" fill="#ffffff" style="opacity:0.173"/></g>
<g><path d="M 327.5,235.5 C 329.404,235.738 330.738,236.738 331.5,238.5C 329.596,238.262 328.262,237.262 327.5,235.5 Z" fill="#ffffff" style="opacity:0.004"/></g>
<g><path d="M 374.5,234.5 C 375.674,235.514 376.34,236.847 376.5,238.5C 374.896,237.713 374.229,236.38 374.5,234.5 Z" fill="#ffffff" style="opacity:0.173"/></g>
<g><path d="M 255.5,236.5 C 255.19,238.144 254.19,239.144 252.5,239.5C 252.81,237.856 253.81,236.856 255.5,236.5 Z" fill="#ffffff" style="opacity:0.761"/></g>
<g><path d="M 266.5,236.5 C 266.5,237.833 265.833,238.5 264.5,238.5C 264.833,237.5 265.5,236.833 266.5,236.5 Z" fill="#ffffff" style="opacity:0.004"/></g>
<g><path d="M 314.5,236.5 C 316.153,236.66 317.486,237.326 318.5,238.5C 316.62,238.771 315.287,238.104 314.5,236.5 Z" fill="#ffffff" style="opacity:0.129"/></g>
<g><path d="M 331.5,238.5 C 333.404,238.738 334.738,239.738 335.5,241.5C 333.596,241.262 332.262,240.262 331.5,238.5 Z" fill="#ffffff" style="opacity:0.008"/></g>
<g><path d="M 376.5,238.5 C 378.749,239.08 380.415,240.413 381.5,242.5C 379.251,241.92 377.585,240.587 376.5,238.5 Z" fill="#ffffff" style="opacity:0.565"/></g>
<g><path d="M 318.5,238.5 C 320.027,238.427 321.027,239.094 321.5,240.5C 319.973,240.573 318.973,239.906 318.5,238.5 Z" fill="#ffffff" style="opacity:0.275"/></g>
<g><path d="M 474.5,214.5 C 475.29,215.609 475.79,216.942 476,218.5C 477.073,230.612 476.406,242.612 474,254.5C 473.478,257.281 472.311,259.615 470.5,261.5C 475.374,246.164 476.708,230.498 474.5,214.5 Z" fill="#ffffff" style="opacity:0.078"/></g>
<g><path d="M 176.5,207.5 C 175.503,227.326 175.17,247.326 175.5,267.5C 175.831,291.672 175.498,315.672 174.5,339.5C 174.167,295.162 174.5,250.828 175.5,206.5C 176.107,206.624 176.44,206.957 176.5,207.5 Z" fill="#ffffff" style="opacity:0.579"/></g>
<g><path d="M 264.5,238.5 C 262.167,241.5 259.5,244.167 256.5,246.5C 258.167,242.833 260.833,240.167 264.5,238.5 Z" fill="#ffffff" style="opacity:0.024"/></g>
<g><path d="M 403.5,240.5 C 403.027,241.906 402.027,242.573 400.5,242.5C 400.973,241.094 401.973,240.427 403.5,240.5 Z" fill="#ffffff" style="opacity:0.047"/></g>
<g><path d="M 321.5,240.5 C 324.37,241.433 326.704,243.1 328.5,245.5C 325.63,244.567 323.296,242.9 321.5,240.5 Z" fill="#ffffff" style="opacity:0.161"/></g>
<g><path d="M 252.5,239.5 C 251.92,241.749 250.587,243.415 248.5,244.5C 249.08,242.251 250.413,240.585 252.5,239.5 Z" fill="#ffffff" style="opacity:0.243"/></g>
<g><path d="M 381.5,242.5 C 383.153,242.66 384.486,243.326 385.5,244.5C 383.62,244.771 382.287,244.104 381.5,242.5 Z" fill="#ffffff" style="opacity:0.039"/></g>
<g><path d="M 400.5,242.5 C 399.365,244.213 397.698,244.88 395.5,244.5C 396.93,243.463 398.597,242.796 400.5,242.5 Z" fill="#ffffff" style="opacity:0.016"/></g>
<g><path d="M 337.5,243.5 C 341.234,246.231 344.234,249.564 346.5,253.5C 342.766,250.769 339.766,247.436 337.5,243.5 Z" fill="#ffffff" style="opacity:0.584"/></g>
<g><path d="M 248.5,244.5 C 248.573,246.027 247.906,247.027 246.5,247.5C 246.427,245.973 247.094,244.973 248.5,244.5 Z" fill="#ffffff" style="opacity:0.212"/></g>
<g><path d="M 330.5,247.5 C 334.145,249.145 336.812,251.812 338.5,255.5C 335.548,253.215 332.882,250.548 330.5,247.5 Z" fill="#ffffff" style="opacity:0.725"/></g>
<g><path d="M 255.5,247.5 C 255.262,249.404 254.262,250.738 252.5,251.5C 252.738,249.596 253.738,248.262 255.5,247.5 Z" fill="#ffffff" style="opacity:0.008"/></g>
<g><path d="M 246.5,247.5 C 246.573,249.027 245.906,250.027 244.5,250.5C 244.427,248.973 245.094,247.973 246.5,247.5 Z" fill="#ffffff" style="opacity:0.314"/></g>
<g><path d="M 466.5,251.5 C 466.741,253.898 466.074,255.898 464.5,257.5C 464.595,255.214 465.262,253.214 466.5,251.5 Z" fill="#ffffff" style="opacity:0.102"/></g>
<g><path d="M 252.5,251.5 C 252.25,253.674 251.25,255.341 249.5,256.5C 249.75,254.326 250.75,252.659 252.5,251.5 Z" fill="#ffffff" style="opacity:0.086"/></g>
<g><path d="M 244.5,250.5 C 244.008,252.819 243.008,254.819 241.5,256.5C 241.461,253.911 242.461,251.911 244.5,250.5 Z" fill="#ffffff" style="opacity:0.11"/></g>
<g><path d="M 346.5,253.5 C 347.906,253.973 348.573,254.973 348.5,256.5C 347.094,256.027 346.427,255.027 346.5,253.5 Z" fill="#ffffff" style="opacity:0.263"/></g>
<g><path d="M 82.5,256.5 C 83.8333,257.167 83.8333,257.167 82.5,256.5 Z" fill="#ffffff" style="opacity:0.004"/></g>
<g><path d="M 338.5,255.5 C 339.906,255.973 340.573,256.973 340.5,258.5C 339.094,258.027 338.427,257.027 338.5,255.5 Z" fill="#ffffff" style="opacity:0.008"/></g>
<g><path d="M 249.5,256.5 C 249.771,258.38 249.104,259.713 247.5,260.5C 247.229,258.62 247.896,257.287 249.5,256.5 Z" fill="#ffffff" style="opacity:0.322"/></g>
<g><path d="M 348.5,256.5 C 349.906,256.973 350.573,257.973 350.5,259.5C 349.094,259.027 348.427,258.027 348.5,256.5 Z" fill="#ffffff" style="opacity:0.161"/></g>
<g><path d="M 350.5,259.5 C 351.906,259.973 352.573,260.973 352.5,262.5C 351.094,262.027 350.427,261.027 350.5,259.5 Z" fill="#ffffff" style="opacity:0.227"/></g>
<g><path d="M 219.5,262.5 C 220.833,263.167 220.833,263.167 219.5,262.5 Z" fill="#ffffff" style="opacity:0.004"/></g>
<g><path d="M 340.5,258.5 C 343.323,259.992 344.99,262.326 345.5,265.5C 343.453,263.45 341.786,261.117 340.5,258.5 Z" fill="#ffffff" style="opacity:0.071"/></g>
<g><path d="M 224.5,265.5 C 225.833,266.167 225.833,266.167 224.5,265.5 Z" fill="#ffffff" style="opacity:0.004"/></g>
<g><path d="M 356.5,270.5 C 355.662,270.158 355.328,269.492 355.5,268.5C 357.677,267.496 358.011,268.162 356.5,270.5 Z" fill="#ffffff" style="opacity:0.009"/></g>
<g><path d="M 462.5,263.5 C 460.685,269.292 457.685,274.292 453.5,278.5C 456.11,273.233 459.11,268.233 462.5,263.5 Z" fill="#ffffff" style="opacity:0.212"/></g>
<g><path d="M 237.5,266.5 C 237.59,269.152 236.924,271.485 235.5,273.5C 235.41,270.848 236.076,268.515 237.5,266.5 Z" fill="#ffffff" style="opacity:0.839"/></g>
<g><path d="M 346.5,267.5 C 348.104,268.287 348.771,269.62 348.5,271.5C 347.326,270.486 346.66,269.153 346.5,267.5 Z" fill="#ffffff" style="opacity:0.145"/></g>
<g><path d="M 468.5,267.5 C 468.771,269.38 468.104,270.713 466.5,271.5C 466.66,269.847 467.326,268.514 468.5,267.5 Z" fill="#ffffff" style="opacity:0.004"/></g>
<g><path d="M 466.5,271.5 C 465.805,274.915 464.138,277.582 461.5,279.5C 462.68,276.46 464.347,273.794 466.5,271.5 Z" fill="#ffffff" style="opacity:0.094"/></g>
<g><path d="M 461.5,279.5 C 461.573,281.027 460.906,282.027 459.5,282.5C 459.427,280.973 460.094,279.973 461.5,279.5 Z" fill="#ffffff" style="opacity:0.02"/></g>
<g><path d="M 34.5,282.5 C 35.8333,283.167 35.8333,283.167 34.5,282.5 Z" fill="#ffffff" style="opacity:0.004"/></g>
<g><path d="M 270.5,285.5 C 261.724,282.691 253.058,283.024 244.5,286.5C 243.649,284.296 244.649,282.963 247.5,282.5C 247.833,283.167 248.167,283.833 248.5,284.5C 253.223,283.03 258.057,282.03 263,281.5C 265.615,282.75 268.115,284.083 270.5,285.5 Z" fill="#ffffff" style="opacity:0.233"/></g>
<g><path d="M 359.5,278.5 C 361.281,282.2 362.281,286.2 362.5,290.5C 360.584,286.837 359.584,282.837 359.5,278.5 Z" fill="#ffffff" style="opacity:0.675"/></g>
<g><path d="M 453.5,278.5 C 451.906,281.764 449.573,284.431 446.5,286.5C 448.094,283.236 450.427,280.569 453.5,278.5 Z" fill="#ffffff" style="opacity:0.231"/></g>
<g><path d="M 272.5,286.5 C 274.027,286.427 275.027,287.094 275.5,288.5C 273.973,288.573 272.973,287.906 272.5,286.5 Z" fill="#ffffff" style="opacity:0.004"/></g>
<g><path d="M 352.5,281.5 C 354.163,283.438 354.829,285.772 354.5,288.5C 353.076,286.485 352.41,284.152 352.5,281.5 Z" fill="#ffffff" style="opacity:0.145"/></g>
<g><path d="M 457.5,285.5 C 457.5,286.833 456.833,287.5 455.5,287.5C 455.833,286.5 456.5,285.833 457.5,285.5 Z" fill="#ffffff" style="opacity:0.004"/></g>
<g><path d="M 242.5,277.5 C 242.74,280.579 242.407,283.579 241.5,286.5C 241.957,287.298 242.624,287.631 243.5,287.5C 242.791,288.404 241.791,288.737 240.5,288.5C 240.116,284.511 240.783,280.845 242.5,277.5 Z" fill="#ffffff" style="opacity:0.4"/></g>
<g><path d="M 234.5,279.5 C 234.501,287.517 234.834,295.517 235.5,303.5C 233.486,302.158 233.153,300.492 234.5,298.5C 231.926,292.013 231.926,285.68 234.5,279.5 Z" fill="#ffffff" style="opacity:0.294"/></g>
<g><path d="M 275.5,288.5 C 277.773,288.957 279.106,290.29 279.5,292.5C 277.659,291.598 276.326,290.264 275.5,288.5 Z" fill="#ffffff" style="opacity:0.008"/></g>
<g><path d="M 251.5,291.5 C 250.486,292.674 249.153,293.34 247.5,293.5C 248.287,291.896 249.62,291.229 251.5,291.5 Z" fill="#ffffff" style="opacity:0.008"/></g>
<g><path d="M 444.5,288.5 C 442.431,291.573 439.764,293.906 436.5,295.5C 438.569,292.427 441.236,290.094 444.5,288.5 Z" fill="#ffffff" style="opacity:0.42"/></g>
<g><path d="M 451.5,291.5 C 451.5,293.5 450.5,294.5 448.5,294.5C 449.167,293.167 450.167,292.167 451.5,291.5 Z" fill="#ffffff" style="opacity:0.008"/></g>
<g><path d="M 268.5,292.5 C 271.5,293.5 273.5,295.5 274.5,298.5C 272.167,296.833 270.167,294.833 268.5,292.5 Z" fill="#ffffff" style="opacity:0.49"/></g>
<g><path d="M 246.5,294.5 C 245.5,296.167 244.167,297.5 242.5,298.5C 242.833,296.167 244.167,294.833 246.5,294.5 Z" fill="#ffffff" style="opacity:0.016"/></g>
<g><path d="M 436.5,295.5 C 436.167,296.5 435.5,297.167 434.5,297.5C 434.5,296.167 435.167,295.5 436.5,295.5 Z" fill="#ffffff" style="opacity:0.196"/></g>
<g><path d="M 279.5,292.5 C 281.914,293.911 283.581,295.911 284.5,298.5C 282.086,297.089 280.419,295.089 279.5,292.5 Z" fill="#ffffff" style="opacity:0.247"/></g>
<g><path d="M 434.5,297.5 C 434.167,298.5 433.5,299.167 432.5,299.5C 432.5,298.167 433.167,297.5 434.5,297.5 Z" fill="#ffffff" style="opacity:0.192"/></g>
<g><path d="M 9.5,299.5 C 10.8333,300.167 10.8333,300.167 9.5,299.5 Z" fill="#ffffff" style="opacity:0.004"/></g>
<g><path d="M 284.5,298.5 C 287.243,300.239 289.243,302.573 290.5,305.5C 287.757,303.761 285.757,301.427 284.5,298.5 Z" fill="#ffffff" style="opacity:0.788"/></g>
<g><path d="M 446.5,296.5 C 445.089,298.914 443.089,300.581 440.5,301.5C 441.911,299.086 443.911,297.419 446.5,296.5 Z" fill="#ffffff" style="opacity:0.016"/></g>
<g><path d="M 276.5,300.5 C 277.5,300.833 278.167,301.5 278.5,302.5C 277.167,302.5 276.5,301.833 276.5,300.5 Z" fill="#ffffff" style="opacity:0.004"/></g>
<g><path d="M 354.5,288.5 C 356.44,294.776 356.774,301.109 355.5,307.5C 355.347,301.155 355.014,294.822 354.5,288.5 Z" fill="#ffffff" style="opacity:0.34"/></g>
<g><path d="M 432.5,299.5 C 431.109,301.89 429.109,303.557 426.5,304.5C 427.865,302.14 429.865,300.473 432.5,299.5 Z" fill="#ffffff" style="opacity:0.482"/></g>
<g><path d="M 440.5,301.5 C 440.5,302.833 439.833,303.5 438.5,303.5C 438.833,302.5 439.5,301.833 440.5,301.5 Z" fill="#ffffff" style="opacity:0.004"/></g>
<g><path d="M 278.5,302.5 C 280.262,303.262 281.262,304.596 281.5,306.5C 279.738,305.738 278.738,304.404 278.5,302.5 Z" fill="#ffffff" style="opacity:0.008"/></g>
<g><path d="M 292.5,307.5 C 294.587,308.585 295.92,310.251 296.5,312.5C 294.413,311.415 293.08,309.749 292.5,307.5 Z" fill="#ffffff" style="opacity:0.725"/></g>
<g><path d="M 244.5,308.5 C 246.613,310.17 247.28,312.17 246.5,314.5C 245.262,312.786 244.595,310.786 244.5,308.5 Z" fill="#ffffff" style="opacity:0.01"/></g>
<g><path d="M 283.5,308.5 C 285.914,309.911 287.581,311.911 288.5,314.5C 286.086,313.089 284.419,311.089 283.5,308.5 Z" fill="#ffffff" style="opacity:0.008"/></g>
<g><path d="M 435.5,306.5 C 434.089,308.914 432.089,310.581 429.5,311.5C 430.911,309.086 432.911,307.419 435.5,306.5 Z" fill="#ffffff" style="opacity:0.016"/></g>
<g><path d="M 424.5,306.5 C 422.1,309.903 419.1,312.57 415.5,314.5C 417.9,311.097 420.9,308.43 424.5,306.5 Z" fill="#ffffff" style="opacity:0.533"/></g>
<g><path d="M 168.5,170.5 C 168.5,220.833 168.5,271.167 168.5,321.5C 159.167,321.5 149.833,321.5 140.5,321.5C 148.568,320.82 156.735,320.153 165,319.5C 165.414,319.957 165.914,320.291 166.5,320.5C 167.167,270.335 167.833,220.335 168.5,170.5 Z" fill="#ffffff" style="opacity:0.27"/></g>
<g><path d="M 236.5,307.5 C 238.072,310.215 239.072,313.215 239.5,316.5C 238.351,316.209 237.684,315.376 237.5,314C 236.923,311.863 236.59,309.696 236.5,307.5 Z" fill="#ffffff" style="opacity:0.007"/></g>
<g><path d="M 426.5,314.5 C 425.738,316.262 424.404,317.262 422.5,317.5C 423.262,315.738 424.596,314.738 426.5,314.5 Z" fill="#ffffff" style="opacity:0.016"/></g>
<g><path d="M 298.5,314.5 C 299.906,314.973 300.573,315.973 300.5,317.5C 299.094,317.027 298.427,316.027 298.5,314.5 Z" fill="#ffffff" style="opacity:0.271"/></g>
<g><path d="M 47.5,317.5 C 48.8333,318.167 48.8333,318.167 47.5,317.5 Z" fill="#ffffff" style="opacity:0.004"/></g>
<g><path d="M 291.5,317.5 C 292.906,317.973 293.573,318.973 293.5,320.5C 292.094,320.027 291.427,319.027 291.5,317.5 Z" fill="#ffffff" style="opacity:0.008"/></g>
<g><path d="M 415.5,314.5 C 414.089,316.914 412.089,318.581 409.5,319.5C 410.911,317.086 412.911,315.419 415.5,314.5 Z" fill="#ffffff" style="opacity:0.769"/></g>
<g><path d="M 240.5,318.5 C 241.674,319.514 242.34,320.847 242.5,322.5C 240.896,321.713 240.229,320.38 240.5,318.5 Z" fill="#ffffff" style="opacity:0.012"/></g>
<g><path d="M 248.5,318.5 C 249.906,318.973 250.573,319.973 250.5,321.5C 249.094,321.027 248.427,320.027 248.5,318.5 Z" fill="#ffffff" style="opacity:0.145"/></g>
<g><path d="M 354.5,316.5 C 354.712,320.345 353.712,323.679 351.5,326.5C 351.899,322.884 352.899,319.55 354.5,316.5 Z" fill="#ffffff" style="opacity:0.51"/></g>
<g><path d="M 362.5,314.5 C 362.785,317.829 362.118,320.829 360.5,323.5C 360.215,320.171 360.882,317.171 362.5,314.5 Z" fill="#ffffff" style="opacity:0.137"/></g>
<g><path d="M 407.5,320.5 C 406.738,322.262 405.404,323.262 403.5,323.5C 404.262,321.738 405.596,320.738 407.5,320.5 Z" fill="#ffffff" style="opacity:0.286"/></g>
<g><path d="M 301.5,319.5 C 302.738,321.214 303.405,323.214 303.5,325.5C 303.5,326.167 303.5,326.833 303.5,327.5C 302.232,325.095 301.565,322.428 301.5,319.5 Z" fill="#ffffff" style="opacity:0.682"/></g>
<g><path d="M 139.5,321.5 C 137.919,323.142 137.253,325.142 137.5,327.5C 136.387,326.054 136.22,324.387 137,322.5C 137.671,321.748 138.504,321.414 139.5,321.5 Z" fill="#ffffff" style="opacity:0.098"/></g>
<g><path d="M 413.5,325.5 C 413.5,330.5 413.5,335.5 413.5,340.5C 412.517,336.702 412.183,332.702 412.5,328.5C 411.5,328.5 410.5,328.5 409.5,328.5C 410.436,327.026 411.77,326.026 413.5,325.5 Z" fill="#ffffff" style="opacity:0.011"/></g>
<g><path d="M 244.5,326.5 C 245.906,326.973 246.573,327.973 246.5,329.5C 246.167,329.5 245.833,329.5 245.5,329.5C 244.89,328.609 244.557,327.609 244.5,326.5 Z" fill="#ffffff" style="opacity:0.012"/></g>
<g><path d="M 252.5,325.5 C 254.262,326.262 255.262,327.596 255.5,329.5C 253.738,328.738 252.738,327.404 252.5,325.5 Z" fill="#ffffff" style="opacity:0.4"/></g>
<g><path d="M 295.5,324.5 C 296.451,325.919 296.784,327.585 296.5,329.5C 294.627,328.104 294.294,326.437 295.5,324.5 Z" fill="#ffffff" style="opacity:0.014"/></g>
<g><path d="M 137.5,327.5 C 147.782,328.452 158.115,328.786 168.5,328.5C 168.766,332.605 168.266,336.605 167,340.5C 166.578,342.426 165.411,343.426 163.5,343.5C 163.5,343.167 163.5,342.833 163.5,342.5C 165.117,340.879 166.284,338.879 167,336.5C 167.208,334.141 167.374,331.974 167.5,330C 157.833,329.667 148.167,329.333 138.5,329C 137.944,328.617 137.611,328.117 137.5,327.5 Z" fill="#ffffff" style="opacity:0.084"/></g>
<g><path d="M 245.5,329.5 C 244.833,330.167 244.833,330.167 245.5,329.5 Z" fill="#ffffff" style="opacity:0.004"/></g>
<g><path d="M 391.5,329.5 C 390.365,331.213 388.698,331.88 386.5,331.5C 387.78,330.069 389.447,329.402 391.5,329.5 Z" fill="#ffffff" style="opacity:0.953"/></g>
<g><path d="M 407.5,329.5 C 407.027,330.906 406.027,331.573 404.5,331.5C 404.973,330.094 405.973,329.427 407.5,329.5 Z" fill="#ffffff" style="opacity:0.012"/></g>
<g><path d="M 246.5,329.5 C 247.974,330.436 248.974,331.77 249.5,333.5C 247.554,332.965 246.554,331.632 246.5,329.5 Z" fill="#ffffff" style="opacity:0.063"/></g>
<g><path d="M 255.5,329.5 C 258.833,332.167 261.833,335.167 264.5,338.5C 260.5,336.5 257.5,333.5 255.5,329.5 Z" fill="#ffffff" style="opacity:0.4"/></g>
<g><path d="M 350.5,328.5 C 350.598,330.553 349.931,332.22 348.5,333.5C 348.402,331.447 349.069,329.78 350.5,328.5 Z" fill="#ffffff" style="opacity:0.067"/></g>
<g><path d="M 386.5,331.5 C 383.237,333.568 379.57,334.568 375.5,334.5C 378.937,333.055 382.603,332.055 386.5,331.5 Z" fill="#ffffff" style="opacity:0.639"/></g>
<g><path d="M 249.5,333.5 C 251.587,334.585 252.92,336.251 253.5,338.5C 251.413,337.415 250.08,335.749 249.5,333.5 Z" fill="#ffffff" style="opacity:0.004"/></g>
<g><path d="M 348.5,333.5 C 348.262,335.404 347.262,336.738 345.5,337.5C 345.738,335.596 346.738,334.262 348.5,333.5 Z" fill="#ffffff" style="opacity:0.341"/></g>
<g><path d="M 356.5,334.5 C 359.962,335.482 363.629,335.815 367.5,335.5C 363.649,336.809 359.649,336.809 355.5,335.5C 355.624,334.893 355.957,334.56 356.5,334.5 Z" fill="#ffffff" style="opacity:0.165"/></g>
<g><path d="M 303.5,325.5 C 305.194,332.201 304.194,338.534 300.5,344.5C 302.296,338.981 303.296,333.314 303.5,327.5C 303.5,326.833 303.5,326.167 303.5,325.5 Z" fill="#ffffff" style="opacity:0.024"/></g>
<g><path d="M 253.5,338.5 C 255.5,338.5 256.5,339.5 256.5,341.5C 255.167,340.833 254.167,339.833 253.5,338.5 Z" fill="#ffffff" style="opacity:0.643"/></g>
<g><path d="M 345.5,337.5 C 345.262,339.404 344.262,340.738 342.5,341.5C 342.738,339.596 343.738,338.262 345.5,337.5 Z" fill="#ffffff" style="opacity:0.557"/></g>
<g><path d="M 114.5,339.5 C 115.906,339.973 116.573,340.973 116.5,342.5C 115.094,342.027 114.427,341.027 114.5,339.5 Z" fill="#ffffff" style="opacity:0.173"/></g>
<g><path d="M 174.5,339.5 C 174.539,342.089 173.539,344.089 171.5,345.5C 171.992,343.181 172.992,341.181 174.5,339.5 Z" fill="#ffffff" style="opacity:0.129"/></g>
<g><path d="M 256.5,341.5 C 258.404,341.738 259.738,342.738 260.5,344.5C 258.596,344.262 257.262,343.262 256.5,341.5 Z" fill="#ffffff" style="opacity:0.498"/></g>
<g><path d="M 342.5,341.5 C 341.089,343.914 339.089,345.581 336.5,346.5C 337.911,344.086 339.911,342.419 342.5,341.5 Z" fill="#ffffff" style="opacity:0.349"/></g>
<g><path d="M 349.5,343.5 C 356.982,342.508 364.648,342.175 372.5,342.5C 365.006,344.249 357.339,344.582 349.5,343.5 Z" fill="#ffffff" style="opacity:0.596"/></g>
<g><path d="M 116.5,342.5 C 118.027,342.427 119.027,343.094 119.5,344.5C 117.973,344.573 116.973,343.906 116.5,342.5 Z" fill="#ffffff" style="opacity:0.086"/></g>
<g><path d="M 267.5,341.5 C 270.198,341.845 272.198,343.178 273.5,345.5C 271.147,344.66 269.147,343.326 267.5,341.5 Z" fill="#ffffff" style="opacity:0.251"/></g>
<g><path d="M 163.5,343.5 C 163.082,344.222 162.416,344.722 161.5,345C 147.327,345.827 133.327,345.661 119.5,344.5C 134.202,344.784 148.869,344.45 163.5,343.5 Z" fill="#ffffff" style="opacity:0.197"/></g>
<g><path d="M 292.5,342.5 C 291.833,345.167 290.167,346.833 287.5,347.5C 288.833,345.5 290.5,343.833 292.5,342.5 Z" fill="#ffffff" style="opacity:0.514"/></g>
<g><path d="M 349.5,343.5 C 349.573,345.027 348.906,346.027 347.5,346.5C 347.427,344.973 348.094,343.973 349.5,343.5 Z" fill="#ffffff" style="opacity:0.012"/></g>
<g><path d="M 108.5,344.5 C 110.167,345.5 111.5,346.833 112.5,348.5C 110.167,348.167 108.833,346.833 108.5,344.5 Z" fill="#ffffff" style="opacity:0.004"/></g>
<g><path d="M 275.5,346.5 C 277.38,346.229 278.713,346.896 279.5,348.5C 277.847,348.34 276.514,347.674 275.5,346.5 Z" fill="#ffffff" style="opacity:0.024"/></g>
<g><path d="M 299.5,345.5 C 299.573,347.027 298.906,348.027 297.5,348.5C 297.427,346.973 298.094,345.973 299.5,345.5 Z" fill="#ffffff" style="opacity:0.02"/></g>
<g><path d="M 262.5,346.5 C 264.027,346.427 265.027,347.094 265.5,348.5C 263.973,348.573 262.973,347.906 262.5,346.5 Z" fill="#ffffff" style="opacity:0.396"/></g>
<g><path d="M 336.5,346.5 C 335.341,348.25 333.674,349.25 331.5,349.5C 332.659,347.75 334.326,346.75 336.5,346.5 Z" fill="#ffffff" style="opacity:0.11"/></g>
<g><path d="M 170.5,346.5 C 170.5,348.5 169.5,349.5 167.5,349.5C 168.167,348.167 169.167,347.167 170.5,346.5 Z" fill="#ffffff" style="opacity:0.004"/></g>
<g><path d="M 112.5,348.5 C 114.027,348.427 115.027,349.094 115.5,350.5C 113.973,350.573 112.973,349.906 112.5,348.5 Z" fill="#ffffff" style="opacity:0.4"/></g>
<g><path d="M 265.5,348.5 C 267.404,348.738 268.738,349.738 269.5,351.5C 267.596,351.262 266.262,350.262 265.5,348.5 Z" fill="#ffffff" style="opacity:0.518"/></g>
<g><path d="M 279.5,348.5 C 280.833,348.833 282.167,349.167 283.5,349.5C 281.872,350.853 280.538,350.519 279.5,348.5 Z" fill="#ffffff" style="opacity:0.404"/></g>
<g><path d="M 344.5,349.5 C 344.027,350.906 343.027,351.573 341.5,351.5C 341.973,350.094 342.973,349.427 344.5,349.5 Z" fill="#ffffff" style="opacity:0.012"/></g>
<g><path d="M 165.5,350.5 C 165.082,351.222 164.416,351.722 163.5,352C 147.994,352.828 132.661,352.661 117.5,351.5C 133.535,351.788 149.535,351.455 165.5,350.5 Z" fill="#ffffff" style="opacity:0.273"/></g>
<g><path d="M 271.5,352.5 C 273.027,352.427 274.027,353.094 274.5,354.5C 272.973,354.573 271.973,353.906 271.5,352.5 Z" fill="#ffffff" style="opacity:0.212"/></g>
<g><path d="M 295.5,350.5 C 295.423,351.75 294.756,352.583 293.5,353C 300.453,354.163 307.453,354.663 314.5,354.5C 306.899,355.937 299.232,355.604 291.5,353.5C 292.467,352.016 293.8,351.016 295.5,350.5 Z" fill="#ffffff" style="opacity:0.294"/></g>
<g><path d="M 327.5,351.5 C 327.389,352.117 327.056,352.617 326.5,353C 322.56,354.015 318.56,354.515 314.5,354.5C 318.65,353.19 322.983,352.19 327.5,351.5 Z" fill="#ffffff" style="opacity:0.118"/></g>
<g><path d="M 274.5,354.5 C 276.698,354.12 278.365,354.787 279.5,356.5C 277.597,356.204 275.93,355.537 274.5,354.5 Z" fill="#ffffff" style="opacity:0.8"/></g>
<g><path d="M 243.5,356.5 C 244.833,357.167 244.833,357.167 243.5,356.5 Z" fill="#ffffff" style="opacity:0.004"/></g>
<g><path d="M 285.5,358.5 C 290.077,358.925 294.41,359.925 298.5,361.5C 293.727,361.876 289.393,360.876 285.5,358.5 Z" fill="#ffffff" style="opacity:0.839"/></g>
<g><path d="M 52.5,359.5 C 53.8333,360.167 53.8333,360.167 52.5,359.5 Z" fill="#ffffff" style="opacity:0.004"/></g>
<g><path d="M 322.5,360.5 C 317.745,361.942 312.745,362.608 307.5,362.5C 304.314,362.498 301.314,362.165 298.5,361.5C 306.521,361.558 314.521,361.224 322.5,360.5 Z" fill="#ffffff" style="opacity:0.027"/></g>
<g><path d="M 76.5,362.5 C 77.8333,363.167 77.8333,363.167 76.5,362.5 Z" fill="#ffffff" style="opacity:0.004"/></g>
<g><path d="M 131.5,372.5 C 132.833,373.167 132.833,373.167 131.5,372.5 Z" fill="#ffffff" style="opacity:0.004"/></g>
<g><path d="M 358.5,354.5 C 359.363,357.248 360.363,360.082 361.5,363C 360.92,369.059 360.254,375.059 359.5,381C 359.483,390.578 360.15,400.412 361.5,410.5C 360.754,411.736 360.421,413.07 360.5,414.5C 359.503,433.326 359.17,452.326 359.5,471.5C 358.501,432.67 358.168,393.67 358.5,354.5 Z" fill="#ffffff" style="opacity:0.112"/></g>
<g><path d="M 413.5,325.5 C 414.833,368.5 414.833,411.5 413.5,454.5C 413.5,453.167 413.5,451.833 413.5,450.5C 413.451,414.237 413.451,377.57 413.5,340.5C 413.5,335.5 413.5,330.5 413.5,325.5 Z" fill="#ffffff" style="opacity:0.754"/></g>
<g><path d="M 163.5,376.5 C 164.833,377.167 164.833,377.167 163.5,376.5 Z" fill="#ffffff" style="opacity:0.004"/></g>
<g><path d="M 431.5,378.5 C 432.833,379.167 432.833,379.167 431.5,378.5 Z" fill="#ffffff" style="opacity:0.004"/></g>
<g><path d="M 212.5,385.5 C 213.833,386.167 213.833,386.167 212.5,385.5 Z" fill="#ffffff" style="opacity:0.004"/></g>
<g><path d="M 336.5,387.5 C 337.833,388.167 337.833,388.167 336.5,387.5 Z" fill="#ffffff" style="opacity:0.004"/></g>
<g><path d="M 96.5,395.5 C 97.8333,396.167 97.8333,396.167 96.5,395.5 Z" fill="#ffffff" style="opacity:0.004"/></g>
<g><path d="M 434.5,395.5 C 435.833,396.167 435.833,396.167 434.5,395.5 Z" fill="#ffffff" style="opacity:0.004"/></g>
<g><path d="M 131.5,396.5 C 132.833,397.167 132.833,397.167 131.5,396.5 Z" fill="#ffffff" style="opacity:0.004"/></g>
<g><path d="M 267.5,397.5 C 268.833,398.167 268.833,398.167 267.5,397.5 Z" fill="#ffffff" style="opacity:0.004"/></g>
<g><path d="M 352.5,353.5 C 352.5,393.833 352.5,434.167 352.5,474.5C 351.522,474.189 350.855,473.522 350.5,472.5C 351.161,432.706 351.828,393.039 352.5,353.5 Z" fill="#ffffff" style="opacity:0.445"/></g>
<g><path d="M 481.5,404.5 C 482.833,405.167 482.833,405.167 481.5,404.5 Z" fill="#ffffff" style="opacity:0.004"/></g>
<g><path d="M 422.5,317.5 C 421.675,369.459 421.175,421.459 421,473.5C 420.722,474.416 420.222,475.082 419.5,475.5C 420.32,423.195 420.82,370.862 421,318.5C 421.383,317.944 421.883,317.611 422.5,317.5 Z" fill="#ffffff" style="opacity:0.215"/></g>
<g><path d="M 467.5,406.5 C 468.833,407.167 468.833,407.167 467.5,406.5 Z" fill="#ffffff" style="opacity:0.004"/></g>
<g><path d="M 248.5,410.5 C 249.833,411.167 249.833,411.167 248.5,410.5 Z" fill="#ffffff" style="opacity:0.004"/></g>
<g><path d="M 332.5,413.5 C 333.833,414.167 333.833,414.167 332.5,413.5 Z" fill="#ffffff" style="opacity:0.004"/></g>
<g><path d="M 342.5,413.5 C 343.833,414.167 343.833,414.167 342.5,413.5 Z" fill="#ffffff" style="opacity:0.004"/></g>
<g><path d="M 435.5,413.5 C 436.833,414.167 436.833,414.167 435.5,413.5 Z" fill="#ffffff" style="opacity:0.004"/></g>
<g><path d="M 360.5,414.5 C 361.833,415.167 361.833,415.167 360.5,414.5 Z" fill="#ffffff" style="opacity:0.004"/></g>
<g><path d="M 395.5,428.5 C 396.833,429.167 396.833,429.167 395.5,428.5 Z" fill="#ffffff" style="opacity:0.004"/></g>
<g><path d="M 208.5,431.5 C 209.833,432.167 209.833,432.167 208.5,431.5 Z" fill="#ffffff" style="opacity:0.004"/></g>
<g><path d="M 413.5,450.5 C 413.5,451.833 413.5,453.167 413.5,454.5C 403.63,455.214 393.63,455.88 383.5,456.5C 383.611,455.883 383.944,455.383 384.5,455C 393.827,454.5 403.161,454.334 412.5,454.5C 412.232,452.901 412.566,451.568 413.5,450.5 Z" fill="#ffffff" style="opacity:0.165"/></g>
<g><path d="M 105.5,455.5 C 106.833,456.167 106.833,456.167 105.5,455.5 Z" fill="#ffffff" style="opacity:0.004"/></g>
<g><path d="M 383.5,456.5 C 383.5,458.167 383.5,459.833 383.5,461.5C 382.661,460.359 381.994,459.026 381.5,457.5C 381.957,456.702 382.624,456.369 383.5,456.5 Z" fill="#ffffff" style="opacity:0.482"/></g>
<g><path d="M 385.5,462.5 C 395.015,462.173 404.348,462.506 413.5,463.5C 412.504,463.414 411.671,463.748 411,464.5C 402.402,463.846 393.902,463.18 385.5,462.5 Z" fill="#ffffff" style="opacity:0.033"/></g>
<g><path d="M 156.5,473.5 C 157.833,474.167 157.833,474.167 156.5,473.5 Z" fill="#ffffff" style="opacity:0.004"/></g>
<g><path d="M 360.5,474.5 C 361.5,474.833 362.167,475.5 362.5,476.5C 361.167,476.5 360.5,475.833 360.5,474.5 Z" fill="#ffffff" style="opacity:0.596"/></g>
<g><path d="M 436.5,476.5 C 437.833,477.167 437.833,477.167 436.5,476.5 Z" fill="#ffffff" style="opacity:0.004"/></g>
<g><path d="M 219.5,477.5 C 220.833,478.167 220.833,478.167 219.5,477.5 Z" fill="#ffffff" style="opacity:0.004"/></g>
<g><path d="M 413.5,466.5 C 414.655,472.695 412.322,476.861 406.5,479C 392.833,479.667 379.167,479.667 365.5,479C 364.058,478.623 363.058,477.79 362.5,476.5C 363.922,476.709 365.255,477.209 366.5,478C 379.5,478.667 392.5,478.667 405.5,478C 410.792,475.894 413.459,472.061 413.5,466.5 Z" fill="#ffffff" style="opacity:0.333"/></g>
<g><path d="M 355.5,479.5 C 356.5,479.833 357.167,480.5 357.5,481.5C 356.167,481.5 355.5,480.833 355.5,479.5 Z" fill="#ffffff" style="opacity:0.024"/></g>
<g><path d="M 418.5,477.5 C 417.5,480.5 415.5,482.5 412.5,483.5C 414.167,481.167 416.167,479.167 418.5,477.5 Z" fill="#ffffff" style="opacity:0.039"/></g>
<g><path d="M 357.5,481.5 C 359.404,481.738 360.738,482.738 361.5,484.5C 359.596,484.262 358.262,483.262 357.5,481.5 Z" fill="#ffffff" style="opacity:0.467"/></g>
<g><path d="M 55.5,485.5 C 56.8333,486.167 56.8333,486.167 55.5,485.5 Z" fill="#ffffff" style="opacity:0.004"/></g>
<g><path d="M 181.5,496.5 C 182.833,497.167 182.833,497.167 181.5,496.5 Z" fill="#ffffff" style="opacity:0.004"/></g>
</svg>